<?xml version="1.0" encoding="UTF-8"?>
<!-- Generator: Adobe Illustrator 25.2.3, SVG Export Plug-In . SVG Version: 6.00 Build 0)  -->
<svg xmlns="http://www.w3.org/2000/svg" xmlns:xlink="http://www.w3.org/1999/xlink" version="1.1" id="Capa_1" x="0px" y="0px" viewBox="0 0 512 512" style="enable-background:new 0 0 512 512;" xml:space="preserve" width="512" height="512">
<g>
	<g>
		<g>
			
				<ellipse transform="matrix(0.997 -0.0771 0.0771 0.997 -27.166 35.8046)" style="fill:#FB5555;" cx="450.009" cy="369.643" rx="62.133" ry="29.448"/>
		</g>
		<g>
			<path style="fill:#FB5555;" d="M480.206,407.163c0.698,9.028-14.178,17.541-33.226,19.015     c-19.048,1.473-35.056-4.651-35.754-13.679c-0.699-9.028,14.177-17.541,33.226-19.014     C463.5,392.011,479.508,398.135,480.206,407.163z"/>
		</g>
		<g>
			<path style="fill:#FB5555;" d="M112.111,455.228c1.037,13.404-21.049,26.042-49.329,28.23     c-28.28,2.188-52.045-6.905-53.082-20.308c-1.037-13.404,21.049-26.042,49.329-28.23     C87.309,432.733,111.075,441.825,112.111,455.228z"/>
		</g>
		<g>
			<path style="fill:#FB5555;" d="M85.866,490.202c0.577,7.462-11.719,14.499-27.464,15.717     c-15.745,1.218-28.977-3.844-29.554-11.307c-0.577-7.462,11.719-14.499,27.464-15.717     C72.057,477.678,85.289,482.74,85.866,490.202z"/>
		</g>
		<g>
			<path style="fill:#FF983D;" d="M480.243,202.326c0,0-0.236,3.631-0.679,9.802c-2.332,33.629-10.57,142.43-19.28,149.486     c-4.99,4.045-17.42,12.371-39.534,22.853c-23.354,11.131-57.545,24.683-105.169,38.235     c-92.621,26.396-264.989,46.325-272.194,38.59c-7.204-7.706-32.566-156.691-32.566-156.691L480.243,202.326z"/>
		</g>
		<g style="opacity:0.2;">
			<path style="fill:#A9312F;" d="M479.564,212.128c-2.332,33.629-10.57,142.43-19.28,149.486     c-4.99,4.045-17.42,12.371-39.534,22.853c9.3-43.461,6.938-79.836,6.938-79.836c-21.465,20.697-39.682-6.23-39.682-6.23     c-7.145,5.197-7.411,37.704-34.928,41.483c-27.518,3.779-37.527-27.459-37.527-27.459c-20.786,20.107-57.899,3.779-57.899,3.779     l-10.363-12.371l102.335-46.296L479.564,212.128z"/>
		</g>
		<g>
			<path style="fill:#FB5555;" d="M20.841,266.043c0,0-25.111,19.886-20.206,38.564c4.925,18.749,22.923,17.691,22.923,17.691     s-3.429,56.72,15.184,58.805c18.613,2.085,5.267-35.45,17.779-41.289c12.512-5.839,29.449,6.256,37.246-12.929     c7.797-19.184,39.91-13.346,41.161,5.005c1.251,18.351,2.919,30.862,20.019,28.777c17.099-2.085,6.611-30.862,26.869-34.199     c20.259-3.337,18.602,21.065,48.823,14.847c34.879-7.176,19.814-34.381,38.582-36.709c18.768-2.327,32.113,4.367,38.786-9.199     c6.673-13.565,15.848-15.822,22.521-9.48c6.673,6.342,1.251,43.042,21.687,41.374c20.436-1.668,17.47-51.298,38.763-55.469     c21.293-4.17,41.312-1.069,51.738-28.686c0,0,29.611,11.011,46.293-22.9c16.682-33.91-48.617-88.962-92.706-116.488     C352.214,76.235,70.235,227.892,70.235,227.892L20.841,266.043z"/>
		</g>
		<g>
			<g>
				<g>
					<g>
						<path style="fill:#FF983D;" d="M26.989,237.781c0,0-17.697,18.293-13.117,33.285c3.479,11.388,15.536,11.473,25.131,8.521        c12.491-3.842,23.427-11.4,29.78-22.994c1.535-2.801,3.178-5.46,4.872-8.131c-2.288-1.094-5.475-1.375-8.004-1.946        c-4.558-1.03-9.116-2.06-13.674-3.09c-7.883-1.781-15.767-3.562-23.65-5.343C27.88,237.982,27.434,237.881,26.989,237.781z"/>
					</g>
					<g style="opacity:0.2;">
						<path style="fill:#A9312F;" d="M26.989,237.781c0,0-17.697,18.293-13.117,33.285c3.479,11.388,15.536,11.473,25.131,8.521        c12.491-3.842,23.427-11.4,29.78-22.994c1.535-2.801,3.178-5.46,4.872-8.131c-2.288-1.094-5.475-1.375-8.004-1.946        c-4.558-1.03-9.116-2.06-13.674-3.09c-7.883-1.781-15.767-3.562-23.65-5.343C27.88,237.982,27.434,237.881,26.989,237.781z"/>
					</g>
				</g>
				<g>
					<path style="fill:#A9312F;" d="M32.359,281.015c-1.246-1.638-1.933-3.648-2.229-5.692c-0.316-2.054-0.184-4.188,0.34-6.223       c0.577-2.012,1.412-3.983,2.728-5.6c1.219-1.674,2.83-3.015,4.604-3.999c-0.929,1.84-1.927,3.451-2.68,5.167       c-0.813,1.675-1.401,3.405-1.861,5.152C32.311,273.335,32.138,276.985,32.359,281.015z"/>
				</g>
				<g>
					<path style="fill:#A9312F;" d="M15.668,274.99c-0.744-1.39-1.025-2.93-1.073-4.463c-0.06-1.542,0.21-3.091,0.691-4.586       c0.509-1.484,1.341-2.887,2.427-4.038c1.052-1.182,2.484-2.006,3.974-2.403c-0.79,1.379-1.57,2.483-2.148,3.718       c-0.568,1.219-1.143,2.391-1.53,3.668C17.112,269.403,16.54,272.028,15.668,274.99z"/>
				</g>
			</g>
			<g>
				<path style="fill:#FF983D;" d="M383.576,58.862C351.094,12.229,267.8-14.464,194.474,25.093      c-46.136,24.889-71.145,68.608-83.357,97.618c-4.44-0.046-8.993-0.02-13.698,0.111c-0.341,0.026-0.684,0.029-1.005,0.03      c-1.185,0.067-2.35,0.086-3.488,0.172c-3.101,0.142-6.079,0.391-8.941,0.675c-0.022,0.002-0.438-0.356-0.438-0.356      c-1.742-1.562-4.023-3.883-4.293-4.138c-3.493-3.534-5.777-8.327-8.881-12.165c-4.518-5.585-11.214-9.426-18.73-7.463      c-0.471,0.127-0.89,0.342-1.298,0.693c-1.011,0.854-1.79,2.354-2.351,4.319c-2.077,7.044-1.259,19.68,1.845,27.157      c0.057,0.156,0.115,0.312,0.195,0.466c-6.993,3.136-12.747,6.934-17.502,11.229c-4.732,4.293-8.468,9.059-11.425,14.133      c-0.406,0.694-0.786,1.409-1.167,2.124c-1.546,2.862-2.808,5.841-3.908,8.852c-0.058,0.142-0.116,0.283-0.128,0.422      c-0.571,1.53-1.051,3.054-1.506,4.598c-0.22,0.726-0.418,1.427-0.593,2.15c-0.939,3.618-1.646,7.286-2.195,10.92      c-0.037,0.415-0.097,0.831-0.159,1.225c-0.037,0.415-0.099,0.808-0.137,1.223c-0.242,1.94-0.374,3.827-0.44,5.685      c0.007,0.091,0.012,0.159-0.002,0.275c-0.101,2.295-0.069,4.535,0.05,6.723c0.053,1.003,0.127,1.981,0.222,2.935      c1.512,16.085,7.981,27.814,12.069,33.775c0.255,0.347,0.486,0.673,0.714,0.976l3,3.068c0,0-0.621,6.09,1.479,6.108      c2.076,0.018,2.051-3.37,1.934-4.917c0.701,1.709,3.288,6.283,5.707,5.762c2.137-0.459,0.682-3.364,0.682-3.364      c0.702,1.402,5.004,2.84,6.288,3.479c18.306,9.102,39.071,13.375,59.42,13.829c14.541,0.324,29.082-1.384,43.217-4.772      c-5.493,4.846-10.663,10.813-13.573,17.8c-8.361,20.078,18.859,25.508,28.989,23.937c32.092-4.977,80.703-20.394,89.917-71.682      c0,0,3.071,22.977,4.465,30.736c0,0-46.2,20.151-44.579,40.962c0.647,8.308,10.319,3.843,28.476-6.449      c18.157-10.291,37.131-6.11,42.277-13.507s4.181-14.472,4.181-14.472s70.431-4.44,99.697-42.42      C414.772,185.573,416.058,105.494,383.576,58.862z"/>
			</g>
			<g>
				<path style="fill:#A9312F;" d="M174.15,127.133l-6.372,2.63c-5.294-1.737-9.255-2.373-9.462-2.42      c1.747-13.418,13.24-25.811,18.679-25.848l0.016-0.001c0.992,3.012,2.153,6.621,0.439,14.688      c-0.174,0.793-0.287,1.566-0.371,2.32L174.15,127.133z"/>
			</g>
			<g>
				<path style="fill:#A9312F;" d="M61.075,124.246l-5.761,5.761c-1.892,0.762-3.783,1.498-5.279,2.207      c-4.158-7.001-4.641-20.506-2.584-27.539c0.569-1.961,1.892-3.55,2.904-4.406c0,0,2.848,1.173,5.279,7.742      c0.883,2.397,1.664,4.693,2.572,6.807L61.075,124.246z"/>
			</g>
			<g style="opacity:0.48;">
				<path style="fill:#E54949;" d="M131.123,240.074c-5.101,3.554-5.837,10.8,0.05,14.414c7.885,4.838,22.716,3.854,29.664-2.392      c5.866-5.274,2.183-14.787-4.25-16.452c-5.438-1.407-11.196-0.882-16.503,0.633      C137.617,236.982,133.982,238.083,131.123,240.074z"/>
			</g>
			<g style="opacity:0.48;">
				<path style="fill:#E54949;" d="M61.883,234.964c4.07,3.425,4.134,9.656-1.164,12.277c-7.093,3.509-19.654,1.518-25.088-4.343      c-4.588-4.949-0.711-12.769,4.9-13.687c4.742-0.776,9.608,0.119,14.012,1.822C56.59,231.825,59.601,233.045,61.883,234.964z"/>
			</g>
			<g>
				<path style="fill:#A9312F;" d="M96.411,122.864c-4.139,5.287-7.114,11.531-8.146,18.097c-0.725,4.64-0.653,9.531,1.873,13.644      c2.011,3.295,5.59,5.878,9.604,5.341c3.196-0.429,5.58-3.135,6.903-5.855c1.754-3.626,3.635-7.198,5.698-10.66      c3.749-6.319,8.464-14.706,14.756-20.187C127.099,123.244,105.653,121.919,96.411,122.864z"/>
			</g>
			<g>
				<path style="fill:#A9312F;" d="M13.806,175.714c8.256,7.517,18.272,15.01,10.214,16.305c-4.3,0.684-8.76-0.773-12.712-2.923      C11.308,189.096,11.489,181.733,13.806,175.714z"/>
			</g>
			<g>
				<path style="fill:#A9312F;" d="M11.145,204.703c4.079,0.331,8.398,0.114,11.236-1.55c5.003-2.935-3.121-6.017-11.502-8.379      C10.879,194.774,10.466,200.675,11.145,204.703z"/>
			</g>
			<g>
				<path style="fill:#A9312F;" d="M19.942,159.703c4.804,6.826,8.663,13.739,3.143,12.924c-2.381-0.35-4.876-1.799-7.199-3.651      C15.886,168.976,17.427,164.242,19.942,159.703z"/>
			</g>
			<g>
				<path style="fill:#A9312F;" d="M147.786,125.424c-1.662,1.732-3.528,3.667-4.868,5.125c-4.236,4.624-8.691,11.089-11.931,11.755      c-6.771,1.401-9.409-5.23-4.923-11.901c2.047-3.04,4.862-5.217,7.323-6.698l0.015-0.001      C138.425,124.135,143.21,124.71,147.786,125.424z"/>
			</g>
			<g>
				<path style="fill:#A9312F;" d="M92.93,123.017c-3.562,4.448-7.441,11.946-11.019,13.09c-5.391,1.717-9.501-2.526-7.15-5.48      c2.278-2.87,4.902-5.095,7.182-6.702C85.669,123.249,89.127,123.017,92.93,123.017z"/>
			</g>
			<g style="opacity:0.48;">
				<path style="fill:#A9312F;" d="M19.113,231.628c1.176,1.95,2.359,3.892,3.628,5.769c0.623,0.945,1.27,1.872,1.953,2.764      c0.682,0.879,1.421,1.76,2.242,2.371l0.204,0.152l-0.007,0.275c-0.025,0.957,0.005,1.958,0.171,2.89      c0.145,0.903,0.54,1.901,1.08,2.008c0.722,0.143,0.949-1.078,1.048-1.558c0.189-0.915,0.236-1.917,0.239-2.867l0.006-2.441      l1.112,2.159c0.48,0.932,1.032,1.865,1.628,2.736c0.6,0.868,1.254,1.716,2.013,2.347c0.372,0.318,0.795,0.565,1.16,0.598      c1.615,0.143,0.842-2.348,0.548-3.145l-0.441-1.195l1.045,0.675c1.51,0.974,3.117,1.838,4.737,2.649      c1.626,0.806,3.312,1.493,5.079,1.965c-1.818-0.242-3.577-0.83-5.289-1.491c-1.711-0.683-3.352-1.501-4.968-2.413l0.604-0.521      c0.235,0.54,0.412,1.069,0.536,1.647c0.144,0.674,0.178,1.625-0.253,2.212c-0.381,0.519-1.076,0.718-1.695,0.662      c-0.727-0.066-1.28-0.424-1.742-0.785c-0.942-0.738-1.639-1.632-2.281-2.547c-0.641-0.921-1.21-1.86-1.736-2.86l1.117-0.281      c0.015,1.061-0.059,2.082-0.277,3.141c-0.123,0.527-0.265,1.061-0.589,1.599c-0.389,0.645-1.154,1.046-1.909,0.814      c-0.734-0.206-1.158-0.825-1.39-1.337c-0.237-0.535-0.347-1.068-0.436-1.595c-0.149-1.058-0.172-2.083-0.087-3.135l0.197,0.427      c-0.966-0.806-1.641-1.741-2.307-2.685c-0.651-0.95-1.256-1.923-1.835-2.908C21.097,235.73,20.04,233.71,19.113,231.628z"/>
			</g>
			<g>
				<g>
					<g>
						<path style="fill:#FFFFFF;" d="M158.304,234.23c-7.136,4.827-18.293,6.387-26.346,3.206c-1.72-0.681-3.318-1.605-4.75-2.807        c-6.198-5.255-9.668-14.443-9.653-22.507c-0.014-0.186-0.012-0.373-0.011-0.561c0.165-8.137,4.866-15.478,11.982-19.337        c8.33-4.512,20.709-5.993,28.363,0.572c3.019,2.595,5.395,6.189,6.98,10.233l0.015-0.001        C169.142,213.794,167.858,227.754,158.304,234.23z"/>
					</g>
					<g>
						<path style="fill:#A9312F;" d="M158.304,234.23c-4.038,2.721-8.808,4.193-13.623,4.78c-2.416,0.279-4.869,0.294-7.295,0.001        c-2.424-0.284-4.838-0.874-7.081-1.928c-2.25-1.048-4.229-2.653-5.876-4.493c-1.663-1.838-3.054-3.913-4.191-6.115        c-2.263-4.413-3.537-9.333-3.68-14.353l0.003,0.076c-0.144-5.975,2.101-11.749,6.094-16.075        c1.981-2.148,4.344-3.985,6.967-5.259c2.587-1.302,5.325-2.264,8.144-2.872c5.6-1.174,11.743-0.975,16.974,1.743        c2.618,1.33,4.806,3.367,6.524,5.639c1.741,2.278,3.064,4.83,4.045,7.483l-0.477-0.299l0.015-0.001l0.342-0.018l0.12,0.318        c1.007,2.725,1.661,5.569,1.938,8.442c0.266,2.872,0.187,5.774-0.298,8.607c-0.49,2.83-1.438,5.584-2.861,8.073        C162.663,230.461,160.688,232.64,158.304,234.23z M158.304,234.23c2.37-1.612,4.319-3.804,5.717-6.292        c1.417-2.485,2.254-5.265,2.672-8.076c0.423-2.817,0.394-5.691-0.009-8.499c-0.399-2.829-1.216-5.504-2.232-8.165        c0.153,0.106,0.331,0.362,0.185,0.49c0,0-0.2-0.42-0.31-0.68c-2.028-4.76-5.292-9.192-9.901-11.544        c-4.896-2.498-10.92-2.52-16.172-1.267c-9.875,2.356-18.167,9.132-19.543,19.642c-0.703,5.375,0.495,11.153,2.741,16.043        c1.83,3.984,4.554,7.692,8.313,10.044c4.365,2.731,9.861,3.346,14.898,2.897C149.474,238.393,154.239,236.888,158.304,234.23z        "/>
					</g>
				</g>
				<g>
					<path style="fill:#A9312F;" d="M141.59,232.382c6.478,0.454,13.45-2.532,16.899-8.184c5.495-9.006,1.873-22.152-7.541-26.811       c-5.054-2.501-11.712-2.621-16.774-0.065c-13.526,6.832-10.815,28.043,2.251,33.82       C138.034,231.853,139.787,232.256,141.59,232.382z"/>
				</g>
				<g style="opacity:0.21;">
					<path style="fill:#A9312F;" d="M164.868,203.029c-29.215-11.236-45.37,6.748-47.313,9.094       c-0.014-0.186-0.012-0.373-0.011-0.561c0.165-8.137,4.866-15.478,11.982-19.337c8.33-4.512,20.709-5.993,28.363,0.572       C160.907,195.39,163.284,198.985,164.868,203.029z"/>
				</g>
			</g>
			<g>
				<g>
					<g>
						<path style="fill:#FFFFFF;" d="M67.609,219.402c-3.088,6.798-11.088,9.898-18.085,10.176c-0.965,0.026-1.92-0.027-2.852-0.174        c-11.267-1.754-18.911-16.256-15.596-27.08c0.321-1.116,0.785-2.196,1.363-3.222c5.093-8.962,19.534-13.296,28.548-7.926        c2.173,1.317,3.684,3.558,4.803,5.781c0.77,1.517,1.445,3.228,1.987,5.043C69.516,207.686,69.91,214.347,67.609,219.402z"/>
					</g>
					<g>
						<path style="fill:#A9312F;" d="M67.609,219.402c-0.566,1.186-1.249,2.321-2.1,3.329c-0.864,0.991-1.818,1.914-2.894,2.679        c-2.132,1.55-4.561,2.695-7.107,3.413c-1.271,0.367-2.567,0.66-3.883,0.844c-4.079,0.569-8.119-0.092-11.634-2.307        c-4.641-2.882-7.936-7.607-9.649-12.781c-1.72-5.198-1.653-11.363,1.145-16.186c3.941-6.606,11.73-10.257,19.266-10.391        c3.564-0.063,7.238,0.721,10.262,2.667c3.366,2.167,5.113,5.573,6.356,9.272c0.433,1.289,0.787,2.604,1.087,3.929        c0.577,2.579,0.869,5.222,0.785,7.857C69.169,214.355,68.708,217.003,67.609,219.402z M67.609,219.402        c2.114-4.875,1.829-10.429,0.526-15.452c-0.672-2.53-1.626-4.987-2.899-7.247c-4.054-7.198-12.683-8.202-19.993-5.858        c-4.668,1.466-9.217,4.422-11.699,8.735c-2.507,4.354-2.57,9.672-1.249,14.412c1.346,4.829,4.147,9.457,8.346,12.382        c2.079,1.476,4.51,2.413,7.05,2.782c2.521,0.367,5.278-0.037,7.731-0.651c2.531-0.633,4.992-1.656,7.141-3.167        c1.079-0.749,2.038-1.657,2.912-2.635C66.334,221.706,67.028,220.581,67.609,219.402z"/>
					</g>
				</g>
				<g>
					<path style="fill:#A9312F;" d="M42.601,220.432c0.471,0.354,4.955,5.309,14.106,1.973c9.15-3.335,7.516-15.259,5.903-19.104       c-1.613-3.845-6.905-11.672-17.371-8.237C34.774,198.498,34.501,214.333,42.601,220.432z"/>
				</g>
				<g style="opacity:0.21;">
					<path style="fill:#A9312F;" d="M67.776,202.001c-12.894-6.574-28.653-2.562-36.701,0.323c0.321-1.116,0.785-2.196,1.363-3.222       c5.093-8.962,19.534-13.296,28.548-7.926c2.173,1.317,3.684,3.558,4.803,5.781C66.559,198.475,67.234,200.186,67.776,202.001z"/>
				</g>
			</g>
			<g>
				<path style="fill:#A9312F;" d="M214.577,167.96c-25.421,16.703-35.04-0.395-24.489-3.999c7.069-2.421,13.461-6.771,17.668-9.708      C210.833,158.449,213.112,163.017,214.577,167.96z"/>
			</g>
			<g>
				<path style="fill:#A9312F;" d="M218.304,190.259l0.008,0.108c-0.024,0.516-0.017,1.015-0.027,1.515      c-9.403,4.343-21.042,7.156-30.517,3.739c-3.575-1.289-6.764-4.495-5.769-8.047c0.408-1.419,1.466-2.684,2.781-3.641      c3.886-2.851,9.422-3.674,14.238-4.537c5.477-0.99,11.875-3.828,16.853-6.465C217.238,178.831,218.066,184.632,218.304,190.259z      "/>
			</g>
			<g>
				<path style="fill:#A9312F;" d="M218.194,198.922c-0.466,6.631-1.874,12.976-4.306,18.961c-6.525,1.569-13.728,0.553-19.66-2.414      c-2.642-1.329-5.059-3.594-4.647-6.807c0.537-4.251,6.102-5.108,9.503-5.287C208.311,202.897,214.79,200.521,218.194,198.922z"/>
			</g>
			<g>
				<g>
					<path style="fill:#A9312F;" d="M13.871,239.809c4.009-1.71,8.123-3.076,12.262-4.358c4.15-1.247,8.326-2.408,12.609-3.222       c-4.008,1.713-8.122,3.078-12.262,4.358C22.329,237.832,18.153,238.992,13.871,239.809z"/>
				</g>
				<g>
					<path style="fill:#A9312F;" d="M11.023,229.381c4.153-0.692,8.325-1.025,12.503-1.269c4.179-0.209,8.363-0.327,12.567-0.084       c-4.153,0.695-8.325,1.027-12.503,1.269C19.411,229.504,15.227,229.622,11.023,229.381z"/>
				</g>
				<g>
					<path style="fill:#A9312F;" d="M13.334,216.16c4.034,1.205,7.928,2.74,11.787,4.358c3.845,1.65,7.655,3.383,11.323,5.451       c-4.035-1.202-7.929-2.738-11.787-4.358C20.814,219.958,17.003,218.225,13.334,216.16z"/>
				</g>
			</g>
			<g>
				<path style="fill:#FFFFFF;" d="M171.217,125.947c0,0-3.023,0.026-3.882-0.611c-0.874-0.636,3.753-1.094,3.753-1.094      c-2.385-0.818-4.482-3.389-3.695-3.495c0.802-0.123,3.652,1.689,3.652,1.689c-3.117-3.897-1.585-10.251,1.563-10.083      c1.346,0.07,3.012,2.922,4.472,6.15c-1.292,11.186,5.942,18.795,7.229,19.727c-5.27-4.109-11.493-6.805-16.53-8.467      C168.385,127.471,171.217,125.947,171.217,125.947z"/>
			</g>
			<g>
				<path style="fill:#FFFFFF;" d="M55.313,130.007c0.245-2.529,2.605-6.185,2.815-6.497c-0.196,0.092-2.267,1.169-3.301,0.686      c-1.083-0.511,2.377-2.191,2.377-2.191s-2.728,0.425-3.007-0.381c-0.293-0.789,2.514-0.782,2.514-0.782      c-2.06-1.045-6.03-6.125-3.686-7.721c1.527-1.035,3.78,0.494,5.18,1.698c2.156,4.999,5.058,8.959,12.03,10.819      C70.235,125.636,62.019,127.941,55.313,130.007z"/>
			</g>
			<g>
				<path style="fill:#FB5555;" d="M84.581,215.223c-3.911,0.898-7.669,3.309-9.918,7.074c-3.262,5.458-3.899,12.315,0.251,17.287      c2.576,3.087,6.206,4.771,9.856,5.797c6.995,1.964,14.081,3.422,21.256,1.447c2.602-0.716,5.169-1.834,7.291-3.708      c3.252-2.873,5.245-7.506,5.225-12.147c-0.02-4.641-2.053-9.181-5.328-11.901c-4.029-3.346-10.06-4.422-14.997-4.377      C93.82,214.736,88.881,214.237,84.581,215.223z"/>
			</g>
			<g style="opacity:0.48;">
				<g>
					<path style="fill:#A9312F;" d="M335.612,129.761c-2.026-2.05-4.169-3.985-6.432-5.752c-2.259-1.701-4.67-3.509-7.367-4.054       c-1.281-0.288-2.769,0.317-2.875,1.51c-0.114,1.191,0.661,2.497,1.424,3.62c1.627,2.274,3.701,4.298,5.831,6.138l2.198,1.898       l-2.839-0.708c-2.28-0.568-4.598-1.102-6.918-1.494c-2.313-0.393-4.672-0.709-6.916-0.608       c-1.041-0.004-2.425,0.514-2.051,0.527c0.031,0.5,0.913,1.566,1.681,2.287c1.647,1.562,3.573,2.971,5.497,4.252l3.58,2.384       l-4.329-0.522c-13.147-1.586-27.256,0.567-38.438,7.735c-5.602,3.554-10.243,8.47-13.767,14.075       c-3.494,5.643-5.837,11.973-7.547,18.453c-3.404,13.007-4.178,26.661-3.871,40.18c0.419,13.53,1.768,27.111,4.25,40.42       l0.142,0.762l-0.692,0.293c-8.355,3.534-16.501,7.738-24.222,12.554c-3.845,2.436-7.564,5.09-10.963,8.119       c-3.329,3.061-6.546,6.444-8.364,10.679c1.611-4.319,4.673-7.935,7.943-11.131c3.322-3.186,6.978-6.002,10.767-8.602       c7.596-5.202,15.715-9.534,24.12-13.334l-0.549,1.054c-2.821-13.426-4.536-27.028-4.981-40.739       c-0.409-13.68,0.252-27.538,3.657-40.975c1.7-6.702,4.257-13.251,7.971-19.202c3.762-5.894,8.742-11.086,14.698-14.803       c11.951-7.515,26.499-9.596,40.211-7.553l-0.749,1.862c-2.007-1.406-3.915-2.86-5.692-4.616       c-0.439-0.447-0.867-0.914-1.263-1.452c-0.371-0.557-0.821-1.101-0.898-2.128c-0.036-0.519,0.249-1.166,0.669-1.495       c0.388-0.299,0.823-0.476,1.137-0.532c0.685-0.189,1.328-0.235,1.968-0.275c2.527-0.052,4.913,0.34,7.282,0.792       c2.368,0.466,4.693,1.023,7.011,1.703l-0.641,1.19c-2.152-2.005-4.166-4.112-5.812-6.592c-0.748-1.252-1.624-2.61-1.436-4.35       c0.301-1.918,2.503-2.501,3.907-2.111c2.981,0.738,5.27,2.652,7.504,4.462C331.641,125.571,333.688,127.612,335.612,129.761z"/>
				</g>
			</g>
			<g>
				<path style="fill:#A9312F;" d="M230.638,298.393c-0.485-2.512-0.162-5.145,0.611-7.607c0.77-2.475,2.031-4.822,3.693-6.841      c1.718-1.957,3.65-3.771,5.945-4.975c2.219-1.311,4.684-2.12,7.178-2.521c-2.055,1.52-4.081,2.826-5.903,4.376      c-1.873,1.472-3.489,3.179-4.99,4.947c-1.524,1.765-2.733,3.768-3.843,5.853C232.247,293.735,231.348,295.965,230.638,298.393z"/>
			</g>
			<g style="opacity:0.48;">
				<g>
					<path style="fill:#A9312F;" d="M222.388,276.448c3.373-3.365,6.472-6.915,9.463-10.514c2.946-3.639,5.711-7.396,8.161-11.34       c2.533-3.902,4.53-8.094,6.326-12.371c1.767-4.312,2.896-8.832,3.852-13.519c0.168,4.743-0.248,9.639-1.725,14.255       c-1.426,4.614-3.421,9.08-6.007,13.16C237.278,264.247,230.51,271.4,222.388,276.448z"/>
				</g>
			</g>
			<g>
				<g>
					<g>
						<path style="fill:#FF983D;" d="M450.423,221.074c-2.096,0.59-4.134,1.27-6.082,2.037c-6.673,2.598-12.342,6.289-16.564,11.22        c-4.754,5.492-7.706,12.607-8.267,21.553c-0.561,8.474-0.502,18.808-1.447,27.37c-1.152,10.895-3.897,18.955-11.308,17.007        c-6.879-1.801-10.275-15.619-11.042-30.765c-0.384-7.175-0.147-14.645,0.591-21.258c0.679-6.436,1.86-12.046,3.454-15.796        c0.768-1.801,1.594-3.425,2.539-4.931c7.234-11.781,19.369-15.412,29.614-18.749c5.787-1.89,9.478-5.226,10.895-9.419        c1.417-4.163,0.62-9.153-2.509-14.32c-0.148-0.236-0.295-0.472-0.472-0.679c-7.086-9.773-34.485-11.426-34.485-11.426        l1.771-18.66c3.513,0,7.499,0.325,11.722,0.886c10.068,1.358,21.435,4.311,31.179,8.562        c11.603,5.019,20.874,11.928,22.794,20.254C476.996,202.207,470.116,215.553,450.423,221.074z"/>
					</g>
					<g style="opacity:0.2;">
						<path style="fill:#A9312F;" d="M450.423,221.074c-2.096,0.59-4.134,1.27-6.082,2.037c-6.673,2.598-12.342,6.289-16.564,11.22        c-4.754,5.492-7.706,12.607-8.267,21.553c-0.561,8.474-0.502,18.808-1.447,27.37c-1.152,10.895-3.897,18.955-11.308,17.007        c-6.879-1.801-10.275-15.619-11.042-30.765c-0.384-7.175-0.147-14.645,0.591-21.258c0.679-6.436,1.86-12.046,3.454-15.796        c0.768-1.801,1.594-3.425,2.539-4.931c7.234-11.781,19.369-15.412,29.614-18.749c5.787-1.89,9.478-5.226,10.895-9.419        c1.417-4.163,0.62-9.153-2.509-14.32c-0.148-0.236-0.295-0.472-0.472-0.679c-7.086-9.773-34.485-11.426-34.485-11.426        l1.771-18.66c3.513,0,7.499,0.325,11.722,0.886c10.068,1.358,21.435,4.311,31.179,8.562        c11.603,5.019,20.874,11.928,22.794,20.254C476.996,202.207,470.116,215.553,450.423,221.074z"/>
					</g>
				</g>
				<g>
					<path style="fill:#A9312F;" d="M418.063,283.255c-1.152,10.895-3.897,18.955-11.308,17.007       c-6.879-1.801-10.275-15.619-11.042-30.765c4.99,2.392,14.881,8.267,16.239,17.922       C411.951,287.417,413.25,282.723,418.063,283.255z"/>
				</g>
				<g>
					<path style="fill:#A9312F;" d="M408.999,242.008c-2.362,4.399-9.3,5.816-12.696,6.23c0.679-6.436,1.86-12.046,3.454-15.796       c0.768-1.801,1.594-3.425,2.539-4.931C405.633,230.936,411.302,237.727,408.999,242.008z"/>
				</g>
				<g>
					<path style="fill:#A9312F;" d="M444.341,223.112c-6.673,2.598-12.342,6.289-16.564,11.22       c-0.325-4.193,0.03-10.186,3.809-12.844C435.454,218.771,440.975,221.074,444.341,223.112z"/>
				</g>
				<g>
					<path style="fill:#A9312F;" d="M450.009,163.707c-3.159,4.311-8.179,8.621-15.265,6.879       c-8.503-2.096-13.493-10.127-15.914-15.442C428.899,156.502,440.266,159.455,450.009,163.707z"/>
				</g>
				<g>
					<path style="fill:#A9312F;" d="M442.805,199.344c1.417-4.163,0.62-9.153-2.509-14.32c-0.148-0.236-0.295-0.472-0.472-0.679       c4.99-0.325,11.515,0,14.113,4.016C456.594,192.435,449.035,196.686,442.805,199.344z"/>
				</g>
			</g>
			<g>
				<path style="fill:#A9312F;" d="M84.306,215.671c1.336,1.798,2.182,3.896,2.746,6.042c0.589,2.152,0.805,4.395,0.776,6.633      c-0.068,2.236-0.385,4.48-1.117,6.601c-0.647,2.137-1.748,4.129-3.127,5.86c0.284-2.226,0.727-4.268,0.931-6.352      c0.249-2.064,0.417-4.114,0.432-6.172C85.081,224.154,84.733,220.064,84.306,215.671z"/>
			</g>
			<g>
				<path style="fill:#A9312F;" d="M103.342,216.625c-0.006,2.433-0.078,4.779-0.139,7.107c-0.025,2.327-0.11,4.629,0.001,6.91      c0.067,2.28,0.247,4.539,0.575,6.788c0.385,2.24,0.933,4.432,1.744,6.745c-1.814-1.638-3.091-3.859-3.925-6.19      c-0.826-2.345-1.153-4.812-1.275-7.255c-0.058-2.449,0.159-4.882,0.653-7.255C101.467,221.109,102.175,218.776,103.342,216.625z      "/>
			</g>
			<g>
				<path style="fill:#A9312F;" d="M86.215,223.971c0.739-1.043,2.143-1.989,3.5-2.493c1.398-0.554,2.952-0.756,4.494-0.62      c3.091,0.301,5.985,2.204,7.155,4.947c-2.785-1.062-5.023-1.873-7.443-2.079c-1.197-0.157-2.422-0.117-3.704-0.063      C88.972,223.71,87.525,223.978,86.215,223.971z"/>
			</g>
			<g>
				<path style="fill:#A9312F;" d="M94.523,210.022c0,0-4.061-5.025-6.15-4.106c-2.089,0.919,4.02,8.528,6.359,9.24      c2.339,0.712,7.494-7.366,6.234-8.922C99.706,204.68,94.523,210.022,94.523,210.022z"/>
			</g>
			<g>
				<path style="fill:#FB5555;" d="M76.479,208.727c-0.029,0.438,0.007,0.899,0.233,1.275c0.395,0.658,1.255,0.877,2.023,0.857      c0.66-0.017,1.331-0.173,1.875-0.548c0.153-0.106,0.298-0.23,0.394-0.39c0.128-0.212,0.161-0.469,0.151-0.716      c-0.042-0.998-0.971-2.234-2.031-2.296C78.077,206.848,76.553,207.621,76.479,208.727z"/>
			</g>
			<g>
				<path style="fill:#FB5555;" d="M71.717,214.529c0.021,0.292,0.152,0.564,0.312,0.809c0.472,0.723,1.22,1.262,2.056,1.481      c0.836,0.219,1.752,0.117,2.518-0.281c1.508-0.783,1.326-3.523-0.284-4.109C74.958,211.934,71.583,212.653,71.717,214.529z"/>
			</g>
			<g>
				<path style="fill:#A9312F;" d="M156.862,300.626c-0.517-2.023-0.399-4.157,0.047-6.189c0.432-2.048,1.263-4.014,2.383-5.8      c1.159-1.754,2.526-3.399,4.222-4.638c1.626-1.31,3.534-2.233,5.519-2.779c-1.371,1.578-2.761,2.916-3.967,4.409      c-1.245,1.443-2.343,2.965-3.335,4.545C159.697,293.329,158.214,296.758,156.862,300.626z"/>
			</g>
			<g>
				<path style="fill:#A9312F;" d="M138.052,295.408c-0.068-2.146,0.397-4.251,1.1-6.255c0.697-2.016,1.734-3.908,2.971-5.669      c1.259-1.745,2.813-3.299,4.581-4.54c1.735-1.285,3.801-2.109,5.881-2.496c-1.57,1.478-3.093,2.723-4.415,4.204      c-1.317,1.46-2.609,2.909-3.715,4.527C142.129,288.338,140.199,291.758,138.052,295.408z"/>
			</g>
			<g>
				<path style="fill:#A9312F;" d="M377.584,50.861c-2.598,6.997-6.289,13.611-10.481,19.811      c-4.458,6.643-10.806,13.493-18.778,13.08c-1.713-0.059-3.455-0.532-4.872-1.535c-3.041-2.156-3.897-6.437-3.218-10.127      c0.679-3.691,2.539-7.027,3.986-10.481c4.96-12.076,4.399-26.632-1.89-38.147C356.296,30.813,368.343,40.173,377.584,50.861z"/>
			</g>
			<g>
				<path style="fill:#A9312F;" d="M402.031,99.164v0.029c-2.805,1.919-5.816,3.573-8.887,4.96      c-6.082,2.775-12.902,4.724-19.369,3.159c-2.509-0.62-5.226-2.214-5.521-4.783c-0.325-2.923,2.509-5.078,4.99-6.673      c5.433-3.543,10.659-7.588,14.556-12.784c1.949-2.598,3.012-6.584,4.251-10.363C396.185,80.947,399.521,89.893,402.031,99.164z"/>
			</g>
			<g>
				<path style="fill:#A9312F;" d="M314.493,45.612c-1.329,5.226-5.462,20.254-13.7,15.796c-6.495-3.513-8.001-17.361-9.448-23.827      c-1.919-8.385-3.809-17.124-8.178-24.506c-1.565-2.657-3.455-5.108-5.698-7.175c11.603,0.532,22.853,2.333,33.541,5.255      C316.235,21.962,317.475,33.979,314.493,45.612z"/>
			</g>
			<g>
				<path style="fill:#A9312F;" d="M260.723,35.774c-0.295,3.513-1.772,7.499-5.167,8.415c-2.096,0.532-4.37-0.325-5.994-1.742      c-1.653-1.417-2.805-3.307-3.927-5.167c-3.986-6.525-8.179-13.021-13.788-18.188c-2.687-2.48-5.698-4.665-9.005-6.23      c10.068-3.159,20.166-5.255,30.175-6.318c1.21,2.274,2.244,4.635,3.218,7.027C259.069,20.657,261.402,28.186,260.723,35.774z"/>
			</g>
			<g>
				<path style="fill:#A9312F;" d="M237.013,261.878c-5.492,7.765-12.356,12.975-17.08,16.429c-0.974-1.417-1.786-2.641-2.849-3.999      c-2.185-2.864-4.753-5.521-7.588-7.942c-1.594-1.329-3.277-2.628-4.429-4.251c-1.151-1.624-1.653-3.691-0.709-5.403      c1.594-2.923,6.23-3.395,10.009-3.012C222.547,254.497,230.577,257.567,237.013,261.878z"/>
			</g>
			<g>
				<path style="fill:#A9312F;" d="M218.232,61.638c-1.24,1.712-3.631,2.273-5.728,1.86c-2.096-0.413-3.927-1.624-5.669-2.835      c-9.803-6.82-18.896-14.792-29.378-20.638c-1.181-0.65-2.362-1.27-3.573-1.86c6.259-4.783,12.991-9.153,20.254-13.08      c0.413-0.236,0.827-0.443,1.24-0.65c3.011,2.451,5.669,5.285,8.267,8.149c6.023,6.643,11.928,13.7,14.763,22.203      C219.177,57.032,219.62,59.718,218.232,61.638z"/>
			</g>
			<g>
				<path style="fill:#A9312F;" d="M178.759,81.133c-0.738,1.801-2.775,2.775-4.754,2.864c-1.949,0.059-3.838-0.59-5.669-1.27      c-9.773-3.513-19.753-7.086-30.145-8.237c3.573-4.813,7.5-9.625,11.751-14.29c3.809,0.945,7.5,2.421,11.131,3.986      c5.905,2.539,11.928,5.521,15.944,10.57C178.464,76.587,179.645,78.978,178.759,81.133z"/>
			</g>
			<g>
				<path style="fill:#A9312F;" d="M407.582,156.532c-9.212,0.236-18.483-2.037-26.396-6.761c-4.016-2.421-8.09-6.466-7.027-11.013      c0.827-3.455,4.429-5.61,7.942-6.053c3.513-0.443,7.057,0.384,10.57,0.797c4.842,0.532,10.009,0.325,14.881-0.856      C408.083,140.647,408.113,148.678,407.582,156.532z"/>
			</g>
			<g>
				<path style="fill:#A9312F;" d="M403.094,185.673c-1.919,7.647-4.429,14.851-7.47,21.406c-4.281-1.329-8.356-3.455-12.135-5.935      c-3.661-2.392-7.293-5.315-8.858-9.419c-1.565-4.104-0.266-9.566,3.75-11.308c3.602-1.565,7.647,0.236,11.308,1.683      C394,183.784,398.517,184.994,403.094,185.673z"/>
			</g>
			<g>
				<path style="fill:#A9312F;" d="M378.647,231.467c-5.58,5.315-12.017,9.832-18.808,13.641c-4.37-4.193-7.677-9.625-10.157-15.206      c-1.447-3.277-2.657-6.82-2.244-10.393c0.413-3.543,2.952-7.086,6.495-7.558c3.573-0.502,6.82,2.067,9.301,4.665      c4.753,4.931,8.798,10.806,14.733,14.467C378.175,231.201,378.411,231.349,378.647,231.467z"/>
			</g>
		</g>
		<g>
			<path style="fill:#FB5555;" d="M121.705,484.565c0.222,2.874-4.513,5.584-10.577,6.053c-6.064,0.469-11.16-1.481-11.382-4.355     c-0.222-2.874,4.513-5.584,10.577-6.053C116.386,479.742,121.482,481.691,121.705,484.565z"/>
		</g>
		<g>
			<path style="fill:#FB5555;" d="M404.131,408.981c0.222,2.874-4.513,5.584-10.577,6.053c-6.064,0.469-11.16-1.481-11.382-4.355     c-0.222-2.874,4.513-5.584,10.577-6.053C398.812,404.158,403.909,406.108,404.131,408.981z"/>
		</g>
		<g>
			<path style="fill:#FB5555;" d="M26.989,393.547c0,0-5.201,5.516-2.099,16.284c3.102,10.768,21.937,6.471,32.467,0     c10.53-6.471,26.015,7.66,50.041,5.273c24.026-2.386,35.759-12.729,35.759-12.729s10.623,5.418,17.916,4.925     c7.293-0.492,15.666-10.343,15.666-10.343s21.852,9.312,45.65,2.44c23.798-6.873,39.067-23.126,63.694-24.111     c24.627-0.985,43.836,4.925,55.657-8.373c0,0,44.045,5.91,61.179-21.672c0,0,6.044,3.448,18.238,0     c12.195-3.448,12.295-13.791,24.558-15.269c12.264-1.478,26.561-7.012,24.83-17.544c-1.731-10.531-15.878,4.245-30.722,6.708     c-14.845,2.463-34.585,3.94-51.804,18.224c-17.22,14.284-43.324,9.191-55.145,13.954c-11.821,4.763-12.313,11.225-12.313,11.225     s-37.433-17.672-63.538,0c-26.105,17.672-52.668,31.463-71.155,23.089c-18.487-8.373-33.283,4.433-33.283,4.433     s-22.421-8.86-45.186,3.204C84.633,405.329,26.989,393.547,26.989,393.547z"/>
		</g>
	</g>
	<g style="opacity:0.48;">
		<g>
			<path style="fill:#A9312F;" d="M262.327,92.889c-0.234,1.354-0.458,2.694-0.535,4.022c-0.049,1.277,0.007,2.749,0.513,3.435     c0.42,0.431,1.225,0.362,1.91-0.528c0.686-0.829,1.32-2.006,1.714-3.104l1.785-4.97l0.78,5.34     c0.193,1.322,0.425,2.723,0.772,4.015c0.356,1.245,0.853,2.614,1.446,3.234c0.314,0.295,0.365,0.31,0.643,0.294     c0.154-0.019,0.405-0.185,0.681-0.639c0.532-0.894,0.787-2.331,0.907-3.574l0.167-1.721l1.445,0.636     c1.743,0.767,3.691,1.394,5.622,1.826c1.949,0.465,3.951,0.62,6.015,0.338c-1.877,0.949-4.073,1.155-6.194,1.141     c-2.143-0.095-4.212-0.452-6.317-1.125l1.612-1.084c0.009,1.621-0.117,3.125-0.88,4.821c-0.374,0.806-1.18,1.822-2.465,2.104     c-1.149,0.321-2.598-0.261-3.253-1.02c-1.41-1.499-1.737-3.035-2.167-4.526c-0.355-1.505-0.6-2.957-0.684-4.505l2.565,0.37     c-0.654,1.398-1.344,2.654-2.545,3.791c-0.595,0.538-1.383,1.103-2.445,1.196c-0.533,0.032-1.031-0.069-1.499-0.271     c-0.513-0.259-0.89-0.645-1.151-1.093c-0.772-1.777-0.318-3.194,0.007-4.556C261.169,95.389,261.664,94.099,262.327,92.889z"/>
		</g>
	</g>
	<g>
		<path style="fill:#67DCBC;" d="M81.153,311.568c-0.51,0-1.028-0.135-1.496-0.42l-13.379-8.131    c-1.36-0.828-1.794-2.602-0.966-3.963c0.825-1.36,2.602-1.791,3.963-0.966l13.379,8.131c1.36,0.828,1.794,2.602,0.966,3.963    C83.077,311.076,82.128,311.568,81.153,311.568z"/>
	</g>
	<g>
		<path style="fill:#67DCBC;" d="M347.355,295.39c-0.608,0-1.22-0.192-1.743-0.589c-1.267-0.963-1.512-2.771-0.549-4.042    l11.444-15.054c0.963-1.267,2.769-1.512,4.042-0.549c1.267,0.963,1.512,2.771,0.549,4.042l-11.444,15.054    C349.087,294.999,348.225,295.39,347.355,295.39z"/>
	</g>
	<g>
		<path style="fill:#FF983D;" d="M203.864,319.1c-0.67,0-1.341-0.231-1.884-0.701l-14.331-12.373    c-1.205-1.042-1.341-2.862-0.299-4.067c1.042-1.211,2.867-1.335,4.067-0.299l14.33,12.373c1.205,1.042,1.341,2.862,0.299,4.067    C205.478,318.762,204.672,319.1,203.864,319.1z"/>
	</g>
	<g style="opacity:0.48;">
		<circle style="fill:#A9312F;" cx="87.794" cy="363.921" r="1.383"/>
	</g>
	<g style="opacity:0.48;">
		<circle style="fill:#A9312F;" cx="63.444" cy="430.279" r="1.383"/>
	</g>
	<g style="opacity:0.48;">
		<path style="fill:#A9312F;" d="M161.488,421.02c0,0.764-0.619,1.383-1.383,1.383c-0.764,0-1.383-0.619-1.383-1.383    c0-0.763,0.619-1.383,1.383-1.383C160.869,419.637,161.488,420.256,161.488,421.02z"/>
	</g>
	<g style="opacity:0.48;">
		<circle style="fill:#A9312F;" cx="118.543" cy="368.851" r="1.383"/>
	</g>
	<g style="opacity:0.48;">
		<circle style="fill:#A9312F;" cx="439.823" cy="287.421" r="1.383"/>
	</g>
	<g style="opacity:0.48;">
		<path style="fill:#A9312F;" d="M261.601,402.517c0,0.764-0.619,1.383-1.383,1.383c-0.764,0-1.383-0.619-1.383-1.383    c0-0.764,0.619-1.383,1.383-1.383C260.982,401.134,261.601,401.753,261.601,402.517z"/>
	</g>
	<g style="opacity:0.48;">
		<path style="fill:#A9312F;" d="M439.823,365.304c0,0.764-0.619,1.383-1.383,1.383c-0.764,0-1.383-0.619-1.383-1.383    c0-0.764,0.619-1.383,1.383-1.383C439.204,363.921,439.823,364.54,439.823,365.304z"/>
	</g>
	<g style="opacity:0.48;">
		<circle style="fill:#A9312F;" cx="81.443" cy="370.521" r="1.67"/>
	</g>
	<g style="opacity:0.48;">
		<circle style="fill:#A9312F;" cx="128.693" cy="379.517" r="1.67"/>
	</g>
	<g style="opacity:0.48;">
		<circle style="fill:#A9312F;" cx="221.976" cy="357.516" r="1.67"/>
	</g>
	<g style="opacity:0.48;">
		<path style="fill:#A9312F;" d="M313.975,332.651c0,0.922-0.748,1.67-1.67,1.67c-0.922,0-1.67-0.748-1.67-1.67    s0.748-1.67,1.67-1.67C313.228,330.982,313.975,331.729,313.975,332.651z"/>
	</g>
	<g style="opacity:0.48;">
		<circle style="fill:#A9312F;" cx="441.493" cy="306.288" r="1.67"/>
	</g>
	<g style="opacity:0.48;">
		<circle style="fill:#A9312F;" cx="412.871" cy="368.851" r="1.67"/>
	</g>
	<g style="opacity:0.48;">
		<path style="fill:#A9312F;" d="M55.387,421.02c0,0.922-0.748,1.67-1.67,1.67c-0.922,0-1.67-0.748-1.67-1.67    c0-0.922,0.747-1.67,1.67-1.67C54.64,419.35,55.387,420.098,55.387,421.02z"/>
	</g>
	<g style="opacity:0.48;">
		<circle style="fill:#A9312F;" cx="155.599" cy="431.662" r="2.933"/>
	</g>
	<g style="opacity:0.48;">
		<circle style="fill:#A9312F;" cx="430.617" cy="354.864" r="2.933"/>
	</g>
	<g style="opacity:0.48;">
		<circle style="fill:#A9312F;" cx="230.638" cy="348.998" r="2.933"/>
	</g>
	<g style="opacity:0.48;">
		<circle style="fill:#A9312F;" cx="454.483" cy="297.619" r="2.933"/>
	</g>
	<g style="opacity:0.48;">
		<circle style="fill:#A9312F;" cx="322.405" cy="339.89" r="2.933"/>
	</g>
	<g style="opacity:0.48;">
		<g>
			<path style="fill:#A9312F;" d="M144.684,259.501c3.384-0.953,6.754-1.887,10.075-2.99c3.341-1.018,6.657-2.107,9.927-3.306     c6.544-2.382,12.997-4.97,19.188-8.062c6.19-3.077,12.13-6.654,17.441-11.021c2.678-2.159,5.113-4.615,7.22-7.335     c2.19-2.668,3.947-5.676,5.353-8.904c-1.634,6.888-5.893,13.048-11.098,17.897c-5.182,4.951-11.314,8.733-17.63,11.943     c-6.38,3.106-12.998,5.673-19.793,7.583C158.584,257.241,151.689,258.784,144.684,259.501z"/>
		</g>
	</g>
</g>















</svg>
