<svg xmlns="http://www.w3.org/2000/svg" xmlns:xlink="http://www.w3.org/1999/xlink" version="1.1" id="Capa_1" x="0px" y="0px" viewBox="0 0 512.043 512.043" style="enable-background:new 0 0 512.043 512.043;" xml:space="preserve" width="512" height="512">
<g>
<g>
<path style="fill:#FFC48F;" d="M452.329,346.967c-7.991,10.073-75.901,81.653-159.975,78.296 c-12.728-0.521-26.472-2.213-40.657-4.842c-8.485-1.562-17.153-3.462-25.873-5.622c-72.882-18.09-149.798-54.948-165.806-75.901 c-19.834-25.977-15.826-71.45-8.329-85.74c0.495-0.937,0.989-1.744,1.51-2.394c6.534-8.33,29.387-22.646,39.148-28.554 c2.759-1.666,4.477-2.655,4.477-2.655l0.547-3.279l119.995,2.759l39.642,0.911l92.638,2.135c0,0,89.124,18.194,99.431,36.701 c1.666,2.967,3.072,7.002,4.243,11.713c2.03,8.173,3.358,18.351,3.956,28.684C458.498,320.027,456.832,341.318,452.329,346.967z"/>
</g>
<g style="opacity:0.2;">
<path style="fill:#AA312F;" d="M453.318,270.493c-23.895,23.27-69.185,56.978-134.154,61.507 c-100.603,7.002-231.529-74.912-250.01-79.207c-7.574-1.77-13.327-1.067-17.466,0.364c0.495-0.937,0.989-1.744,1.51-2.395 c8.381-10.672,43.625-31.209,43.625-31.209l0.547-3.28l252.275,5.805c0,0,89.124,18.194,99.431,36.701 C450.741,261.747,452.146,265.782,453.318,270.493z"/>
</g>
<g>
<g>
<g>
<path style="fill:#FF993D;" d="M94.896,231.736c-7.887-1.562-14.655-2.785-20.407-4.295c-7.028-1.822-12.546-4.034-16.763-7.783 c-3.384-3.02-5.935-7.002-7.783-12.52c-3.826-11.505,5.024-35.322,10.438-53.099c1.77-5.726,3.15-10.828,3.644-14.706 c0.781-6.325-1.406-13.041-4.295-19.392c-5.544-12.182-13.639-23.01-8.017-27.07c4.998-3.592,12.26-1.015,18.507,6.013 c7.262,8.147,13.171,22.281,12.624,39.695c-0.417,13.743-3.722,24.858-7.158,34.02c-2.707,7.262-5.492,13.301-6.976,18.428 c-1.067,3.696-1.458,6.95-0.677,9.839c3.254,12.052,27.617,10.62,27.617,10.62S120.275,236.759,94.896,231.736z"/>
</g>
<g style="opacity:0.4;">
<path style="fill:#AA312F;" d="M94.896,231.736c-7.887-1.562-14.655-2.785-20.407-4.295c-7.028-1.822-12.546-4.034-16.763-7.783 c-3.384-3.02-5.935-7.002-7.783-12.52c-3.826-11.505,5.024-35.322,10.438-53.099c1.77-5.726,3.15-10.828,3.644-14.706 c0.781-6.325-1.406-13.041-4.295-19.392c-5.544-12.182-13.639-23.01-8.017-27.07c4.998-3.592,12.26-1.015,18.507,6.013 c7.262,8.147,13.171,22.281,12.624,39.695c-0.417,13.743-3.722,24.858-7.158,34.02c-2.707,7.262-5.492,13.301-6.976,18.428 c-1.067,3.696-1.458,6.95-0.677,9.839c3.254,12.052,27.617,10.62,27.617,10.62S120.275,236.759,94.896,231.736z"/>
</g>
</g>
<g>
<path style="fill:#AA312F;" d="M63.167,99.846c4.061,8.355-3.436,20.094-3.436,20.094c-5.544-12.182-13.639-23.01-8.017-27.07 c4.998-3.592,12.26-1.015,18.507,6.013C67.383,100.653,63.167,99.846,63.167,99.846z"/>
</g>
<g>
<path style="fill:#AA312F;" d="M69.153,145.996c0.312,3.67-4.763,6.429-8.772,8.043c1.77-5.726,3.15-10.828,3.644-14.706 C66.29,140.555,68.893,142.664,69.153,145.996z"/>
</g>
<g>
<path style="fill:#AA312F;" d="M75.687,172.597c-2.707,7.262-5.492,13.301-6.976,18.428c-3.019-3.54-8.199-10.698-5.206-14.836 C66.472,172.103,72.537,172.207,75.687,172.597z"/>
</g>
<g>
<path style="fill:#AA312F;" d="M74.489,227.441c-7.028-1.822-12.546-4.034-16.763-7.783c3.488-2.056,8.589-4.321,12.416-2.993 C73.604,217.888,74.463,223.016,74.489,227.441z"/>
</g>
</g>
<g>
<path style="fill:#FF993D;" d="M220.082,271.474c0,0,44.921,30.455,100.414,34.178c0,0,16.865,36.766,33.62,37.697 c16.754,0.931,20.477-45.553,0-71.876c-20.478-26.323,53.211-9.569,53.211-9.569l17.994,3.952c0,0,17.685,33.624,36.766,34.15 c19.081,0.526,5.874-53.492-22.194-60.922c-28.068-7.43-86.243-96.239-86.243-96.239s-73.49-91.509-180.996-40.781 C65.148,152.793,88.366,255.83,112.11,271.474c33.509,22.078,60.967,16.028,60.967,16.028L220.082,271.474z"/>
</g>
<g style="opacity:0.2;">
<path style="fill:#AA312F;" d="M462.09,300.01c-1.614-0.052-3.228-0.339-4.815-0.833c-17.153-5.154-31.964-33.317-31.964-33.317 l-17.986-3.956c0,0-73.689-16.763-53.204,9.579c20.485,26.315,16.763,72.803,0,71.866c-16.763-0.937-33.63-37.69-33.63-37.69 c-4.633-0.312-9.188-0.807-13.639-1.484c-5.987-0.859-11.817-2.004-17.413-3.358c-5.596-1.327-10.984-2.863-16.086-4.503 c-6.299-2.03-12.182-4.217-17.57-6.455c-0.469-0.182-0.937-0.39-1.38-0.572c-21.032-8.798-34.332-17.804-34.332-17.804 l-7.262,2.473l-39.721,13.535c0,0-27.461,6.065-60.986-16.008c-9.188-6.039-18.273-25.17-19.756-49.273 c-1.093-16.971,1.64-36.389,10.724-55.494c2.863-5.935,6.299-11.843,10.464-17.648c4.165-5.831,9.058-11.557,14.759-17.049 c5.518-5.388,11.817-10.568,18.949-15.461c7.523-5.18,15.956-10.047,25.404-14.498c37.404-17.648,70.669-18.09,98.13-11.141 c10.152,2.525,19.496,6.091,27.981,10.177c1.822,0.859,3.592,1.744,5.31,2.655c6.611,3.462,12.624,7.184,18.012,10.932 c20.251,14.056,31.573,28.164,31.573,28.164s58.175,88.811,86.235,96.23c4.321,1.145,8.303,3.384,11.843,6.403 c3.774,3.124,7.054,7.08,9.787,11.427C473.1,275.23,475.13,300.375,462.09,300.01z"/>
</g>
<g>
<path style="fill:#FF993D;" d="M271.437,246.582c1.122,1.741,2.369,3.405,3.718,5.031c0.084,0.097,0.169,0.194,0.253,0.291 c0.224,0.284,0.467,0.557,0.698,0.811c0.841,0.922,1.688,1.814,2.571,2.685c24.871,24.114,75.022,26.336,116.398,13.987 c30.084-8.97,43.693-20.163,50.389-28.107c3.882-5.124,3.829-7.35,4.716-9.741c2.355-6.347,6.572-18.14,5.081-33.177 c0,0-3.635-2.461-3.755-3.38l2.225-5.782l0,0c-0.385-1.673-0.825-3.408-1.396-5.141l-2.314-0.153l-3.664-0.962l1.288-10.725 c-0.284-0.631-0.573-1.222-0.914-1.856c-0.679-1.344-1.393-2.666-2.191-3.961l-5.12-0.824l-0.26-6.97 c-0.478-0.574-0.945-1.189-1.459-1.741c-7.219-8.259-17.119-14.868-31.069-18.14l0.111-0.465 c1.506-7.428-0.017-19.17-3.145-25.258c-0.882-1.715-1.864-2.947-2.944-3.572c-0.438-0.227-0.867-0.36-1.316-0.405 c-7.278-0.457-12.714,4.255-15.879,10.198c-2.153,4.08-3.406,8.896-5.996,12.749c-0.192,0.292-1.856,2.83-3.18,4.588l-0.325,0.398 c-0.423,0.038-0.847,0.075-1.27,0.112c0,0-0.429,1.734-2.846,2.08c-1.06,0.132-1.491,1.021-1.491,1.021 c0.081,0.002-1.585,0.783-1.585,0.783c-0.365,0.051-6.022-2.287-6.358-2.229c-0.832,0.14-1.664,0.28-2.467,0.427 c-0.43,0.067-0.879,0.144-1.298,0.229c-7.956,1.425-15.432,3.025-22.358,4.833c-0.242,0.05-0.491,0.129-0.722,0.197 c-0.947,0.235-1.882,0.489-2.8,0.732c-0.741,0.208-1.463,0.404-2.185,0.601l-0.018,0.011c-0.871,0.238-1.73,0.495-2.561,0.758 c-3.615,1.06-7.063,2.19-10.325,3.38c-0.451,0.154-0.873,0.314-1.307,0.457c-0.588,0.214-1.129,0.423-1.689,0.643 c-2.194,0.83-4.289,1.698-6.356,2.573c-0.011-0.018-0.011-0.018-0.011-0.018c-3.976-12.018-16.745-21.352-21.745-20.406 l-0.029-0.007c-5.497,1.027-6.025,13.387-8.203,23.189c-2.1,9.606-10.4,30.099-10.73,30.973c-1.998,4.332-3.251,8.825-3.704,13.57 c-0.045,0.45-0.084,0.871-0.129,1.32c-0.039,0.743-0.089,1.469-0.109,2.201c-0.038,0.421-0.048,0.848-0.069,1.258 c-0.199,5.681,0.084,11.139,0.869,16.362l0.008,0.094c0.115,0.872,0.266,1.722,0.428,2.59c0.328,1.783,0.729,3.522,1.194,5.245 C265.705,235.944,268.124,241.525,271.437,246.582z"/>
</g>
<g>
<path style="fill:#AA312F;" d="M298.063,157.447c4.551-2.538,8.077-3.828,8.258-3.907c-3.994-12.011-16.756-21.345-21.759-20.409 l-0.014,0.002c-0.374,2.943-0.797,6.464,2.214,13.567c0.301,0.697,0.543,1.386,0.754,2.065 C290.694,158.806,293.733,159.872,298.063,157.447z"/>
</g>
<g>
<path style="fill:#AA312F;" d="M401.388,137.637c2.002,0.206,3.887,0.425,5.345,0.621c1.52-7.427,0.003-19.171-3.14-25.263 c-0.872-1.7-1.867-2.946-2.948-3.552c0,0-2.408,1.585-3.469,8.05c-0.383,2.359-0.692,4.607-1.15,6.71 C394.938,129.179,394.862,136.935,401.388,137.637z"/>
</g>
<g style="opacity:0.48;">
<path style="fill:#E64949;" d="M340.188,236.48c3.683,2.202,5.179,8.002,2.033,11.741c-4.213,5.005-13.583,6.213-18.801,2.068 c-4.406-3.499-3.477-11.743,0.288-13.968c3.183-1.881,6.841-2.233,10.36-1.718C335.704,234.842,338.124,235.246,340.188,236.48z"/>
</g>
<g style="opacity:0.48;">
<path style="fill:#E64949;" d="M417.187,217.231c-2.262,3.667-0.924,9.566,3.595,11.488c6.05,2.574,14.938-0.629,17.671-6.745 c2.308-5.163-2.312-12.152-6.684-12.43c-3.696-0.235-7.111,1.122-10.003,3.196C420.42,213.705,418.454,215.176,417.187,217.231z"/>
</g>
<g>
<path style="fill:#AA312F;" d="M333.549,144.4c1.459,1.594,2.822,3.166,4.101,4.602c2.511,2.797,4.87,5.75,7.122,8.768 c1.701,2.256,4.386,4.323,7.388,4.136c3.779-0.207,6.618-3.223,7.875-6.614c1.581-4.215,0.777-8.727-0.709-12.862 c-0.401-1.124-0.878-2.202-1.394-3.277c-0.439,0.063-0.869,0.14-1.299,0.218c-7.952,1.426-15.42,3.032-22.37,4.839 C334.03,144.27,333.782,144.34,333.549,144.4z"/>
</g>
<g>
<path style="fill:#AA312F;" d="M441.173,189.011c4.07-0.139,7.907-2.27,11.153-4.949c-0.116-0.367-0.232-0.735-0.365-1.114 c-0.114-0.353-0.231-0.72-0.361-1.086c-1.141-3.25-2.441-6.481-3.952-9.644C441.405,180.592,433.542,189.258,441.173,189.011z"/>
</g>
<g>
<path style="fill:#AA312F;" d="M444.661,198.944c2.902,1.023,6.907,0.453,10.595-0.578c0,0-0.196-1.807-0.319-2.731 c-0.279-2.018-0.652-4.083-1.148-6.193c-0.025-0.085-0.033-0.157-0.057-0.242C446.455,192.862,439.544,197.139,444.661,198.944z"/>
</g>
<g>
<path style="fill:#AA312F;" d="M438.576,171.037c2.124-0.746,4.158-2.521,5.961-4.635c-0.059-0.125-0.131-0.248-0.205-0.372 c-1.543-2.558-3.255-5.053-5.172-7.422C435.965,165.732,433.653,172.769,438.576,171.037z"/>
</g>
<g>
<path style="fill:#AA312F;" d="M312.678,151.002c3.765,3.043,7.491,6.192,9.916,6.216c6.036,0.086,7.519-5.606,3.382-10.705 c-3.599,1.073-7.042,2.196-10.321,3.384c-0.448,0.151-0.871,0.307-1.294,0.464C313.784,150.571,313.231,150.786,312.678,151.002z"/>
</g>
<g>
<path style="fill:#AA312F;" d="M360.389,138.726c2.221,2.123,4.369,3.856,6.158,4.062c4.84,0.573,7.794-3.303,6.128-5.705 c-2.292,0.227-4.643,0.49-7.067,0.84c-1.061,0.134-2.142,0.301-3.238,0.477c-0.297,0.058-0.618,0.11-0.924,0.153 C361.086,138.609,360.734,138.68,360.389,138.726z"/>
</g>
<g style="opacity:0.48;">
<path style="fill:#AA312F;" d="M450.868,229.493c-0.789,1.981-1.574,3.957-2.452,5.886c-0.425,0.969-0.875,1.925-1.363,2.853 c-0.488,0.915-1.032,1.844-1.681,2.522l-0.19,0.199l0.059,0.298c0.172,0.871,0.305,1.796,0.3,2.672 c0.01,0.506-0.034,1.098-0.27,1.557c-0.563,1.097-1.236-0.303-1.45-0.833c-0.318-0.802-0.522-1.715-0.678-2.583l-0.471-2.618 l-0.783,2.527c-0.288,0.93-0.644,1.878-1.05,2.773c-0.41,0.892-0.872,1.775-1.457,2.469c-0.28,0.344-1.28,1.23-1.691,0.567 c-0.372-0.529-0.329-1.679-0.168-2.565l0.25-1.38l-0.998,0.934c-1.224,1.146-2.562,2.205-3.914,3.222 c-1.359,1.017-2.794,1.928-4.339,2.666c1.643-0.499,3.175-1.32,4.655-2.197c1.475-0.898,2.856-1.914,4.207-3.013l-0.748-0.445 c-0.133,0.542-0.212,1.06-0.235,1.619c-0.003,0.552,0.007,1.155,0.389,1.782c0.891,1.36,2.651,0.527,3.485-0.398 c0.761-0.843,1.261-1.784,1.707-2.735c0.444-0.957,0.818-1.915,1.143-2.928l-1.255-0.09c0.158,0.989,0.394,1.919,0.771,2.869 c0.431,1.089,1.452,2.561,2.816,1.865c0.678-0.326,0.976-0.995,1.109-1.515c0.134-0.544,0.148-1.058,0.143-1.563 c-0.037-1.009-0.182-1.958-0.437-2.921l-0.131,0.496c0.768-0.916,1.233-1.89,1.691-2.872c0.443-0.985,0.84-1.982,1.209-2.986 C449.737,233.606,450.373,231.569,450.868,229.493z"/>
</g>
<g>
<g>
<g>
<path style="fill:#FFFFFF;" d="M316.569,233.019c7.413,3.162,17.938,2.607,24.766-1.75c1.458-0.931,2.762-2.065,3.862-3.424 c4.756-5.93,6.305-14.986,4.855-22.389c-0.02-0.173-0.055-0.345-0.09-0.517c-1.601-7.443-7.226-13.348-14.448-15.624 c-8.454-2.66-20.086-1.814-25.945,5.577c-2.31,2.921-3.852,6.645-4.587,10.641l-0.014,0.002 C302.975,216.182,306.642,228.774,316.569,233.019z"/>
</g>
<g>
<path style="fill:#AA312F;" d="M310.139,228.311c-1.751-2.033-3.12-4.388-4.08-6.901c-0.955-2.515-1.553-5.167-1.831-7.855 c-0.268-2.691-0.197-5.424,0.234-8.113l0.058-0.363l0.391-0.056l0.014-0.002l-0.449,0.42c0.42-2.62,1.173-5.21,2.364-7.627 c1.168-2.406,2.819-4.689,4.997-6.398c4.341-3.472,9.982-4.767,15.362-4.697c2.712,0.054,5.413,0.451,8.037,1.188 c2.655,0.705,5.174,1.984,7.392,3.618c4.473,3.294,7.576,8.23,8.506,13.806l-0.012-0.082c0.751,4.665,0.439,9.426-0.874,13.894 c-0.663,2.23-1.582,4.388-2.792,6.376c-1.194,1.984-2.74,3.815-4.631,5.176c-1.884,1.366-4.002,2.332-6.183,3.017 c-2.18,0.697-4.438,1.116-6.708,1.285c-4.528,0.306-9.171-0.193-13.363-1.977C314.096,231.985,311.893,230.338,310.139,228.311z M329.914,234.792c4.477-0.467,8.955-1.92,12.437-4.709c3.454-2.766,5.46-7.101,6.472-11.322 c1.031-4.302,1.077-8.839,0.162-13.095c0,0-0.013-0.083-0.013-0.083c-0.784-4.804-3.982-9.176-7.854-12.01 c-3.965-2.903-8.976-4.187-13.984-4.385c-4.98-0.207-10.133,0.834-14.177,3.694c-2.019,1.418-3.616,3.383-4.843,5.6 c-1.234,2.207-2.086,4.642-2.622,7.147l-0.083,0.387c0,0-0.366,0.033-0.38,0.035l0.448-0.418 c-1.069,5.138-0.917,10.646,0.847,15.68c0.879,2.507,2.135,4.913,3.878,6.943c1.725,2.036,3.904,3.703,6.366,4.763 C320.777,234.732,325.421,235.267,329.914,234.792z"/>
</g>
</g>
<g>
<path style="fill:#AA312F;" d="M331.589,228.345c-5.868,1.571-12.802,0.07-16.977-4.506c-6.651-7.292-5.667-20.01,2.149-25.965 c4.196-3.198,10.289-4.494,15.393-3.048c13.639,3.865,14.928,23.827,3.958,31.459 C334.761,227.225,333.222,227.908,331.589,228.345z"/>
</g>
<g style="opacity:0.21;">
<path style="fill:#AA312F;" d="M304.983,205.535c24.828-15.523,42.867-1.885,45.07-0.077c-0.02-0.173-0.055-0.345-0.09-0.517 c-1.601-7.443-7.226-13.348-14.448-15.624c-8.454-2.66-20.086-1.814-25.945,5.577 C307.26,197.814,305.718,201.539,304.983,205.535z"/>
</g>
</g>
<g>
<g>
<g>
<path style="fill:#FFFFFF;" d="M402.344,208.514c6.089,5.049,15.146,4.302,21.942,1.331c0.931-0.422,1.818-0.914,2.637-1.486 c9.925-6.884,10.501-24.241,2.335-33.021c-0.822-0.915-1.764-1.729-2.789-2.44c-9-6.184-24.767-3.633-30.872,5.655 c-1.462,2.261-1.864,5.095-1.902,7.732c-0.032,1.802,0.117,3.745,0.439,5.725C395.107,198.232,397.813,204.761,402.344,208.514z "/>
</g>
<g>
<path style="fill:#AA312F;" d="M397.229,201.961c-1.303-2.471-2.257-5.123-2.908-7.848c-0.644-2.723-1.09-5.519-1.078-8.357 c0.008-2.788,0.433-5.864,2.244-8.28c3.35-4.839,8.894-7.75,14.58-8.844c5.7-1.064,11.969-0.384,17.097,2.977 c1.248,0.842,2.42,1.873,3.373,3.022c2.901,3.498,4.624,7.519,5.268,12.018c0.746,5.763-0.243,11.819-3.37,16.725 c-1.542,2.453-3.692,4.492-6.159,5.951c-1.252,0.707-2.593,1.204-3.935,1.62c-1.342,0.429-2.717,0.742-4.1,0.978 c-2.763,0.487-5.609,0.509-8.359,0.015c-2.753-0.484-5.387-1.641-7.538-3.423C400.185,206.739,398.518,204.43,397.229,201.961z M409.901,211.828c2.746,0.442,5.563,0.267,8.263-0.307c1.357-0.269,2.68-0.688,3.965-1.186 c1.289-0.494,2.543-1.055,3.676-1.797c2.233-1.533,4.096-3.548,5.374-5.911c2.612-4.717,3.105-10.396,2.137-15.579 c-0.929-4.976-3.437-10.139-7.797-13.011c-4.235-2.846-9.822-3.637-15.044-2.906c-5.218,0.722-10.474,3.004-13.796,7.213 c-1.728,1.987-2.319,4.73-2.509,7.443c-0.179,2.736,0.031,5.517,0.553,8.239c1.063,5.391,3.354,10.818,7.621,14.489 C404.519,210.268,407.158,211.382,409.901,211.828z"/>
</g>
</g>
<g>
<path style="fill:#AA312F;" d="M426.652,197.926c-0.285,0.556-2.266,7.351-12.53,8.406 c-10.263,1.055-14.221-11.064-14.464-15.474c-0.242-4.41,1.18-14.317,12.742-15.886 C423.963,173.403,431.549,188.366,426.652,197.926z"/>
</g>
<g style="opacity:0.21;">
<path style="fill:#AA312F;" d="M394.134,192.01c9.246-12.23,26.12-15.697,35.123-16.671c-0.822-0.915-1.764-1.729-2.789-2.44 c-9-6.184-24.767-3.633-30.872,5.655c-1.462,2.261-1.864,5.095-1.902,7.732C393.663,188.086,393.811,190.029,394.134,192.01z"/>
</g>
</g>
<g>
<path style="fill:#AA312F;" d="M261.891,200.862c26.32,10.811,32.108-6.604,21.777-8.035c-6.923-0.964-13.568-3.82-17.955-5.768 C263.634,191.461,262.355,196.062,261.891,200.862z"/>
</g>
<g>
<path style="fill:#AA312F;" d="M262.44,222.004l0.012,0.101c0.114,0.47,0.197,0.929,0.294,1.386 c9.409,2.314,20.599,2.824,28.691-2.002c3.053-1.821,5.411-5.333,3.865-8.418c-0.627-1.23-1.824-2.203-3.203-2.848 c-4.077-1.926-9.308-1.696-13.884-1.63c-5.206,0.066-11.587-1.401-16.629-2.936C261.384,211.32,261.657,216.794,262.44,222.004z"/>
</g>
<g>
<path style="fill:#AA312F;" d="M264.085,229.941c1.609,6.007,4.032,11.582,7.333,16.645c6.271,0.278,12.705-1.937,17.624-5.719 c2.19-1.691,4.005-4.202,3.055-7.079c-1.25-3.808-6.513-3.604-9.669-3.162C273.869,231.829,267.495,230.802,264.085,229.941z"/>
</g>
<g>
<g>
<path style="fill:#AA312F;" d="M457.686,222.065c-3.979-0.929-7.998-1.467-12.028-1.91c-4.033-0.403-8.077-0.709-12.162-0.621 c3.978,0.932,7.998,1.47,12.028,1.91C449.557,221.845,453.601,222.15,457.686,222.065z"/>
</g>
<g>
<path style="fill:#AA312F;" d="M458.444,211.981c-3.947,0.032-7.841,0.453-11.721,0.97c-3.875,0.555-7.736,1.208-11.543,2.254 c3.947-0.029,7.84-0.451,11.72-0.97C450.776,213.677,454.637,213.023,458.444,211.981z"/>
</g>
<g>
<path style="fill:#AA312F;" d="M453.966,200.251c-3.531,1.765-6.842,3.855-10.1,6.025c-3.236,2.202-6.416,4.487-9.376,7.1 c3.533-1.762,6.844-3.853,10.1-6.025C447.824,205.146,451.005,202.862,453.966,200.251z"/>
</g>
</g>
<g>
<path style="fill:#FFFFFF;" d="M294.226,154.557c0,0,2.781-0.515,3.456-1.253c0.69-0.739-3.642-0.336-3.642-0.336 c2.045-1.176,3.513-3.91,2.771-3.867c-0.758,0.03-3.053,2.202-3.053,2.202c2.168-4.134-0.371-9.696-3.231-8.981 c-1.224,0.304-2.246,3.22-3.011,6.444c3.178,10.042-2.109,18.318-3.124,19.404c4.107-4.712,9.342-8.296,13.672-10.72 C297.098,155.451,294.226,154.557,294.226,154.557z"/>
</g>
<g>
<path style="fill:#FFFFFF;" d="M401.388,137.637c-0.676-2.279-3.494-5.216-3.742-5.465c0.196,0.05,2.29,0.67,3.154,0.042 c0.904-0.662-2.573-1.589-2.573-1.589s2.581-0.096,2.694-0.886c0.129-0.776-2.448-0.27-2.448-0.27 c1.705-1.327,4.446-6.699,2.01-7.748c-1.588-0.678-3.384,1.127-4.455,2.483c-1.089,4.975-3.05,9.129-9.12,12.078 C386.906,136.282,394.862,136.935,401.388,137.637z"/>
</g>
<g>
<g>
<path style="fill:#AA312F;" d="M376.14,203.201c0,0,2.835-5.339,4.917-4.867c2.082,0.473-2.172,8.548-4.194,9.619 c-2.021,1.07-8.194-5.43-7.314-7.083C370.429,199.217,376.14,203.201,376.14,203.201z"/>
</g>
<g>
<path style="fill:#AA312F;" d="M375.117,234.944c0.307-2.297,0.519-4.6,0.77-6.902l0.579-6.918 c0.194-2.307,0.307-4.618,0.432-6.932c0.088-2.321,0.186-4.623,0.103-6.993l-1.227,0.32c1.951,4.02,3.806,8.104,5.631,12.192 c0.905,2.048,1.79,4.106,2.61,6.189c0.858,2.07,1.632,4.171,2.354,6.301c-0.443-2.206-1.102-4.363-1.765-6.515 c-0.699-2.141-1.49-4.248-2.288-6.353c-1.614-4.204-3.441-8.312-5.38-12.382l-1.355-2.845l0.128,3.165 c0.091,2.252,0.017,4.576-0.043,6.876l-0.202,6.925l-0.217,6.932C375.214,230.317,375.127,232.628,375.117,234.944z"/>
</g>
<g style="opacity:0.48;">
<path style="fill:#AA312F;" d="M386.525,206.764c3.752,0.128,7.631,1.673,10.369,4.73c3.967,4.431,5.774,10.614,2.849,15.921 c-1.815,3.293-4.849,5.486-8.019,7.078c-6.074,3.051-12.322,5.651-19.263,5.116c-2.518-0.194-5.075-0.763-7.357-2.106 c-3.497-2.058-6.153-5.959-6.962-10.225c-0.809-4.266,0.249-8.798,2.773-11.879c3.105-3.791,8.451-5.852,12.992-6.69 C377.954,207.962,382.4,206.624,386.525,206.764z"/>
</g>
</g>
<g>
<g>
<path style="fill:#AA312F;" d="M321.807,250.754c-3.995,0.858-7.86,2.086-11.692,3.406c-3.82,1.356-7.608,2.806-11.264,4.629 c3.996-0.855,7.861-2.084,11.692-3.406C314.362,254.023,318.149,252.574,321.807,250.754z"/>
</g>
<g>
<path style="fill:#AA312F;" d="M295.79,249.15c3.945,0.137,7.853-0.117,11.752-0.466c3.895-0.389,7.781-0.875,11.629-1.756 c-3.946-0.14-7.853,0.114-11.751,0.466C303.524,247.785,299.638,248.272,295.79,249.15z"/>
</g>
<g>
<path style="fill:#AA312F;" d="M297.445,236.704c3.483,1.858,7.104,3.348,10.759,4.749c3.669,1.364,7.373,2.636,11.216,3.536 c-3.482-1.861-7.103-3.351-10.759-4.749C304.991,238.879,301.288,237.609,297.445,236.704z"/>
</g>
</g>
<g style="opacity:0.48;">
<path style="fill:#AA312F;" d="M329.701,276.299c-1.908-0.625-3.821-1.221-5.708-1.891c-1.888-0.656-3.779-1.311-5.591-2.108 l-1.165-0.512l0.576,1.174c0.242,0.494,0.457,1.047,0.582,1.573c0.098,0.414,0.315,1.266-0.285,1.415 c-0.649,0.162-1.389-0.942-1.714-1.378c-0.682-0.916-1.296-1.926-1.845-2.965c-0.541-1.031-1.071-2.131-1.428-3.172l-0.704-2.055 l-0.542,2.096c-0.221,0.856-0.529,1.748-0.926,2.524c-0.266,0.519-0.666,1.331-1.338,1.402c-0.802,0.085-1.455-0.899-1.822-1.477 c-0.477-0.744-0.884-1.594-1.209-2.428l-0.142-0.366l-0.362,0.019c-2.119,0.11-4.319-0.053-6.446-0.433 c-1.073-0.166-2.134-0.412-3.179-0.721c-1.05-0.298-2.062-0.709-3.075-1.139c1.877,1.148,3.975,1.939,6.122,2.489 c2.166,0.512,4.361,0.802,6.628,0.809l-0.504-0.346c0.3,0.958,0.677,1.853,1.204,2.722c0.265,0.432,0.565,0.855,0.957,1.24 c0.97,0.952,2.363,1.119,3.358,0.13c0.406-0.413,0.681-0.862,0.925-1.314c0.474-0.912,0.799-1.825,1.064-2.805l-1.245,0.04 c0.423,1.233,0.969,2.291,1.546,3.382c0.589,1.074,1.214,2.133,2.003,3.117c0.832,1.039,2.575,2.671,3.803,1.162 c0.557-0.851,0.305-1.606,0.158-2.217c-0.19-0.633-0.446-1.192-0.763-1.76l-0.59,0.662c1.906,0.705,3.832,1.29,5.777,1.801 C325.774,275.458,327.725,275.936,329.701,276.299z"/>
</g>
<g>
<path style="fill:#AA312F;" d="M350.25,342.308c0.803-3.556,1.437-6.88,1.604-10.274c0.123-1.687,0.113-3.381,0.008-5.091 c-0.061-1.724-0.339-3.427-0.483-5.277c1.067,1.485,1.893,3.181,2.317,4.983c0.502,1.791,0.625,3.672,0.532,5.528 c-0.126,1.855-0.481,3.695-1.152,5.42C352.427,339.319,351.531,340.971,350.25,342.308z"/>
</g>
<g>
<path style="fill:#AA312F;" d="M362.149,337.155c-0.292-3.061-0.258-5.892-0.375-8.727c-0.034-1.415-0.15-2.808-0.243-4.225 c-0.136-1.414-0.336-2.809-0.536-4.356c2.189,2.248,3.023,5.478,3.156,8.496c0.022,1.529-0.079,3.054-0.407,4.539 C363.426,334.363,362.955,335.823,362.149,337.155z"/>
</g>
<g>
<path style="fill:#AA312F;" d="M462.088,300.007c-0.066-3.339-0.012-6.42-0.328-9.469c-0.126-1.524-0.428-3.001-0.764-4.495 c-0.363-1.497-0.93-2.916-1.532-4.507c2.818,1.921,4.33,5.414,4.662,8.761c0.137,1.695,0.078,3.393-0.262,5.037 C463.534,296.974,463.003,298.582,462.088,300.007z"/>
</g>
<g>
<path style="fill:#FFC48F;" d="M52.611,292.251c0,0-13.038,7.755-13.293,12.149c-0.256,4.394,16.145-4.911,16.145-4.911 L52.611,292.251z"/>
</g>
<g>
<path style="fill:#FFC48F;" d="M49.012,269.875c0,0-7.086-4.606-8.928-3.224c-1.842,1.382,7.523,8.597,7.523,8.597L49.012,269.875 z"/>
</g>
<g>
<path style="fill:#FFC48F;" d="M45.93,356.595c-3.069,0.553-5.799,3.561-7.516,5.985c-1.363,1.924-3.893,6.509,0.74,5.877 c4.297-0.586,8.695-2.658,10.688-6.51C51.422,358.891,49.373,355.974,45.93,356.595z"/>
</g>
<g>
<path style="fill:#FFC48F;" d="M105.813,365.254c-1.745-0.929-3.759-1.227-5.734-1.299c-5.422-0.198-10.802,1.193-15.823,3.249 c-1.689,0.691-3.613,1.852-3.587,3.677c0.022,1.534,1.445,2.636,2.768,3.415c6.602,3.888,14.969,5.825,21.948,2.661 C110.92,374.447,111.268,368.159,105.813,365.254z"/>
</g>
<g>
<path style="fill:#FFC48F;" d="M24.984,333.085c-1.582-0.219-3.147,0.409-2.597,2.269c0.724,2.447,3.153,3.929,5.438,5.065 c1.766,0.878,7.318,4.044,8.428,0.732C37.726,336.759,27.849,333.481,24.984,333.085z"/>
</g>
<g>
<path style="fill:#FFC48F;" d="M2.516,374.404c-1.633,1.813-2.69,3.892-2.492,5.55c0.293,2.449,5.561,1.093,6.889,0.546 c2.399-0.988,9.214-5.633,6.415-8.917C10.713,368.516,5.593,370.988,2.516,374.404z"/>
</g>
<g>
<path style="fill:#FFC48F;" d="M492.294,357.6c-1.654,0.815-3.4,1.893-3.884,3.532c-1.59,5.384,10.574,4.265,13.061,3.832 c3.235-0.563,6.598-1.494,9.126-3.704c2.58-2.256,1.489-5.256-1.559-6.477C503.655,352.626,497.14,355.214,492.294,357.6z"/>
</g>
<g>
<path style="fill:#FFC48F;" d="M466.681,370.4c-1.474,0.171-2.708,0.794-3.005,2.378c-0.348,1.856,1.086,3.361,2.287,4.564 c1.481,1.482,3.071,2.854,4.671,4.204c1.506,1.271,3.093,2.555,4.945,3.285c1.313,0.517,4.502,1.242,5.186-0.616 C483.811,375.939,473.938,369.557,466.681,370.4z"/>
</g>
<g style="opacity:0.2;">
<g>
<path style="fill:#AA312F;" d="M260.747,362.897c2.86,2.698,5.736,5.352,8.742,7.728c1.52,1.142,3.07,2.295,4.689,2.974 c0.807,0.404,1.586,0.494,2.203,0.488c0.44-0.091,0.718-0.382,0.918-1.138c0.368-1.483,0.057-3.415-0.408-5.171 c-0.459-1.799-1.192-3.544-2.028-5.234c-1.749-3.317-4.037-6.516-7.452-8.514c3.834,1.144,6.941,4.194,9.064,7.593 c1.1,1.707,1.938,3.573,2.58,5.527c0.561,1.98,1.042,4.032,0.545,6.398c-0.178,0.589-0.395,1.217-0.912,1.78 c-0.493,0.564-1.247,0.957-1.975,1.058c-1.33,0.071-2.528-0.225-3.458-0.738c-1.932-0.974-3.506-2.247-4.969-3.617 C265.358,369.306,262.908,366.19,260.747,362.897z"/>
</g>
</g>
<g style="opacity:0.2;">
<g>
<path style="fill:#AA312F;" d="M283.993,368.418c1.904-1.358,3.745-2.717,5.228-4.282c1.464-1.502,2.434-3.541,1.849-4.875 c-0.198-0.562-0.974-1.01-1.94-1.256c-0.952-0.283-2.036-0.385-3.138-0.451c-2.211-0.116-4.498-0.009-6.843,0.025 c2.131-1,4.409-1.643,6.797-1.882c1.193-0.154,2.427-0.106,3.714,0.117c1.217,0.25,2.802,0.845,3.576,2.461 c0.648,1.624,0.301,3.042-0.276,4.304c-0.638,1.214-1.517,2.173-2.494,2.926C288.517,367.013,286.3,367.954,283.993,368.418z"/>
</g>
</g>
<g style="opacity:0.2;">
<g>
<path style="fill:#AA312F;" d="M144.124,305.578c-2.148-1.511-4.235-3.026-6.374-4.326c-1.083-0.605-2.166-1.216-3.231-1.508 c-1.071-0.373-1.937-0.103-2.12,0.231c-0.265,0.192,0.116,1.467,0.742,2.413c0.592,1.03,1.383,2.004,2.158,3 c1.599,1.962,3.328,3.877,5.019,5.89c-2.322-1.25-4.442-2.812-6.38-4.626c-0.983-0.899-1.87-1.907-2.692-3.045 c-0.401-0.58-0.755-1.218-1.025-1.977c-0.242-0.726-0.476-1.776,0.107-2.825c0.274-0.509,0.702-0.855,1.131-1.074 c0.431-0.284,0.882-0.408,1.346-0.449c0.913-0.119,1.709,0.074,2.408,0.323c1.387,0.54,2.539,1.283,3.593,2.125 C140.89,301.423,142.674,303.375,144.124,305.578z"/>
</g>
</g>
<g style="opacity:0.2;">
<g>
<path style="fill:#AA312F;" d="M71.271,316.099c1.072-1.44,2.466-2.691,4.288-3.405c0.912-0.34,2.015-0.411,3.039-0.064 c1.424,0.482,2.317,1.864,1.264,3.223c-1.354,1.748-2.96,2.555-4.541,3.507c-1.592,0.913-3.229,1.646-4.917,2.37l-0.465-2.269 c2.1-0.041,4.115,0.152,6.175,0.523c2.707,0.487,5.701,1.571,6.935,4.237c0.81,1.75-0.309,4.109-2.197,4.542 c-2.185,0.501-4.204,0.126-6.126-0.456c1.971,0.05,4.072,0.075,5.698-0.682c1.473-0.686,1.485-2.623,0.273-3.606 c-1.394-1.13-3.204-1.463-4.923-1.766c-1.907-0.337-3.847-0.411-5.78-0.437c0,0-6.026-0.082-6.026-0.082l5.561-2.187 c1.605-0.631,3.209-1.381,4.77-2.123c1.507-0.759,3.169-1.626,4.121-2.625c0.229-0.276,0.205-0.356,0.227-0.321 c0.055-0.053-0.289-0.294-0.603-0.464c-0.634-0.329-1.403-0.383-2.201-0.254C74.219,314.024,72.677,315.018,71.271,316.099z"/>
</g>
</g>
<g style="opacity:0.2;">
<g>
<path style="fill:#AA312F;" d="M87.409,266.392c-2.439,1.299-4.899,2.46-7.295,3.674c-1.184,0.629-2.384,1.217-3.466,1.917 c-0.54,0.344-1.075,0.687-1.494,1.062c-0.473,0.335-0.613,0.877-0.549,0.56c-0.086-0.14-0.008-0.046,0.117,0.023 c0.04,0.122,0.337,0.116,0.501,0.205c0.229,0.042,0.516,0.033,0.773,0.064l0.885-0.068c1.228-0.133,2.493-0.51,3.771-0.857 c2.545-0.776,5.092-1.716,7.709-2.601c-2.144,1.754-4.513,3.191-7.062,4.342c-1.279,0.581-2.619,1.038-4.08,1.344 c-0.742,0.13-1.53,0.186-2.406,0.065c-0.466-0.15-0.912-0.154-1.38-0.525c-0.433-0.293-0.959-0.637-1.153-1.49 c-0.16-0.811,0.174-1.476,0.452-1.874c0.294-0.399,0.605-0.698,0.913-0.954c0.62-0.506,1.235-0.903,1.874-1.238 c1.277-0.663,2.549-1.226,3.865-1.674C81.994,267.441,84.664,266.755,87.409,266.392z"/>
</g>
</g>
<g style="opacity:0.2;">
<g>
<path style="fill:#AA312F;" d="M83.537,273.648c1.3,0.926,2.469,1.887,3.637,2.782c1.168,0.848,2.356,1.762,3.462,2.09 c0.531,0.193,0.998,0.207,1.306,0.079c0.069-0.067,0.145,0.019,0.175-0.122c0.063-0.101,0.068-0.38,0.052-0.67 c-0.188-1.245-0.846-2.688-1.399-4.16c1.331,0.898,2.488,1.994,3.193,3.676c0.152,0.445,0.311,0.941,0.195,1.585 c-0.045,0.646-0.571,1.314-1.12,1.66c-1.06,0.611-2.239,0.486-3.131,0.215c-1.805-0.648-2.98-1.811-4.02-3.025 C84.873,276.527,84.051,275.168,83.537,273.648z"/>
</g>
</g>
<g style="opacity:0.2;">
<g>
<path style="fill:#AA312F;" d="M386.9,385.653c-0.798-4.228-1.753-8.434-3.188-12.451c-0.667-1.869-1.555-3.771-2.572-5.519 c-0.886-1.524-2.125-3.313-4.063-3.448c-4.862-0.339-3.93,6.49-3.158,9.274c1.111,4.004,2.916,7.925,4.942,11.586l1.606,2.902 l-3.09-1.335c-1.054-0.455-2.433-0.756-3.708-0.821c-2.546-0.129-5.295,0.473-7.537,1.786c-1.171,0.623-2.236,1.447-3.269,2.311 l-3.655,3.059l1.874-4.369c1.6-3.731,2.969-7.966,2.577-11.829c-0.214-1.276-0.682-2.605-1.792-3.381 c-1.854-1.296-4.045,2.159-4.876,3.406c-2.322,3.484-4.085,7.404-5.84,11.288c-1.741,3.904-3.292,7.897-4.815,11.907 c1.087-4.153,2.428-8.234,3.876-12.286c1.473-4.044,3.152-8.021,5.398-11.799c1.133-1.905,2.843-4.344,5.179-4.767 c2.754-0.311,4.609,3.04,4.921,5.33c0.321,2.355-0.011,4.609-0.494,6.771c-0.505,2.173-1.197,4.23-2.081,6.302l-1.782-1.31 c1.131-0.98,2.314-1.918,3.646-2.656c2.725-1.51,5.707-2.294,8.829-2.074c1.558,0.125,3.007,0.417,4.556,1.114l-1.484,1.567 c-2.076-3.891-3.848-7.87-4.985-12.18c-0.505-2.157-0.957-4.42-0.493-6.818c0.505-2.608,2.614-4.592,5.325-4.62 c4.734-0.013,6.937,6.685,7.927,10.302C385.824,377.088,386.554,381.356,386.9,385.653z"/>
</g>
</g>
<g style="opacity:0.2;">
<g>
<path style="fill:#AA312F;" d="M430.764,302.378c-2.952,3.829-6.388,7.851-8.326,12.318c-0.967,2.045-1.295,5.914,2.178,4.316 c1.314-0.594,2.558-1.681,3.761-2.765c2.365-2.257,4.601-4.773,6.804-7.347c-1.431,3.081-3.191,6.019-5.467,8.637 c-1.136,1.316-2.406,2.547-4.095,3.494c-2.603,1.46-6.076,0.277-6.306-2.967c-0.104-1.479,0.413-3.046,1.099-4.34 c0.842-1.589,1.829-3.02,2.938-4.338C425.53,306.728,428.044,304.413,430.764,302.378z"/>
</g>
</g>
<g style="opacity:0.2;">
<g>
<path style="fill:#AA312F;" d="M438.025,337.155c-1.05-3.968-1.85-8.241-0.328-12.554c0.896-2.541,3.696-4.784,6.483-3.787 c2.397,0.858,2.722,3.792,2.572,5.982c-0.297,4.338-1.453,8.342-2.785,12.277c-1.337,3.928-2.982,7.736-4.9,11.408l3.12-11.937 c0.953-3.953,1.97-7.961,2.189-11.852c0.072-1.285,0.42-3.716-1.369-4.006c-3.749-0.607-4.705,5.932-4.94,8.332 C437.868,333.036,437.933,335.087,438.025,337.155z"/>
</g>
</g>
<g>
<path style="fill:#AA312F;" d="M461.517,256.906c-3.175,1.614-6.663,2.733-9.318,2.811c-4.555,0.156-7.6-3.358-6.221-7.835 c0.859-2.837,3.254-4.738,5.753-6.403C455.504,248.602,458.784,252.559,461.517,256.906z"/>
</g>
<g>
<path style="fill:#AA312F;" d="M273.352,296.314c-6.299-2.03-12.182-4.217-17.57-6.455c0.468-6.195,1.353-12.312,4.243-17.96 c0.078-0.156,0.156-0.312,0.234-0.443c1.718-3.228,5.336-7.002,9.084-4.321c1.145,0.833,1.692,2.264,2.108,3.618 c1.328,4.529,1.432,9.058,1.718,13.717C273.404,288.427,273.508,292.383,273.352,296.314z"/>
</g>
<g>
<path style="fill:#AA312F;" d="M306.852,304.175c-5.987-0.859-11.817-2.004-17.413-3.358c0.312-2.16,0.702-4.243,1.067-6.195 c0.963-5.232,2.811-11.01,7.575-13.405c2.811-1.38,6.95-0.833,8.147,2.082c0.39,0.963,0.39,2.03,0.39,3.071 c-0.078,5.44-0.703,10.932,0,16.32C306.669,303.186,306.748,303.68,306.852,304.175z"/>
</g>
<g>
<path style="fill:#AA312F;" d="M322.079,114.682c-4.373,1.249-8.772,2.499-12.728,4.711c-2.941,1.64-5.57,3.748-8.538,5.336 c-2.967,1.562-6.429,2.577-9.683,1.718c-2.343-0.625-4.529-2.421-4.842-4.789c-0.39-2.967,2.056-5.492,4.347-7.392 c3.8-3.15,8.485-7.236,13.431-10.516C310.678,107.212,316.691,110.934,322.079,114.682z"/>
</g>
<g>
<path style="fill:#AA312F;" d="M147.241,116.556c-1.171,5.154-4.425,9.787-5.961,14.915c-1.978,6.585-0.989,13.639-1.666,20.485 c-0.182,1.744-0.494,3.566-1.51,4.998c-0.989,1.458-2.889,2.394-4.555,1.822c-0.911-0.312-1.614-1.015-2.212-1.77 c-2.993-3.827-3.592-8.954-3.67-13.795c-0.052-3.748,0.156-7.47,0.625-11.193C133.81,126.63,140.109,121.45,147.241,116.556z"/>
</g>
<g>
<path style="fill:#AA312F;" d="M118.088,174.784c-0.364,3.852-3.332,6.872-7.132,4.503c-3.097-1.926-5.831-6.117-7.002-9.527 c-0.338-1.015-0.625-2.03-0.885-3.045c2.863-5.935,6.299-11.843,10.464-17.648c0.26,4.008,1.145,8.017,1.952,11.921 C116.422,165.387,118.505,170.229,118.088,174.784z"/>
</g>
<g style="opacity:0.2;">
<path style="fill:#AA312F;" d="M298.756,101.095c-12.598,10.568-33.343,32.927-38.002,68.431 c-1.432,10.932-2.681,28.866-3.748,50.418c-1.015,20.797-1.9,44.926-2.603,69.342c-1.562,52.605-2.421,106.563-2.707,131.135 c-8.485-1.562-17.153-3.462-25.873-5.622l-18.741-71.424l5.726-69.42l4.555-54.922l8.46-102.477l44.952-25.638 C280.927,93.443,290.271,97.009,298.756,101.095z"/>
</g>
<g>
<path style="fill:#AA312F;" d="M237.933,417.649c0.857,0.119,1.389-100.346,4.095-149.517 c2.413-43.829-0.902-144.281,46.469-171.517c0,0-50.514-23.205-106.252,1.261c-55.738,24.466-38.465,289.765-38.465,289.765 S199.766,412.331,237.933,417.649z"/>
</g>
</g>
</svg>