<?xml version="1.0" encoding="UTF-8"?>
<!-- Generator: Adobe Illustrator 25.2.3, SVG Export Plug-In . SVG Version: 6.00 Build 0)  -->
<svg xmlns="http://www.w3.org/2000/svg" xmlns:xlink="http://www.w3.org/1999/xlink" version="1.1" id="Capa_1" x="0px" y="0px" viewBox="0 0 512 512" style="enable-background:new 0 0 512 512;" xml:space="preserve" width="512" height="512">
<g>
	<g>
		<path style="fill:#FF983D;" d="M448.906,265.611c-0.531,6.652-1.51,13.142-2.918,19.386c-1.918,8.509-4.632,16.631-8.02,24.223    c-3.204,7.203-7.04,13.937-11.428,20.141c-21.284,30.222-55.506,47.894-94.094,43.629c0,0-71.953-17.957-92.543-53.893    c-20.59-35.936-56.526-113.032-56.526-113.032l60.281-90.013l82.197-20.202c0,0,10.224-0.612,25.141,4.224    c6.795,2.184,14.57,5.53,22.814,10.591c6.04,3.714,12.326,8.346,18.652,14.121c6.306,5.775,12.652,12.693,18.835,20.978    c5.122,6.897,10.162,14.774,14.937,23.712c3.408,6.367,6.694,13.285,9.816,20.815c0.163,0.347,0.306,0.714,0.449,1.061    c3.53,8.612,6.285,17.162,8.326,25.569c1.408,5.795,2.49,11.53,3.224,17.182C449.477,244.939,449.742,255.489,448.906,265.611z"/>
	</g>
	<g>
		<path style="fill:#FFC38E;" d="M262.472,212.983c-2.143-0.367-4.448-1-6.856-1.796c-0.041-5.734,0-9.162,0-9.162    s10.55-4.551,25.263-5.347c-2,7.408-6.081,16.407-14.223,16.652C265.349,213.37,263.941,213.248,262.472,212.983z"/>
	</g>
	<g>
		<path style="fill:#FFC38E;" d="M350.648,243.225c-12.346,0.531-29.936,5.183-46.404,23.59    c-14.427,16.141-17.856,41.486-17.57,63.219c-5.061,1.286-9.326,1.286-12.285-0.183c-10.489-5.245-15.162-39.221-17.203-70.811    c3.061,1.204,6.224,2.163,9.469,2.857c4.04,0.877,7.857,1.245,11.469,1.184c27.61-0.408,43.996-24.59,51.342-50.771    c5.163,4.347,10.101,9.836,14.672,16.672C347.261,233.654,349.383,238.429,350.648,243.225z"/>
	</g>
	<g>
		<g>
			<g>
				<path style="fill:#FF983D;" d="M208.529,319.575c0,0-45.457,10.585-28.691,76.396c0,0-12.688-16.568-32.938-12.886      c-20.249,3.682-17.629,17.843-9.204,19.789c11.597,2.68,26.494-4.142,39.249,9.665c12.755,13.806,23.095,6.443,24.598,0      c0,0,18.81,7.363,35.469-5.523c16.659-12.886,9.295-72.254,9.295-72.254L208.529,319.575z"/>
			</g>
			<g style="opacity:0.2;">
				<path style="fill:#A9312F;" d="M208.529,319.575c0,0-45.457,10.585-28.691,76.396c0,0-12.688-16.568-32.938-12.886      c-20.249,3.682-17.629,17.843-9.204,19.789c11.597,2.68,26.494-4.142,39.249,9.665c12.755,13.806,23.095,6.443,24.598,0      c0,0,18.81,7.363,35.469-5.523c16.659-12.886,9.295-72.254,9.295-72.254L208.529,319.575z"/>
			</g>
		</g>
		<g>
			<path style="fill:#A9312F;" d="M144.565,403.576c-0.447-1.647-0.337-3.452,0.274-5.132c0.6-1.69,1.83-3.224,3.419-4.209     c1.624-0.926,3.442-1.309,5.189-1.286c0.869,0.027,1.726,0.184,2.56,0.327c0.82,0.26,1.628,0.514,2.396,0.864     c-0.856,0.139-1.672,0.181-2.477,0.23l-2.35,0.318c-1.512,0.316-2.933,0.727-4.157,1.456     C146.958,397.597,145.492,400.343,144.565,403.576z"/>
		</g>
	</g>
	<g>
		<path style="fill:#FB5555;" d="M256.652,444.975c-9.862,16.582-21.204,32.727-34.74,46.537c-2.181,2.225-4.436,4.42-6.929,6.297    c-17.273,13.003-34.776,18.307-45.518,10.647c-10.743-7.679,49.1-57.908,45.174-109.287    c-2.202-28.629-10.341-56.721-23.841-82.075c-20.26-38.07-54.021-66.047-75.411-103.197c-5.171-8.981-9.69-18.441-12.945-28.207    c-3.255-9.747-5.285-19.801-5.477-30.008c-0.134-6.664,0.517-13.385,2.087-20.145c7.698-32.88,24.224-53.466,53.753-60.589    c29.529-7.143,60.494,14.286,89.563,89.525c0,0,9.46,19.016,20.107,48.506c-14.171-2.432-35.006-16.45-45.193-6.281    c-4.558,4.519-2.949,13.175,2.796,22.367c8.541,13.615,26.216,28.437,46.572,32.842c4.04,0.862,7.87,1.245,11.47,1.168    c4.634,17.733,8.637,36.863,11.183,56.491C295.162,365.044,276.97,410.908,256.652,444.975z"/>
	</g>
	<g style="opacity:0.21;">
		<path style="fill:#A9312F;" d="M159.2,118.321c0,0,14.056,27.71,14.783,29.165c-1.168-0.938-27.269-9.23-27.269-9.23v38.682    c-18.077-3.064-27.384-17.982-27.384-17.982c-1.513,9.556-10.992,20.643-16.89,26.733c-3.255-9.747-5.285-19.801-5.477-30.008    l20.873-21.926l18.039-17.694L159.2,118.321z"/>
	</g>
	<g>
		<path style="fill:#67DCBC;" d="M123.601,88.04c0,0-40.327,24.832-40.032,51.946s6.241,39.887,6.241,39.887    s21.909-12.482,30.339-31.014C128.58,130.326,123.601,88.04,123.601,88.04z"/>
	</g>
	<g>
		<path style="fill:#67DCBC;" d="M120.77,90.585c0,0-18.704,35.975-2.538,57.744c16.166,21.769,28.48,28.614,28.48,28.614    s10.4-22.971,6.336-42.921C148.985,114.073,120.77,90.585,120.77,90.585z"/>
	</g>
	<g>
		<path style="fill:#67DCBC;" d="M126.016,89.025c0,0,10.946,39.041,37.628,43.875c26.681,4.834,40.347,1.41,40.347,1.41    s-8.116-23.873-24.721-35.654C162.664,86.875,126.016,89.025,126.016,89.025z"/>
	</g>
	<g>
		<path style="fill:#67DCBC;" d="M117.839,93.757c0,0,34.901,20.639,57.52,5.685s31.982-25.235,31.982-25.235    s-24.226-13.279-44.367-10.31C142.832,66.866,117.839,93.757,117.839,93.757z"/>
	</g>
	<g>
		<path style="fill:#67DCBC;" d="M132.812,88.792l-10.494,8.809c-4.826-43.757-59.23-57.085-59.23-57.085    c-3.792-14.42,16.775-18.192,16.775-18.192C116.745,29.907,132.812,88.792,132.812,88.792z"/>
	</g>
	<g>
		<path style="fill:#FF983D;" d="M316.965,68.678c0,0,0.064,0.077,0.064,0.077c1.505,2.009,2.965,4.032,4.245,6.194    c3.034,4.984,5.259,10.248,6.562,15.782c1.53,6.594,1.73,13.562,0.404,20.856c0.231,0.122,0.448,0.228,0.664,0.361    c-5.156,12.887-17.426,39.701-48.62,62.671c-53.386,39.267-76.812,28.193-76.812,28.193c-0.3,0.015-0.588,0.044-0.876,0.074    c-0.023-0.059-0.017-0.116-0.025-0.188c-0.331-0.116-0.662-0.233-1.02-0.352c-5.959-2.198-16.543-7.308-25.798-18.074    c-0.565-0.651-1.115-1.315-1.65-1.992c-1.197-1.508-2.357-3.098-3.451-4.796c-0.049-0.09-0.1-0.152-0.122-0.211    c-0.912-1.353-1.789-2.788-2.587-4.287c-0.184-0.316-0.352-0.645-0.521-0.974c-0.171-0.301-0.327-0.615-0.51-0.931    c-1.465-2.9-2.808-5.874-3.985-8.961c-0.227-0.619-0.443-1.195-0.654-1.827c-0.458-1.339-0.9-2.691-1.268-4.078    c-0.049-0.09-0.079-0.221-0.11-0.352c-0.754-2.734-1.349-5.495-1.695-8.333c-0.09-0.706-0.18-1.412-0.24-2.144    c-0.459-5.112-0.202-10.428,1.027-15.923c1.213-5.482,3.409-11.128,6.818-16.945c-0.123-0.054-0.256-0.152-0.364-0.219    c-6.036-3.8-13.041-12.446-15.117-18.537c-0.596-1.693-0.799-3.165-0.521-4.307c0.127-0.444,0.318-0.81,0.591-1.141    c4.38-5.241,11.133-5.888,17.209-4.178c4.176,1.175,8.261,3.468,12.548,4.212c0.336,0.06,3.151,0.567,5.194,0.801    c0,0,0.48,0.045,0.495,0.032c1.907-1.657,3.917-3.348,6.068-5.026c0.772-0.64,1.585-1.261,2.414-1.895    c0.229-0.163,0.473-0.34,0.705-0.532c7.446-5.594,14.616-10.516,21.495-14.782c1.587-0.976,3.186-1.936,4.755-2.871    c3.814-2.247,7.535-4.261,11.193-6.068c0.375-0.207,0.764-0.398,1.136-0.577c2.522-1.23,4.977-2.352,7.383-3.407    c-5.577-10.506-3.609-25.23,0.27-28.026c4.304-3.07,13.011,4.583,21.08,9.485c7.933,4.832,27.427,12.56,28.001,12.813    c4.249,1.453,8.14,3.542,11.612,6.289c1.178,0.932,2.387,1.859,3.456,2.916C310.393,61.026,313.929,64.761,316.965,68.678z"/>
	</g>
	<g>
		<path style="fill:#A9312F;" d="M254.025,46.384l-4.023,4.579c-4.678,1.443-7.842,3-8.014,3.071    c-6.74-9.799-3.617-25.234,0.266-28.023l0.01-0.009c2.242,1.656,4.907,3.654,7.776,10.31c0.278,0.657,0.589,1.269,0.913,1.852    L254.025,46.384z"/>
	</g>
	<g>
		<path style="fill:#A9312F;" d="M170.395,101.105l-0.917,7.16c-1.159,1.493-1.86,3.137-2.674,4.255    c-7.346-2.156-13.394-12.666-15.491-18.754c-0.588-1.695-0.788-3.18-0.498-4.307c0,0,2.639-0.606,7.718,2.87    c1.85,1.271,3.577,2.52,5.302,3.575L170.395,101.105z"/>
	</g>
	<g style="opacity:0.48;">
		<path style="fill:#E54949;" d="M285.489,145.397c-1.259,3.492,0.883,7.277,4.999,7.005c5.511-0.364,12.397-5.962,13.626-11.403    c1.038-4.594-4.039-7.958-7.748-6.549c-3.135,1.191-5.759,3.434-7.822,6.004C287.585,141.649,286.194,143.44,285.489,145.397z"/>
	</g>
	<g style="opacity:0.48;">
		<path style="fill:#E54949;" d="M224.602,183.717c3.699,0.309,6.249,3.831,4.29,7.461c-2.624,4.859-10.58,8.793-16.039,7.646    c-4.609-0.968-5.556-6.984-2.731-9.771c2.387-2.355,5.519-3.808,8.714-4.614C220.321,184.065,222.528,183.545,224.602,183.717z"/>
	</g>
	<g>
		<path style="fill:#A9312F;" d="M217.519,66.951c-1.728,7.126-0.849,15.536-0.328,21.971c0.28,3.53,0.745,7.048,1.329,10.539    c0.433,2.623,0.098,5.774-1.976,7.705c-2.606,2.424-6.484,2.39-9.6,1.048c-3.9-1.667-6.437-5.138-8.273-8.833    c-2.594-5.232-3.633-11.221-3.351-17.115c0.23-0.173,0.47-0.354,0.71-0.535C203.466,76.141,210.635,71.215,217.519,66.951z"/>
	</g>
	<g>
		<path style="fill:#A9312F;" d="M178.537,168.628c-2.736,2.674-6.674,3.896-10.6,4.361c-0.174-0.317-0.348-0.635-0.52-0.971    c-0.166-0.307-0.339-0.624-0.503-0.95c-1.466-2.884-2.817-5.865-3.983-8.944C172.669,163.321,183.657,163.607,178.537,168.628z"/>
	</g>
	<g>
		<path style="fill:#A9312F;" d="M183.017,177.445c-1.189,2.635-4.176,4.984-7.27,6.819c-0.551-0.644-1.1-1.307-1.647-1.989    c-1.189-1.499-2.349-3.094-3.46-4.799c-0.042-0.072-0.086-0.125-0.127-0.196C177.722,174.715,185.113,172.799,183.017,177.445z"/>
	</g>
	<g>
		<path style="fill:#A9312F;" d="M168.017,155.198c-1.886,0.958-4.411,1.187-7.017,1.039c-0.047-0.121-0.083-0.25-0.12-0.38    c-0.735-2.709-1.318-5.491-1.682-8.33C166.11,149.981,172.389,152.978,168.017,155.198z"/>
	</g>
	<g>
		<path style="fill:#A9312F;" d="M233.461,58.007c-0.312,2.086-0.668,4.421-0.888,6.147c-0.689,5.467-0.599,12.366-2.585,14.489    c-4.145,4.444-9.404,1.029-9.575-6.034c-0.076-3.22,0.836-6.211,1.849-8.523l0.01-0.008    C226.094,61.837,229.816,59.819,233.461,58.007z"/>
	</g>
	<g>
		<path style="fill:#A9312F;" d="M192.902,84.145c-0.295,5,0.732,12.346-1.253,14.984c-2.994,3.97-8.096,3.014-7.911-0.297    c0.176-3.215,0.927-6.144,1.745-8.454C187.784,88.313,190.25,86.235,192.902,84.145z"/>
	</g>
	<g style="opacity:0.48;">
		<path style="fill:#A9312F;" d="M195.137,199.524c1.834,0.801,3.668,1.593,5.532,2.295c0.927,0.361,1.862,0.697,2.804,0.99    c0.936,0.284,1.913,0.54,2.812,0.561l0.223,0.006l0.134,0.201c0.469,0.699,0.999,1.401,1.591,1.985    c0.563,0.574,1.353,1.089,1.795,0.892c0.213-0.089,0.292-0.193,0.279-0.551c-0.026-0.335-0.16-0.725-0.32-1.098    c-0.33-0.752-0.804-1.495-1.285-2.178l-1.235-1.753l1.894,0.984c0.817,0.424,1.687,0.813,2.557,1.134    c0.871,0.317,1.771,0.593,2.636,0.66c0.429,0.04,0.857,0.002,1.135-0.161c0.308-0.178,0.503-0.416,0.437-0.687    c-0.129-0.648-0.934-1.361-1.642-1.847l-0.924-0.633l1.093-0.047c1.578-0.068,3.169-0.266,4.742-0.507    c1.576-0.248,3.133-0.612,4.641-1.171c-1.427,0.75-2.986,1.222-4.55,1.617c-1.574,0.379-3.166,0.626-4.788,0.793l0.169-0.68    c0.443,0.268,0.838,0.557,1.221,0.909c0.365,0.359,0.75,0.762,0.907,1.403c0.066,0.318,0.019,0.716-0.17,0.998    c-0.086,0.152-0.187,0.28-0.303,0.374c-0.108,0.11-0.226,0.207-0.371,0.276c-0.555,0.322-1.133,0.346-1.648,0.322    c-1.05-0.051-2.004-0.338-2.929-0.668c-0.928-0.334-1.813-0.719-2.698-1.169l0.658-0.769c0.55,0.753,1.016,1.523,1.397,2.393    c0.179,0.441,0.349,0.895,0.39,1.446c-0.004,0.147-0.003,0.29-0.02,0.439c-0.046,0.159-0.072,0.32-0.159,0.47    c-0.175,0.317-0.471,0.543-0.777,0.644c-0.631,0.226-1.249-0.003-1.676-0.252c-0.443-0.263-0.791-0.589-1.123-0.923    c-0.644-0.683-1.181-1.406-1.655-2.204l0.358,0.206c-1.102-0.087-2.061-0.414-3.018-0.753c-0.95-0.351-1.878-0.74-2.793-1.153    C198.644,201.458,196.86,200.546,195.137,199.524z"/>
	</g>
	<g>
		<g>
			<g>
				<path style="fill:#FFFFFF;" d="M296.271,130.687c-2.665,7.087-9.874,13.872-17.264,15.682c-1.579,0.386-3.195,0.535-4.832,0.4      c-7.114-0.62-14.269-5.447-18.354-11.236c-0.105-0.126-0.199-0.261-0.293-0.396c-4.015-5.919-4.373-13.571-1.23-19.953      c3.681-7.467,11.806-14.817,20.629-13.997c3.482,0.327,7.013,1.698,10.203,3.793l0.01-0.009      C293.663,110.527,299.833,121.191,296.271,130.687z"/>
			</g>
			<g>
				<path style="fill:#A9312F;" d="M296.271,130.687c-1.514,4.002-4.187,7.481-7.341,10.347c-1.591,1.428-3.342,2.684-5.231,3.706      c-1.882,1.028-3.913,1.83-6.057,2.214c-2.146,0.392-4.381,0.246-6.495-0.237c-2.126-0.474-4.178-1.255-6.112-2.256      c-3.864-2.015-7.277-4.896-9.93-8.424l0.041,0.054c-3.139-4.212-4.461-9.492-3.796-14.623c0.329-2.546,1.092-5.064,2.325-7.31      c1.194-2.247,2.668-4.329,4.381-6.197c3.419-3.686,7.926-6.664,13.058-7.372c2.553-0.375,5.156-0.027,7.542,0.73      c2.406,0.749,4.65,1.907,6.702,3.311l-0.494,0.027l0.01-0.008l0.236-0.186l0.247,0.167c2.106,1.442,4.02,3.149,5.677,5.069      c1.65,1.925,3.068,4.045,4.159,6.323c1.086,2.279,1.805,4.734,2.049,7.242C297.483,125.771,297.173,128.336,296.271,130.687z       M296.271,130.687c0.88-2.359,1.165-4.922,0.904-7.416c-0.247-2.502-1.058-4.92-2.186-7.149      c-1.128-2.235-2.608-4.281-4.323-6.09c-1.711-1.813-3.649-3.406-5.753-4.714l0.493-0.028l-0.01,0.008l-0.216,0.187l-0.267-0.168      c-2.049-1.273-4.27-2.279-6.578-2.886c-2.309-0.617-4.698-0.82-6.992-0.375c-2.302,0.415-4.482,1.377-6.467,2.63      c-1.99,1.255-3.787,2.831-5.348,4.609c-3.135,3.545-5.544,7.809-6.146,12.433c-0.152,1.154-0.192,2.32-0.149,3.483      c0.084,1.159,0.212,2.319,0.483,3.453c0.273,1.13,0.614,2.251,1.104,3.31c0.214,0.544,0.514,1.046,0.773,1.569      c0.3,0.475,0.609,1.044,0.902,1.429l0.041,0.054c2.324,3.395,5.458,6.306,9.069,8.393c1.807,1.039,3.739,1.874,5.755,2.418      c2.016,0.553,4.114,0.785,6.19,0.501c4.164-0.574,8.051-2.687,11.272-5.429C292.054,138.158,294.707,134.659,296.271,130.687z"/>
			</g>
		</g>
		<g>
			<path style="fill:#A9312F;" d="M283.348,137.853c4.876-2.965,8.359-8.648,7.961-14.453c-0.634-9.25-9.909-16.837-19.027-15.396     c-4.895,0.774-9.73,4.07-12.061,8.474c-6.229,11.77,6.489,25.604,18.793,23.108C280.529,139.279,281.991,138.678,283.348,137.853     z"/>
		</g>
		<g style="opacity:0.21;">
			<path style="fill:#A9312F;" d="M285.13,104.979c-26.658,6.782-29.106,27.884-29.309,30.554c-0.105-0.126-0.199-0.261-0.293-0.396     c-4.015-5.919-4.373-13.571-1.23-19.953c3.681-7.467,11.806-14.817,20.629-13.997     C278.409,101.514,281.939,102.884,285.13,104.979z"/>
		</g>
	</g>
	<g>
		<g>
			<g>
				<path style="fill:#FFFFFF;" d="M223.703,166.123c1.239,6.444-2.924,12.73-7.799,16.484c-0.679,0.509-1.39,0.956-2.133,1.324      c-8.97,4.465-21.819-2.051-24.939-11.496c-0.337-0.964-0.552-1.973-0.659-3.003c-0.9-9.013,7.254-19.457,16.445-20.184      c2.227-0.16,4.449,0.68,6.381,1.706c1.322,0.697,2.676,1.581,3.987,2.607C219.119,156.754,222.785,161.33,223.703,166.123z"/>
			</g>
			<g>
				<path style="fill:#A9312F;" d="M223.703,166.123c0.196,1.138,0.283,2.299,0.185,3.454c-0.116,1.15-0.331,2.296-0.714,3.391      c-0.742,2.195-1.902,4.249-3.363,6.057c-0.725,0.909-1.506,1.778-2.356,2.577c-0.841,0.804-1.739,1.574-2.752,2.195      c-2.043,1.196-4.375,1.931-6.762,2.061c-4.792,0.291-9.555-1.424-13.411-4.264c-1.918-1.448-3.641-3.199-4.963-5.263      l-0.891-1.609c-0.261-0.554-0.473-1.132-0.71-1.698c-0.45-1.142-0.725-2.389-0.837-3.618c-0.393-5.01,1.592-9.807,4.612-13.511      c1.518-1.866,3.352-3.468,5.4-4.718c2.049-1.242,4.352-2.111,6.748-2.354c1.189-0.196,2.461-0.036,3.604,0.276      c1.158,0.319,2.245,0.805,3.276,1.363c2.068,1.113,3.928,2.542,5.654,4.092c1.723,1.556,3.276,3.303,4.554,5.235      C222.258,161.712,223.273,163.845,223.703,166.123z M223.703,166.123c-0.961-4.569-3.986-8.407-7.472-11.348      c-1.767-1.473-3.699-2.75-5.761-3.724c-2.047-0.958-4.29-1.642-6.45-1.188c-4.42,0.718-8.22,3.624-10.862,7.142      c-1.342,1.765-2.4,3.743-3.106,5.818c-0.712,2.069-1.047,4.265-0.847,6.389c0.087,1.07,0.3,2.11,0.687,3.122      c0.206,0.5,0.384,1.014,0.608,1.507l0.772,1.433c1.14,1.857,2.633,3.52,4.358,4.907c3.418,2.779,7.778,4.675,12.275,4.639      c2.241,0.003,4.46-0.561,6.469-1.586c0.994-0.534,1.902-1.228,2.774-1.972c0.874-0.739,1.703-1.54,2.439-2.421      c1.493-1.74,2.739-3.724,3.512-5.898c0.394-1.085,0.62-2.224,0.749-3.369C223.959,168.423,223.886,167.264,223.703,166.123z"/>
			</g>
		</g>
		<g>
			<path style="fill:#A9312F;" d="M206.293,179.564c0.518,0.015,6.25,1.29,11.117-5.75c4.867-7.04-2.361-14.759-5.471-16.697     c-3.109-1.938-10.88-4.863-16.64,2.916C189.54,167.812,197.387,179.305,206.293,179.564z"/>
		</g>
		<g style="opacity:0.21;">
			<path style="fill:#A9312F;" d="M214.984,153.56c-12.586,1.835-21.848,12.718-26.154,18.874c-0.337-0.964-0.552-1.973-0.659-3.003     c-0.9-9.013,7.254-19.457,16.445-20.184c2.227-0.16,4.449,0.68,6.381,1.706C212.32,151.65,213.673,152.534,214.984,153.56z"/>
		</g>
	</g>
	<g>
		<path style="fill:#A9312F;" d="M302.962,54.581c-9.744,24.891-25.327,17.515-19.592,9.572c3.839-5.326,6.214-11.693,7.738-15.937    C295.447,49.663,299.401,51.781,302.962,54.581z"/>
	</g>
	<g>
		<path style="fill:#A9312F;" d="M317.832,69.837c-4.536,7.891-11.513,15.835-20.043,18.197c-3.218,0.892-7.134,0.213-8.225-2.84    c-0.428-1.225-0.312-2.669,0.145-4.024c1.339-4.018,4.89-7.421,7.905-10.486c3.424-3.493,6.571-8.777,8.801-13.197    C306.416,57.488,314.888,64.276,317.832,69.837z"/>
	</g>
	<g>
		<path style="fill:#A9312F;" d="M321.283,74.947c3.545,4.426,5.743,9.92,6.543,15.784c-3.882,4.44-9.563,7.37-15.324,8.256    c-2.57,0.389-5.454-0.008-6.79-2.521c-1.774-3.321,1.781-6.762,4.129-8.619C316.215,82.817,319.654,77.822,321.283,74.947z"/>
	</g>
	<g>
		<g>
			<path style="fill:#A9312F;" d="M195.534,208.053c2.006-3.263,4.262-6.332,6.58-9.354c2.342-3.002,4.748-5.956,7.405-8.715     c-2.004,3.264-4.261,6.333-6.58,9.354C200.595,202.339,198.19,205.293,195.534,208.053z"/>
		</g>
		<g>
			<path style="fill:#A9312F;" d="M188.195,202.022c2.627-2.605,5.45-4.964,8.321-7.261c2.891-2.273,5.831-4.483,8.969-6.443     c-2.625,2.608-5.449,4.965-8.321,7.261C194.272,197.849,191.332,200.06,188.195,202.022z"/>
		</g>
		<g>
			<path style="fill:#A9312F;" d="M183.137,191.367c3.505-1.185,7.077-2.062,10.666-2.862c3.596-0.77,7.208-1.462,10.889-1.843     c-3.504,1.188-7.077,2.064-10.666,2.862C190.429,190.292,186.817,190.984,183.137,191.367z"/>
		</g>
	</g>
	<g>
		<path style="fill:#FFFFFF;" d="M250.529,46.48c0,0-2.155,1.554-3.094,1.534c-0.95-0.012,2.136-2.691,2.136-2.691    c-2.126,0.625-4.935-0.153-4.425-0.63c0.512-0.495,3.477-0.643,3.477-0.643c-4.215-1.212-6.343-6.546-4.001-8.024    c1.001-0.634,3.644,0.566,6.331,2.138c4.756,8.677,13.808,10.459,15.204,10.474c-5.866-0.27-11.698,0.958-16.155,2.325    C249.272,49.011,250.529,46.48,250.529,46.48z"/>
	</g>
	<g>
		<path style="fill:#FFFFFF;" d="M169.477,108.264c-1.109-1.938-1.274-5.758-1.281-6.089c-0.093,0.166-1.031,1.99-2.019,2.169    c-1.036,0.184,0.591-2.779,0.591-2.779s-1.741,1.691-2.35,1.255c-0.611-0.417,1.405-1.838,1.405-1.838    c-2.008,0.297-7.436-1.33-6.566-3.664c0.57-1.519,2.962-1.566,4.578-1.413c4.085,2.49,8.178,3.855,14.122,1.647    C177.958,97.551,173.237,103.377,169.477,108.264z"/>
	</g>
	<g>
		<path style="fill:#A9312F;" d="M238.782,148.686c0,0-5.465-1.541-6.496,0.18c-1.031,1.72,8.115,5.66,10.154,4.983    c2.039-0.678,0.731-10.676-0.962-11.151C239.784,142.222,238.782,148.686,238.782,148.686z"/>
	</g>
	<g style="opacity:0.48;">
		<path style="fill:#A9312F;" d="M231.496,156.63c-2.349,2.631-3.818,6.268-3.519,10.111c0.433,5.571,3.46,10.811,8.962,12.269    c3.414,0.905,6.873,0.269,10.012-0.85c6.014-2.144,11.836-4.699,15.978-9.759c1.502-1.835,2.776-3.941,3.345-6.362    c0.873-3.711-0.052-8.047-2.424-11.365c-2.372-3.318-6.135-5.541-9.866-5.828c-4.589-0.353-9.46,1.939-12.977,4.479    C237.874,151.587,234.079,153.738,231.496,156.63z"/>
	</g>
	<g style="opacity:0.21;">
		<path style="fill:#A9312F;" d="M256.652,444.975c32.727-66.066,13.268-162.041,13.268-162.041    c-38.395-7.296-46.473-35.889-49.844-53.871c8.541,13.615,26.216,28.437,46.572,32.842c4.04,0.862,7.87,1.245,11.47,1.168    c4.634,17.733,8.637,36.863,11.183,56.491C295.162,365.044,276.97,410.908,256.652,444.975z"/>
	</g>
	<g>
		<g>
			<path style="fill:#A9312F;" d="M315.448,116.053c-2.512,2.716-5.232,5.193-8.002,7.611c-2.791,2.395-5.633,4.729-8.684,6.822     c2.511-2.718,5.23-5.195,8.002-7.611C309.556,120.482,312.398,118.147,315.448,116.053z"/>
		</g>
		<g>
			<path style="fill:#A9312F;" d="M305.922,109.098c-1.062,3.544-2.415,6.965-3.839,10.355c-1.453,3.377-2.98,6.724-4.8,9.946     c1.06-3.545,2.413-6.965,3.84-10.355C302.578,115.667,304.105,112.32,305.922,109.098z"/>
		</g>
	</g>
	<g style="opacity:0.48;">
		<g>
			<path style="fill:#A9312F;" d="M254.93,190.229c4.703-2.955,9.43-5.629,14.047-8.493c2.312-1.421,4.577-2.901,6.83-4.414     c2.224-1.554,4.397-3.163,6.589-4.887c-3.053,4.699-7.567,8.259-12.245,11.202c-2.38,1.436-4.828,2.75-7.368,3.861     C260.247,188.614,257.644,189.593,254.93,190.229z"/>
		</g>
	</g>
	<g style="opacity:0.48;">
		<g>
			<path style="fill:#A9312F;" d="M282.633,186.964c-0.53,6.145-1.791,12.322-4.535,17.944c-1.39,2.773-3.266,5.45-5.987,7.191     c-1.353,0.848-2.892,1.448-4.505,1.643c-1.61,0.19-3.194,0.081-4.76-0.144c-3.111-0.46-6.12-1.382-9.055-2.366     c-2.947-0.979-5.852-2.054-8.757-3.092c-5.793-2.001-11.7-4.12-17.694-4.23c-2.966-0.041-5.916,0.673-8.174,2.426     c-2.381,1.652-3.59,4.313-3.547,7.235c-0.062,2.893,0.839,5.822,1.963,8.586c1.156,2.776,2.68,5.414,4.383,7.927     c6.921,10.012,16.474,18.195,27.161,24.003c5.351,2.896,11.058,5.199,16.975,6.564c5.89,1.483,12.028,1.751,18.013,0.918     c5.974-0.888,11.744-3.075,16.798-6.405c5.064-3.324,9.475-7.625,13.206-12.445c7.45-9.715,12.313-21.265,15.514-33.12     c3.206-11.88,4.794-24.255,4.324-36.614c0.976,12.344-0.391,24.822-3.264,36.888c-3.018,12.015-7.739,23.793-15.206,33.885     c-3.735,5.019-8.236,9.545-13.515,13.021c-5.254,3.505-11.302,5.838-17.553,6.801c-6.25,0.91-12.687,0.654-18.804-0.849     c-6.144-1.387-12.025-3.719-17.551-6.681c-10.969-6.048-20.68-14.447-27.782-24.831c-1.748-2.612-3.32-5.362-4.528-8.303     c-1.17-2.939-2.14-6.062-2.064-9.381c0.036-1.639,0.297-3.345,1.07-4.888c0.73-1.568,1.973-2.839,3.296-3.81     c2.694-2.018,6.121-2.741,9.305-2.639c6.447,0.24,12.353,2.523,18.157,4.621c5.8,2.119,11.507,4.614,17.502,5.704     c1.483,0.256,3.01,0.396,4.478,0.261c1.464-0.134,2.892-0.645,4.174-1.4c2.57-1.542,4.471-4.065,5.903-6.747     C280.399,199.19,281.869,193.078,282.633,186.964z"/>
		</g>
	</g>
	<g>
		<path style="fill:#A9312F;" d="M218.304,225.982c0.743-0.82,1.862-1.146,2.888-1.481c1.06-0.289,2.159-0.455,3.264-0.477    c2.215-0.08,4.427,0.362,6.496,1.114c4.126,1.569,7.663,4.404,10.044,7.969c-3.621-2.291-7.05-4.497-10.823-5.876    c-1.866-0.722-3.807-1.204-5.795-1.472C222.408,225.558,220.295,225.384,218.304,225.982z"/>
	</g>
	<g>
		<path style="fill:#A9312F;" d="M214.984,210.862c2.487-0.792,5.097-1.103,7.706-1.168c2.614-0.068,5.242,0.203,7.827,0.75    c2.567,0.628,5.082,1.569,7.364,2.938c2.267,1.397,4.225,3.285,5.618,5.476c-2.093-1.57-4.177-2.905-6.436-3.936    c-2.282-0.966-4.622-1.745-7.043-2.3C225.163,211.536,220.158,211.126,214.984,210.862z"/>
	</g>
	<g>
		<g>
			<path style="fill:#FF983D;" d="M393.379,411.864c-4.408,7.122-10.958,13.121-20.59,16.754c-1.571,0.592-3.224,1.122-4.959,1.592     c-10.387,2.755-19.264,3.449-27.181,2.571c-9.203-1.02-17.08-4.163-24.529-8.693c-10.571-6.408-20.223-15.57-31.385-25.345     c-16.937-14.815-36.65-19.57-48.935-24.161c-6.449-2.408-10.856-4.755-11.754-8.509c-2.612-10.897,8.652-15.346,25.651-12.917     c3.388,0.49,6.897,1.592,10.428,3.183c14.223,6.387,29.12,20.672,40.344,33.936c14.019,16.57,35.895,29.447,61.321,22.59     c10.428-2.816,16.591-11.754,20.223-21.325c2.755-7.285,4.041-14.937,4.673-20.508v-0.02c0.367-3.633,0.546-7.949,0.566-9.132     c4.143-2.02,8.943-4.495,13.27-7.535c-0.314-1.213,0,1.567,0,1.628C401.909,368.174,404.623,393.682,393.379,411.864z"/>
		</g>
		<g style="opacity:0.2;">
			<path style="fill:#A9312F;" d="M393.379,411.864c-4.408,7.122-10.958,13.121-20.59,16.754c-1.571,0.592-3.224,1.122-4.959,1.592     c-10.387,2.755-19.264,3.449-27.181,2.571c-9.203-1.02-17.08-4.163-24.529-8.693c-10.571-6.408-20.223-15.57-31.385-25.345     c-16.937-14.815-36.65-19.57-48.935-24.161c-6.449-2.408-10.856-4.755-11.754-8.509c-2.612-10.897,8.652-15.346,25.651-12.917     c3.388,0.49,6.897,1.592,10.428,3.183c14.223,6.387,29.12,20.672,40.344,33.936c14.019,16.57,35.895,29.447,61.321,22.59     c10.428-2.816,16.949-11.626,20.223-21.325c2.482-7.352,3.828-14.872,4.673-20.508v-0.02c0.367-3.633,0.487-6.304,0.507-7.488     c4.143-2.02,8.966-4.879,13.292-7.919c0,0.061,0.036,0.367,0.036,0.367C401.909,368.174,404.623,393.682,393.379,411.864z"/>
		</g>
	</g>
	<g>
		<path style="fill:#FF983D;" d="M289.646,297.616c0,0-6.951,47.332,1.693,74.094c0,0-23.282,7.001-43.663,26.962    c-20.509,20.087-14.953,32.755-7.777,34.464c7.177,1.709,30.346-31.015,54.601-36.088c19.402-4.058,23.493-6.925,26.255-16.763    c0,0,29.892,3.223,56.241-12.423c17.859-10.605-36.093-59.084-36.093-59.084L289.646,297.616z"/>
	</g>
	<g style="opacity:0.48;">
		<g>
			<path style="fill:#A9312F;" d="M239.821,407.619c2.77-4.542,6.392-8.508,10.316-12.095c3.913-3.621,8.268-6.714,12.678-9.689     c4.423-2.971,9.066-5.591,13.78-8.064c4.729-2.454,9.518-4.756,14.476-6.784l-0.471,0.891     c-3.237-14.665-4.92-29.616-4.937-44.634c0.041-14.956,1.645-30.224,7.42-44.3c1.435-3.509,3.247-6.86,5.252-10.088     c2.12-3.141,4.459-6.216,7.135-8.865c5.196-5.474,11.197-10.233,17.819-13.911c13.217-7.372,29.283-9.878,43.971-5.694     l-0.713,1.145c-0.822-0.867-1.536-1.764-2.174-2.771c-0.602-1.008-1.218-2.112-1.188-3.533c0.063-0.7,0.409-1.48,0.996-1.879     c0.277-0.231,0.566-0.418,0.872-0.509c0.301-0.111,0.604-0.264,0.903-0.293c0.59-0.125,1.197-0.23,1.88-0.171     c0.624,0.094,1.214,0.249,1.769,0.459c4.342,1.82,7.816,4.772,11.328,7.608c6.912,5.826,13.377,12.129,19.59,18.659     c-6.468-6.271-13.077-12.419-20.108-18.021c-3.527-2.726-7.173-5.546-11.203-7.154c-0.506-0.182-1.007-0.3-1.501-0.369     c-0.45-0.032-0.952,0.052-1.466,0.171c-0.992,0.252-1.779,0.753-1.79,1.58c-0.015,0.859,0.468,1.858,1.039,2.739     c0.58,0.888,1.291,1.751,2.032,2.505l1.815,1.849l-2.528-0.703c-7.011-1.949-14.606-2.142-21.843-1.051     c-7.262,1.13-14.327,3.528-20.726,7.153c-6.406,3.606-12.219,8.261-17.264,13.636c-2.62,2.625-4.795,5.538-6.836,8.584     c-1.912,3.122-3.647,6.364-5.02,9.777c-5.594,13.649-7.352,28.658-7.447,43.454c-0.041,7.424,0.372,14.853,1.128,22.247     c0.758,7.387,1.773,14.786,3.292,22.034l0.137,0.654l-0.609,0.237c-4.898,1.91-9.723,4.129-14.449,6.486     c-4.72,2.381-9.37,4.914-13.849,7.725c-4.455,2.835-8.867,5.792-12.847,9.281C246.501,399.385,242.757,403.181,239.821,407.619z"/>
		</g>
	</g>
	<g>
		<path style="fill:#A9312F;" d="M244.115,157.046c0,0-1.865-7.226-8.531-4.244c-12.288,5.497,0.244,21.604-1.825,26.333    c-2.069,4.729-6.742,2.225-8.838-0.246c0,0,1.858,8.004,10.432,6.563C243.927,184.011,249.544,176.406,244.115,157.046z"/>
	</g>
	<g>
		<path style="fill:#A9312F;" d="M243.923,156.912c0,0-4.498-5.63,1.779-9.361c12.884-7.657,17.059,13.259,22.076,14.471    c5.018,1.212,5.849-4.023,5.148-7.188c0,0,5.251,6.32-1.082,12.277C265.511,173.069,256.058,172.943,243.923,156.912z"/>
	</g>
	<g>
		<path style="fill:#A9312F;" d="M283.511,220.451c-0.612,2.245-2.816,4.204-5.122,3.816c-1.714-0.306-3.02-1.775-3.796-3.347    c-0.755-1.571-1.163-3.306-1.959-4.857c-0.653-1.306-1.592-2.449-2.714-3.367c3.02-1.081,5.346-3.53,7.122-6.489    c0.469,0.306,0.918,0.633,1.326,1c1.939,1.714,3.245,4.02,4.224,6.408C283.491,215.778,284.123,218.186,283.511,220.451z"/>
	</g>
	<g>
		<path style="fill:#A9312F;" d="M284.511,243.021c0.061,6.775-0.571,13.836-3.326,19.917c-1,0.082-2.02,0.122-3.061,0.143    c-3.612,0.061-7.428-0.306-11.469-1.184c-1.571-0.347-3.143-0.735-4.673-1.204c4.612-3.449,8.285-8.203,10.387-13.57    c0.694-1.796,1.225-3.653,2.122-5.367c0.918-1.694,2.265-3.244,4.061-3.918c1.816-0.653,4.102-0.204,5.163,1.408    C284.45,240.327,284.491,241.715,284.511,243.021z"/>
	</g>
	<g>
		<path style="fill:#A9312F;" d="M318.386,238.042c-4.408,7.04-9.836,13.101-16.305,17.509c0.796-2.816,0.98-5.795,0.714-9.244    c-0.449-5.795-1.939-11.448-2.632-17.203c-0.367-2.918-0.286-6.367,2.061-8.122c1.714-1.306,4.204-1.183,6.122-0.183    s3.347,2.734,4.551,4.51C315.488,229.185,317.263,233.511,318.386,238.042z"/>
	</g>
	<g>
		<path style="fill:#A9312F;" d="M254.93,422.907c-1.623-0.997-2.924-2.546-3.733-4.352c-0.835-1.804-1.108-3.904-0.806-5.916    c0.388-1.996,1.249-3.845,2.454-5.375c0.587-0.773,1.32-1.416,1.987-2.086c0.775-0.568,1.539-1.13,2.355-1.602    c-0.48,0.838-1.012,1.586-1.532,2.328c-0.439,0.801-0.942,1.54-1.35,2.314c-0.801,1.562-1.419,3.145-1.71,4.78    C252.046,416.28,253.014,419.667,254.93,422.907z"/>
	</g>
	<g>
		<path style="fill:#A9312F;" d="M393.379,411.864c-4.408,7.122-10.958,13.121-20.59,16.754c-0.632-3.999-0.245-10.06,5.469-15.366    C383.197,408.64,388.951,409.721,393.379,411.864z"/>
	</g>
	<g>
		<path style="fill:#A9312F;" d="M396.175,383.193c-1.122,6.591-9.02,8.061-14.162,8.346c2.755-7.285,4.041-14.937,4.673-20.508    C390.727,372.684,397.297,376.479,396.175,383.193z"/>
	</g>
	<g>
		<path style="fill:#A9312F;" d="M340.649,432.781c-9.203-1.02-17.08-4.163-24.529-8.693c3.795-1.939,10.448-4.49,18.019-3.714    C340.037,420.965,341.078,426.944,340.649,432.781z"/>
	</g>
	<g>
		<path style="fill:#A9312F;" d="M260.125,356.338c-4.347,8.979-15.489,15.04-24.324,18.243c-6.449-2.408-10.856-4.755-11.754-8.509    c-2.612-10.897,8.652-15.346,25.651-12.917C253.085,353.644,256.595,354.746,260.125,356.338z"/>
	</g>
	<g>
		<path style="fill:#A9312F;" d="M373.81,110.665c-1.816,9.713-5.163,19.141-9.938,27.794c-3.102,5.652-7.816,11.57-14.264,11.591    c-2.041,0.021-4.265-0.755-5.224-2.551c-0.633-1.163-0.633-2.571-0.51-3.898c0.531-5.142,2.816-9.897,4.489-14.774    c2.122-6.183,3.245-12.693,3.388-19.202c0.061-3.204-0.428-6.387-0.755-9.55C357.79,102.257,365.565,105.604,373.81,110.665z"/>
	</g>
	<g>
		<path style="fill:#A9312F;" d="M411.296,145.764c-2.041,2.898-4.367,5.591-6.714,8.265c-3.061,3.489-6.346,7.061-10.693,8.713    c-4.347,1.633-10.06,0.653-12.326-3.387c-1.387-2.469-1.245-5.53-0.388-8.203c2.306-7.163,6.53-13.897,9.101-21.08    c0.612-1.714,1.306-3.53,2.184-5.285C398.767,130.561,405.113,137.479,411.296,145.764z"/>
	</g>
	<g>
		<path style="fill:#A9312F;" d="M436.049,190.291c-1.367,1.102-2.796,2.122-4.244,3.122c-5.367,3.755-11.448,7.407-17.978,6.897    c-1.633-0.143-3.347-0.592-4.53-1.735c-1.653-1.633-1.857-4.285-1.102-6.469c0.776-2.184,2.326-3.959,3.918-5.653    c4.857-5.183,10.346-10.101,13.836-16.407c0.102-0.184,0.204-0.367,0.286-0.571C429.642,175.843,432.927,182.76,436.049,190.291z"/>
	</g>
	<g>
		<path style="fill:#A9312F;" d="M448.048,234.103c-7.061,1.49-14.448,1.531-21.039-1.204c-1.796-0.735-3.755-2.041-3.796-4    c-0.02-1,0.51-1.959,1.143-2.734c4.326-5.245,13.04-5.51,18.835-8.346c0.571-0.286,1.122-0.571,1.633-0.898    C446.465,222.763,447.562,228.476,448.048,234.103z"/>
	</g>
	<g>
		<path style="fill:#A9312F;" d="M448.906,265.611c0,7.443-1.064,13.394-2.918,19.386c-3.571-0.877-7.04-2.367-10.326-4    c-2.959-1.469-5.836-3.081-8.448-5.081c-3.081-2.326-6-6.204-4.449-9.734c1-2.265,3.592-3.449,6.061-3.571    c2.469-0.122,4.877,0.592,7.285,1.183C440.253,264.815,444.6,265.57,448.906,265.611z"/>
	</g>
	<g>
		<path style="fill:#A9312F;" d="M437.968,309.22c-3.204,7.203-7.04,13.937-11.428,20.141c-7.571-4.081-13.754-10.775-16.733-18.855    c-1.204-3.306-1.571-7.714,1.367-9.632c1.428-0.918,3.244-0.939,4.938-0.755C423.969,301.057,430.723,306.077,437.968,309.22z"/>
	</g>
	<g>
		<path style="fill:#97ECE2;" d="M63.088,40.516c-3.792-14.42,16.775-18.192,16.775-18.192    C81.433,39.577,63.088,40.516,63.088,40.516z"/>
	</g>
	<g>
		<path style="fill:#FFFFFF;" d="M118.658,194.789c-0.046,1.028,0.041,2.077,0.412,3.037c0.471,1.217,1.372,2.223,2.364,3.071    c2.136,1.823,4.868,3.046,7.675,2.999c2.807-0.047,5.646-1.497,6.998-3.958c2.707-4.93-1.436-11.786-6.331-13.657    C124.11,184.113,118.902,189.407,118.658,194.789z"/>
	</g>
	<g>
		<path style="fill:#FFFFFF;" d="M136.855,212.109c0.509,0.661,1.298,1.078,2.12,1.22c0.439,0.076,0.896,0.073,1.334-0.013    c0.497-0.097,0.969-0.302,1.363-0.619c0.741-0.597,1.156-1.615,0.934-2.54C141.634,206.101,134.114,208.552,136.855,212.109z"/>
	</g>
	<g>
		<path style="fill:#A9312F;" d="M245.946,107.905c0.076,0.205,0.159,0.407,0.247,0.605c0.338,0.757,0.899,1.449,1.664,1.769    c4.009,1.68,9.007-7.019,8.013-10.321c-1.101-3.653-10.167-6.478-10.665-1.212C244.932,101.621,244.902,105.102,245.946,107.905z"/>
	</g>
	<g>
		<path style="fill:#A9312F;" d="M209.633,141.183c0.088,0.2,0.17,0.403,0.245,0.606c0.285,0.779,0.365,1.665,0.04,2.429    c-1.703,3.999-11.351,1.246-12.94-1.815c-1.757-3.386,2.774-11.732,6.802-8.303C205.98,135.97,208.428,138.445,209.633,141.183z"/>
	</g>
	<g style="opacity:0.48;">
		<g>
			<path style="fill:#A9312F;" d="M372.566,293.844c-1.367-0.367-2.747-0.69-4.116-0.806c-1.305-0.137-2.94,0.094-2.963,0.974     c-0.174,0.785,1.105,1.466,2.325,1.847c1.246,0.388,2.627,0.624,3.933,0.774l2.778,0.32l-2.391,1.518     c-1.024,0.65-2.043,1.41-2.964,2.185c-0.875,0.729-1.849,1.763-1.944,2.352c-0.014,0.109,0.015,0.113,0.01,0.14     c0.062,0.088,0.174,0.186,0.291,0.268c0.262,0.163,0.751,0.242,1.276,0.215c1.054-0.048,2.277-0.402,3.324-0.832l2.685-1.103     l-1.302,2.577c-0.623,1.232-1.018,2.839-0.992,4.326c-0.018,1.516,0.363,3.023,1.073,4.405c0.709,1.394,1.808,2.577,2.981,3.706     c0.615,0.532,1.282,1.016,1.939,1.523c0.709,0.422,1.402,0.888,2.111,1.343c-0.777-0.303-1.57-0.596-2.348-0.933     c-0.738-0.405-1.499-0.796-2.224-1.251c-1.421-0.957-2.745-2.137-3.74-3.633c-0.965-1.504-1.568-3.281-1.685-5.103     c-0.091-1.845,0.204-3.6,0.999-5.387l1.383,1.474c-1.314,0.562-2.587,0.971-4.1,1.085c-0.746,0.035-1.595,0.004-2.468-0.464     c-0.436-0.254-0.803-0.59-1.093-1.042c-0.321-0.544-0.4-1.185-0.294-1.714c0.23-1.039,0.751-1.603,1.219-2.164     c0.482-0.554,1.002-0.998,1.525-1.439c1.064-0.854,2.161-1.562,3.335-2.241l0.387,1.838c-1.486-0.228-2.886-0.569-4.295-1.141     c-0.698-0.3-1.399-0.619-2.054-1.17c-0.637-0.489-1.288-1.581-0.953-2.584c0.237-1.031,1.334-1.587,2.098-1.613     c0.809-0.076,1.539,0.063,2.253,0.218C369.981,292.649,371.309,293.18,372.566,293.844z"/>
		</g>
	</g>
	<g>
		<g>
			<path style="fill:#FB5555;" d="M191.307,57.348c-11.258,1.11-23.365-4.375-22.148-17.399c0.603-6.452,5.019-13.851,3.808-20.319     c0,0,6.907,7.309,5.419,13.992c0,0-3.029-9.815,4.946-21.718C191.306,0,199,0,199,0s-8.738,19.958-4.979,23.971     c3.755,4.008,4.977-6.911,4.979-6.932c-0.077,0.687,2.568,3.509,3.043,4.238c1.225,1.878,2.35,3.825,3.348,5.834     c3.151,6.344,5.736,14.741,1.946,21.39C204.14,54.11,197.452,56.742,191.307,57.348z"/>
		</g>
		<g>
			<path style="fill:#FF983D;" d="M190.276,47.79c1.795,0.447,3.841,0.254,5.474-0.704c1.943-1.14,3.829-3.952,2.005-6.004     c-1.472-1.655-3.926-1.86-5.476-3.412c-1.325-1.327-1.033-2.967-0.681-4.609c0.028-0.13,0.056-0.266,0.021-0.394     c-0.06-0.225-0.29-0.359-0.51-0.437c-0.752-0.266-1.588-0.149-2.346,0.098c-4.578,1.491-7.092,7.973-4.095,11.957     C185.875,45.889,188.018,47.227,190.276,47.79z"/>
		</g>
	</g>
	<g style="opacity:0.48;">
		<g>
			<path style="fill:#A9312F;" d="M312.319,143.999c0.828,1.099,1.758,2.172,2.856,2.888c0.546,0.347,1.179,0.518,1.607,0.283     c0.443-0.209,0.731-0.812,0.974-1.392c0.936-2.378,0.809-5.236,0.448-7.809l-0.288-2.049l1.736,1.268     c1.125,0.822,2.423,1.66,3.644,1.984c1.304,0.329,1.741-0.106,1.964-1.203c0.116-0.893-0.723-2.009-1.799-2.861     c-1.073-0.856-2.369-1.633-3.64-2.205l-1.36-0.613l0.97-1.131c1.238-1.443,2.397-3.136,3.428-4.827     c1.011-1.721,1.912-3.511,2.68-5.362c0.787-1.849,1.311-3.794,1.724-5.768c0.49-1.976,0.54-4.009,0.64-6.074     c0.352,2.025,0.522,4.123,0.345,6.209c-0.145,2.089-0.58,4.16-1.205,6.166c-0.605,2.016-1.413,3.975-2.426,5.826     c-1.004,1.871-2.137,3.606-3.553,5.296l-0.39-1.743c1.517,0.679,2.899,1.438,4.201,2.512c0.642,0.538,1.262,1.147,1.772,1.926     c0.505,0.76,0.894,1.794,0.771,2.879c-0.155,1.041-0.559,2.024-1.616,2.72c-1.088,0.641-2.235,0.458-3.063,0.203     c-1.713-0.581-3.003-1.501-4.236-2.604l1.447-0.781c0.117,1.469,0.091,2.873-0.055,4.31c-0.169,1.423-0.443,2.871-1.14,4.209     c-0.377,0.617-0.771,1.362-1.651,1.699c-0.904,0.308-1.723-0.142-2.268-0.58C313.698,146.437,312.953,145.232,312.319,143.999z"/>
		</g>
	</g>
</g>















</svg>
