<?xml version="1.0" encoding="UTF-8"?>
<!-- Generator: Adobe Illustrator 25.2.3, SVG Export Plug-In . SVG Version: 6.00 Build 0)  -->
<svg xmlns="http://www.w3.org/2000/svg" xmlns:xlink="http://www.w3.org/1999/xlink" version="1.1" id="Capa_1" x="0px" y="0px" viewBox="0 0 512 512" style="enable-background:new 0 0 512 512;" xml:space="preserve" width="512" height="512">
<g>
	<g>
		<g>
			<ellipse style="fill:#FB5555;" cx="113.378" cy="453.626" rx="109.487" ry="32.546"/>
			<path style="fill:#FB5555;" d="M259.63,486.172c0,9.239-25.197,16.73-56.28,16.73c-31.083,0-56.28-7.49-56.28-16.73     c0-9.239,25.197-16.729,56.28-16.729C234.433,469.443,259.63,476.933,259.63,486.172z"/>
			<ellipse style="fill:#FB5555;" cx="109.407" cy="504.293" rx="25.927" ry="7.707"/>
		</g>
		<g style="opacity:0.18;">
			<ellipse style="fill:#FFFFFF;" cx="113.724" cy="453.626" rx="109.487" ry="32.546"/>
			<path style="fill:#FFFFFF;" d="M259.976,486.172c0,9.239-25.197,16.73-56.28,16.73s-56.28-7.49-56.28-16.73     c0-9.239,25.197-16.729,56.28-16.729S259.976,476.933,259.976,486.172z"/>
			<ellipse style="fill:#FFFFFF;" cx="109.753" cy="504.293" rx="25.927" ry="7.707"/>
		</g>
	</g>
	<g>
		<path style="fill:#FB5555;" d="M506.353,447.008c-3.666,8.302-14.517,16.677-44.643,12.721c-0.024,0.024-0.024,0.024-0.048,0.024    v-0.024l-4.588-34.957l-7.623-58.237l-7.744-59.233l-0.631-4.054l-2.937-18.862l-0.825-5.365    c5.462,1.165,10.171,2.428,14.056,3.763c1.432,0.486,2.767,0.971,3.957,1.481c4.054,1.699,6.725,3.496,7.841,5.341l0.607,1.966    l21.071,68.288l22.746,73.652C507.591,433.511,509.363,440.235,506.353,447.008z"/>
		<path style="fill:#FB5555;" d="M150.909,277.492l-1.384,8.836l-2.864,18.498l-0.583,3.835l-7.137,63.117l-5.851,51.658    l-3.981,35.297c-33.84,6.263-44.497-4.515-47.726-13.546c-1.966-5.486-1.19-10.317-1.19-10.317l17.94-70.351l18.668-73.167    l0.315-1.238c0.534-1.238,1.796-2.427,3.666-3.593c2.112-1.335,5.074-2.622,8.788-3.86    C135.106,280.793,142.291,279.069,150.909,277.492z"/>
		<g>
			<path style="fill:#FB5555;" d="M486.787,447.445c0,4.467-9.128,8.666-25.077,12.284c-0.024,0.024-0.024,0.024-0.048,0.024     c-32.675,7.404-93.947,12.381-164.152,12.381c-73.361,0-136.963-5.438-168.376-13.4h-0.024     c-13.352-3.399-20.877-7.21-20.877-11.288l2.185-16.872l16.944-130.846l2.209-17.066c5.535-1.869,12.721-3.593,21.338-5.171     c0.558-0.097,1.116-0.194,1.675-0.291c4.005-0.728,8.327-1.408,12.915-2.039c11.07-1.578,23.717-2.937,37.603-4.054     c3.908-0.291,7.938-0.583,12.065-0.85c13.765-0.898,28.548-1.578,44.06-1.942c3.86-0.097,7.768-0.194,11.725-0.243     c6.336-0.097,12.793-0.146,19.323-0.146c7.283,0,14.444,0.048,21.484,0.17c3.957,0.073,7.865,0.146,11.725,0.242     c17.066,0.461,33.233,1.238,48.114,2.331c4.176,0.316,8.229,0.631,12.186,0.971c11.749,1.02,22.504,2.233,32.092,3.617     c4.71,0.68,9.152,1.384,13.255,2.136c2.889,0.534,5.608,1.068,8.181,1.626c5.462,1.165,10.171,2.428,14.056,3.763l3.496,16.265     l29.058,135.094L486.787,447.445z"/>
		</g>
		<path style="opacity:0.48;fill:#E54949;" d="M484.845,359.859c-5.438,1.141-10.851,2.209-16.216,3.229    c-1.287,0.243-2.549,0.461-3.836,0.704c-4.928,0.947-9.832,1.821-14.687,2.622c-0.219,0.048-0.437,0.073-0.656,0.121    c-13.303,2.282-26.315,4.248-39.108,5.947c-5.025,0.68-10.002,1.311-14.954,1.869c-21.411,2.549-42.045,4.321-61.854,5.487    c-5.098,0.291-10.171,0.558-15.148,0.777c-18.377,0.777-35.928,1.044-52.654,0.922c-5.146-0.073-10.244-0.146-15.245-0.267    c-20.367-0.51-39.326-1.602-56.781-3.083c-5.195-0.437-10.269-0.922-15.172-1.408c-14.42-1.481-27.65-3.204-39.593-5.001    c-2.816-0.413-5.584-0.825-8.254-1.262c-4.272-0.68-8.327-1.408-12.211-2.088h-0.024c-0.898-0.146-1.772-0.315-2.646-0.461    c-6.457-1.165-12.356-2.33-17.673-3.447l18.668-73.167l0.315-1.238c0.534-1.238,1.796-2.427,3.666-3.593l8.302-0.073l20.44-0.122    l288.613-1.942l13.546-0.097l3.641-0.024c4.054,1.699,6.725,3.496,7.841,5.341l0.607,1.966L484.845,359.859z"/>
		<path style="fill:#FB5555;" d="M461.662,459.729v0.024c-21.411,29.616-66.928,9.055-66.928,9.055    c-26.509,22.722-64.889,3.326-64.889,3.326c-32.699,26.558-71.395,0-71.395,0c-31.17,22.771-63.942-2.865-63.942-2.865    c-41.657,19.42-65.399-10.536-65.399-10.536h0.024l100.404-0.753L461.662,459.729z"/>
		<path style="opacity:0.28;fill:#AC312F;" d="M506.353,447.008c-3.666,8.302-14.517,16.677-44.643,12.721    c-0.024,0.024-0.024,0.024-0.048,0v0.024c-21.411,29.616-66.928,9.055-66.928,9.055c-26.509,22.722-64.889,3.326-64.889,3.326    c-32.699,26.558-71.395,0-71.395,0c-31.17,22.771-63.942-2.865-63.942-2.865c-41.657,19.42-65.399-10.536-65.399-10.536    c-33.84,6.263-44.497-4.515-47.726-13.546c7.161-5.268,16.968-10.171,29.034-14.614c6.846-2.525,14.444-4.928,22.673-7.137    c40.735-10.973,97.2-17.77,159.612-17.77c64.864,0,123.32,7.331,164.37,19.105c10.05,2.864,19.056,5.996,26.849,9.37    C493.195,438.123,500.77,442.444,506.353,447.008z"/>
		<path style="fill:#FFFFFF;" d="M89.579,437.121c1.068,0.728,2.377,0.996,3.655,1.189c3.968,0.602,8.639-0.303,9.088-5.097    c0.282-3.013-1.69-6.115-4.436-7.295C91.564,423.201,82.796,432.499,89.579,437.121z"/>
		<path style="fill:#FFFFFF;" d="M481.629,428.774c1.068,0.728,2.377,0.996,3.655,1.189c3.968,0.602,8.639-0.303,9.088-5.097    c0.282-3.012-1.69-6.115-4.436-7.295C483.614,414.854,474.846,424.152,481.629,428.774z"/>
		<path style="fill:#FFFFFF;" d="M95.664,419.148c3.013,0.218,3.577-3.462,0.65-4.075C93.225,414.426,92.428,418.913,95.664,419.148    z"/>
		<path style="fill:#FFFFFF;" d="M483.776,405.871c3.013,0.218,3.577-3.462,0.65-4.075    C481.338,401.15,480.541,405.637,483.776,405.871z"/>
		<path style="fill:#FFFFFF;" d="M451.361,462.663c3.012,0.218,3.577-3.462,0.65-4.075    C448.922,457.942,448.125,462.429,451.361,462.663z"/>
		<path style="fill:#FFFFFF;" d="M268.624,473.024c3.013,0.218,3.577-3.462,0.65-4.075    C266.186,468.302,265.389,472.789,268.624,473.024z"/>
		<path style="opacity:0.18;fill:#FFFFFF;" d="M155.23,435.866c0,0,3.496,14.42-11.919,13.91    c-15.415-0.485-10.438-17.891-10.438-17.891L152.584,277.2c4.005-0.728,8.327-1.408,12.915-2.039L155.23,435.866z"/>
		<path style="opacity:0.18;fill:#FFFFFF;" d="M214.536,440.381c0,0,4.345,14.201-11.07,14.614    c-15.415,0.437-11.482-17.236-11.482-17.236l11.118-166.652c3.908-0.291,7.938-0.583,12.065-0.85L214.536,440.381z"/>
		<path style="opacity:0.18;fill:#FFFFFF;" d="M389.102,453.49c-15.318,1.869-13.06-16.095-13.06-16.095l-4.442-166.725    c4.176,0.316,8.229,0.631,12.186,0.971l14.978,166.264C398.763,437.905,404.395,451.621,389.102,453.49z"/>
		<path style="opacity:0.18;fill:#FFFFFF;" d="M329.432,457.471c-15.318,1.869-13.06-16.095-13.06-16.095l-4.612-173.279    c3.957,0.073,7.865,0.146,11.725,0.242l15.609,173.547C339.094,441.886,344.726,455.602,329.432,457.471z"/>
		<path style="opacity:0.18;fill:#FFFFFF;" d="M264.81,457.932c-15.391,0.898-11.992-16.896-11.992-16.896l6.409-172.721    c3.86-0.097,7.768-0.194,11.725-0.243l4.491,174.93C275.443,443.003,280.201,457.058,264.81,457.932z"/>
		<path style="opacity:0.18;fill:#FFFFFF;" d="M449.329,446.936c-15.075,3.277-14.492-14.808-14.492-14.808l-18.959-156.869    c4.71,0.68,9.152,1.384,13.255,2.136l28.378,153.13C457.51,430.525,464.405,443.658,449.329,446.936z"/>
		<path style="fill:#FB5555;" d="M463.773,291.571c0,2.622-3.132,5.146-8.909,7.477c-3.593,1.481-8.229,2.889-13.789,4.2    c-24.834,5.947-68.02,10.269-119.048,11.555c-10.293,0.243-20.901,0.388-31.753,0.388c-59.718,0-112.396-4.103-143.614-10.365    c-7.89-1.578-14.396-3.302-19.299-5.098c-6.846-2.549-10.584-5.292-10.584-8.157c0-0.073,0-0.146,0.024-0.218    c0-0.413,0.121-0.825,0.315-1.238c1.165-2.622,5.486-5.146,12.453-7.453c5.535-1.869,12.721-3.593,21.338-5.171    c31.607-5.802,82.27-9.565,139.366-9.565c18.741,0,36.778,0.413,53.698,1.141c7.695,0.364,15.172,0.777,22.358,1.238    c29.204,1.942,53.795,4.976,70.982,8.715c5.462,1.165,10.171,2.428,14.056,3.763c6.312,2.136,10.366,4.418,11.798,6.822    C463.579,290.261,463.773,290.916,463.773,291.571z"/>
		<path style="opacity:0.18;fill:#FFFFFF;" d="M322.028,314.803c-10.293,0.243-20.901,0.388-31.753,0.388    c-59.718,0-112.396-4.103-143.614-10.365c-7.89-1.578-14.396-3.302-19.299-5.098c-6.846-2.549-10.584-5.292-10.584-8.157    c0-0.073,0-0.146,0.024-0.218c0-0.413,0.121-0.825,0.315-1.238c1.165-2.622,5.486-5.146,12.453-7.453    c5.535-1.869,12.721-3.593,21.338-5.171c31.607-5.802,82.27-9.565,139.366-9.565c18.741,0,36.778,0.413,53.698,1.141l0.146,1.189    c-66.054,0-119.63,10.05-119.63,22.455C224.488,303.709,266.51,312.861,322.028,314.803z"/>
	</g>
	<g>
		<g>
			<g>
				<g>
					<path style="fill:#FF9A3D;" d="M222.545,273.227c-10.778,8.157-19.493,11.118-26.145,11.604       c-0.486,0.049-0.971,0.073-1.432,0.073c-0.461,0.024-0.874,0.024-1.287,0c-0.291,0-0.583-0.024-0.874-0.049       c-7.574-0.388-11.774-3.981-12.721-4.879l-0.024-0.024c-0.097-0.097-0.17-0.17-0.17-0.17s-5.462,14.784-14.177,19.032       c-7.89,3.836-25.465,12.356-32.335,12.478c-0.51,0.024-0.971-0.024-1.359-0.17c-0.85-0.243-1.359-0.85-1.408-1.894       c-0.437-7.817,19.494-16.92,19.494-16.92s-6.215-5.244-8.618-19.153c-0.51-2.937-0.85-6.239-0.922-9.977       c-0.097-3.763,0.097-7.962,0.655-12.623c0.17-1.529,0.389-3.131,0.656-4.758c0.461-2.816,1.068-5.438,1.821-7.89       c1.578-5.341,3.787-9.904,6.336-13.74c2.379-3.666,5.049-6.7,7.768-9.201c9.443-8.715,19.299-11.094,19.299-11.094       c-0.218-7.064,0.413-14.007,1.724-20.78c1.165-6.093,2.865-12.017,4.904-17.673c1.19-3.35,2.501-6.627,3.908-9.783       c1.748-3.981,3.641-7.793,5.559-11.41c7.16-13.332,14.983-23.78,19.678-29.587c0.396-0.494,0.777-0.964,1.126-1.388       c0.218-0.267,0.437-0.51,0.607-0.753c0.267-0.34,0.534-0.631,0.752-0.898c0.316-0.34,0.558-0.631,0.777-0.898       c0.194-0.243,0.388-0.461,0.534-0.607c0.146-0.17,0.267-0.291,0.34-0.389c0.073-0.073,0.121-0.121,0.121-0.121       c0.607,0.073,1.214,0.194,1.821,0.34c0.389,0.073,0.801,0.194,1.19,0.315c0.291,0.097,0.583,0.194,0.85,0.291       c0.097,0.024,0.194,0.073,0.291,0.097c0.364,0.146,0.728,0.291,1.092,0.461c0.097,0.024,0.194,0.073,0.291,0.121       c0.413,0.194,0.825,0.413,1.238,0.655c0.364,0.194,0.728,0.413,1.068,0.655c0.413,0.267,0.826,0.558,1.238,0.874       c0.219,0.146,0.413,0.316,0.631,0.51c0.34,0.243,0.656,0.534,0.971,0.825c0.316,0.267,0.631,0.583,0.947,0.898       c0.146,0.146,0.291,0.291,0.437,0.461c0.34,0.34,0.68,0.704,0.971,1.068c0.316,0.34,0.607,0.704,0.898,1.093       c0.34,0.413,0.68,0.874,0.995,1.335c1.821,2.525,3.423,5.462,4.855,8.739c0.461,1.092,0.922,2.233,1.359,3.374       C253.521,172.507,244.442,256.622,222.545,273.227z"/>
				</g>
				<g style="opacity:0.2;">
					<path style="fill:#AC312F;" d="M217.123,109.579c0,0-41.652,45.304-40.022,94.292c0,0-29.588,7.116-35.224,41.924       s8.23,46.512,8.23,46.512s-20.198,9.137-19.494,16.92c0.66,7.296,26.071-5.565,35.359-10.417       c8.46-4.419,13.921-19.029,13.921-19.029s14.326,15.128,42.904-6.548C251.375,251.557,257.873,114.796,217.123,109.579z"/>
				</g>
			</g>
			<g>
				<path style="fill:#AC312F;" d="M141.566,308.898c-0.181-0.688-0.177-1.396-0.087-2.091c0.089-0.698,0.296-1.382,0.6-2.033      c0.328-0.638,0.76-1.241,1.319-1.712c0.562-0.468,1.256-0.771,1.957-0.838c-0.533,0.477-0.983,0.914-1.364,1.413      c-0.364,0.511-0.688,1.036-0.962,1.602C142.471,306.374,142.074,307.593,141.566,308.898z"/>
			</g>
		</g>
		<g>
			<g>
				<path style="fill:#FF9A3D;" d="M465.498,326.932c0,0-8.184,5.115-13.299,0c-5.115-5.115-9.885-24.023-22.597-28.643      c-12.713-4.609-20.896-21.999-20.896-21.999s-24.896,12.276-57.47-0.517c-32.574-12.793,27.287-106.722,27.287-106.722      s32.482-6.391,51.436,33.678c1.552,3.253,3,6.804,4.333,10.701c0.678,1.988,1.299,3.919,1.862,5.805      c1.287,4.241,2.287,8.241,3.069,11.988c1.069,5.172,1.724,9.873,2.058,14.126c1.552,19.54-3.414,29.402-3.414,29.402      S471.13,314.656,465.498,326.932z"/>
			</g>
			<g style="opacity:0.2;">
				<path style="fill:#AC312F;" d="M465.498,326.932c0,0-8.184,5.115-13.299,0c-5.115-5.115-9.885-24.023-22.597-28.643      c-12.713-4.609-20.896-21.999-20.896-21.999s-24.896,12.276-57.47-0.517c-32.574-12.793,27.287-106.722,27.287-106.722      s32.482-6.391,51.436,33.678c1.552,3.253,3,6.804,4.333,10.701c0.678,1.988,1.299,3.919,1.862,5.805      c1.287,4.241,2.287,8.241,3.069,11.988c1.069,5.172,1.724,9.873,2.058,14.126c1.552,19.54-3.414,29.402-3.414,29.402      S471.13,314.656,465.498,326.932z"/>
			</g>
		</g>
		<g>
			<g>
				<path style="fill:#FF9A3D;" d="M369.686,276.708c0,0,5.001,23.865-14.557,36.481c-19.557,12.616-81.944,23.743-81.024,59.246      c0.402,15.533,5.447,22.043,9.598,22.189c5.337,0.188,8.892-6.821,8.452-14.528c-0.783-13.701,2.763-29.401,24.854-38.362      c13.547-5.496,40.132-13.472,54.27-27.513c8.915-8.854,12.92-20.113,11.014-30.102      C377.363,258.291,369.686,276.708,369.686,276.708z"/>
			</g>
			<g style="opacity:0.2;">
				<path style="fill:#AC312F;" d="M382.296,284.122c-4.933-25.83-12.609-7.416-12.609-7.416s2.022,9.661-1.543,19.938      c-1.266,3.655-3.235,7.377-6.251,10.774c-1.828,2.075-4.066,4.028-6.763,5.77c-10.63,6.851-33.9,13.271-52.796,23.393      c-3.351,1.803-6.574,3.713-9.554,5.777c-9.078,6.249-15.987,13.802-18.05,23.312c-0.475,2.16-0.686,4.414-0.627,6.769      c0.406,15.532,5.449,22.033,9.593,22.186c5.34,0.185,8.899-6.816,8.464-14.527c-0.006-0.161-0.013-0.321-0.029-0.488      c-0.679-13.577,3.053-29.023,24.877-37.88c4.826-1.958,11.316-4.225,18.302-6.978c5.141-2.022,10.554-4.314,15.786-6.911      c7.599-3.792,14.788-8.265,20.184-13.619C380.198,305.364,384.204,294.106,382.296,284.122z"/>
			</g>
			<g>
				<path style="fill:#AC312F;" d="M292.16,380.098c-0.006-0.161-0.013-0.321-0.029-0.488c-2.135-4.911-4.813-1.157-4.813-1.157      c-3.34-8.463-8.915-11.613-12.588-12.783c-0.475,2.16-0.686,4.414-0.627,6.769c0.406,15.532,5.449,22.033,9.593,22.186      C289.036,394.81,292.595,387.808,292.16,380.098z"/>
			</g>
			<g>
				<path style="fill:#AC312F;" d="M368.144,296.643c-1.266,3.655-3.235,7.377-6.251,10.774c2.542,0.575,5.952,0.754,8.333-1.373      C373.084,303.492,371.085,299.312,368.144,296.643z"/>
			</g>
			<g>
				<path style="fill:#AC312F;" d="M351.095,327.841c-1.848-2.29-5.17-5.059-9.672-3.342c-4.779,1.827-5.892,7.017-6.114,10.253      C340.451,332.73,345.863,330.438,351.095,327.841z"/>
			</g>
			<g>
				<path style="fill:#AC312F;" d="M302.334,336.58c-3.351,1.803-6.574,3.713-9.554,5.777c0.651,2.706,1.941,5.539,4.436,5.796      C300.617,348.512,301.88,341.125,302.334,336.58z"/>
			</g>
		</g>
		<g>
			<path style="fill:#FF9A3D;" d="M404.794,192.071c-0.583-4.904-1.311-9.783-2.258-14.614c-0.947-4.904-2.063-9.759-3.423-14.541     c-2.258-8.229-5.146-16.265-8.667-23.936c-0.34-0.801-0.704-1.602-1.092-2.379c-1.505-3.18-3.132-6.36-4.855-9.492     c-2.185-4.054-4.564-8.011-7.186-11.822c-3.258-4.777-6.883-9.266-10.908-13.31c1.547-2.207,3.012-4.708,4.294-7.635     c1.096-2.512,2.063-5.311,2.853-8.421c0.275-1.077,0.517-2.157,0.736-3.238c0.308-1.516,0.56-3.035,0.738-4.544     c0.784-6.184,0.584-12.304-0.611-18.164c-0.174-0.855-0.361-1.705-0.577-2.545c-0.975-3.778-2.37-7.422-4.2-10.895     c-2.255-4.281-5.194-8.28-8.778-11.927c0.767-0.841,1.491-1.712,2.15-2.63c0.012-0.008,0.014-0.019,0.014-0.019     c8.645-12.121,7.251-29.567,2.843-31.346c-0.523-0.208-1.055-0.366-1.618-0.466c-5.543-1.007-12.916,3.145-19.73,9.614     c-5.32,5.033-12.94,6.574-16.95,7.048c-2.829-0.779-5.778-1.51-8.832-2.181c-3.693-0.82-7.532-1.549-11.475-2.18     c-1.596-0.27-3.21-0.503-4.842-0.722c-7.312-1.014-14.873-1.667-22.375-1.861c-1.915-0.056-3.829-0.088-5.733-0.07     c-4.955,0.01-9.852,0.241-14.594,0.703c-4.311,0.417-8.487,1.043-12.486,1.869c-3.993,0.229-8.974-0.113-13.457-2.288     c-9.212-4.484-18.188-6.18-22.94-2.593c-0.087,0.062-0.178,0.133-0.255,0.199c-2.884,2.365-2.103,13.512,3.854,22.547     c-3.014,3.761-5.579,8.06-7.569,12.722c-1.855,4.328-3.208,8.959-3.977,13.739c-0.231,1.472-0.419,2.954-0.533,4.447     c-0.486,5.697-0.114,11.523,1.244,17.231c0.29,1.171,0.603,2.341,0.976,3.505c1.262,4.025,3.04,7.952,5.394,11.704     c2.482,3.965,5.647,7.706,9.467,11.155c-4.637,9.886-14.074,36.309-10.96,83.081c0.85,12.842,2.646,26.63,5.171,40.03     c6.797,36.389,20.025,67.347,31.126,73.696c4.336,2.48,13.759,4.01,19.755,2.529c5.778-1.408,5.972-3.35,6.603-7.623     c10.608,1.748,21.994,2.694,33.428,2.84c2.112,0.024,4.248,0.024,6.384,0c16.095-0.243,31.947-2.136,45.298-5.85     c1.554-0.413,3.059-0.85,4.54-1.335c13.06-4.224,24.178-10.147,32.068-17.794c9.638-9.37,11.58-25.975,12.623-38.598     C406.639,221.421,406.494,206.661,404.794,192.071z"/>
		</g>
		<g>
			<path style="fill:#AC312F;" d="M363.027,31.966c0,0-0.004,0.009-0.018,0.014c-0.105,0.201-1.065,1.809-2.75,3.295     c-0.004,0.009-0.018,0.014-0.022,0.024c-0.941,0.833-2.428,1.603-4.15,2.093c-3.039,0.874-5.933,0.224-8.706-1.825     c-6.818-5.059,10.114-13.049,15.358-24.49c1.697-3.703,2.945-7.195,1.511-10.926c0.56,0.104-0.563-0.019,0,0     C372.766,0.435,371.669,19.842,363.027,31.966z"/>
		</g>
		<g>
			<path style="fill:#AC312F;" d="M231.357,41.922c-20.598-3.939-26.537-29.991-20.778-34.228c0.082-0.06,0.167-0.137,0.254-0.199     c0.401,1.621,1.641,3.669,3.358,6.44c1.783,2.878,4.707,6.6,9.785,9.171c9.344,4.718,10.065,10.867,9.192,15.343     C232.882,39.918,232.052,41.076,231.357,41.922z"/>
		</g>
		<g>
			<path style="fill:#FFFFFF;" d="M356.612,28.596c0,0,1.578,4.697-0.525,8.795c-3.039,0.874-6.797,0.877-9.57-1.173     c-6.818-5.059,9.992-14.391,16.222-25.142c-0.07,3.265-0.873,8.018-4.28,12.153c0,0,4.406-1.462,5.045-0.571     c0.602,0.873-4.62,3.34-4.913,3.476c0.226-0.042,2.845-0.532,3.162,0.605C362.081,27.929,356.612,28.596,356.612,28.596z"/>
		</g>
		<g>
			<path style="fill:#FFFFFF;" d="M233.168,38.449c-12.637,0.472-12.271-11.514-12.271-11.514s-1.694,2.22-3.01,1.081     c-1.254-1.099,1.14-2.752,1.345-2.895c-0.139,0.003-3.005,0.138-3.723-0.709c-0.741-0.87,2.272-1.54,2.272-1.54     c-3.484-2.86-3.721-6.94-3.59-8.937c2.081,2.544,5.326,5.327,10.404,7.899C233.94,26.551,234.695,33.717,233.168,38.449z"/>
		</g>
		<g>
			<path style="fill:#AC312F;" d="M300.729,37.264c-1.197,1.748-3.286,3.044-5.408,2.766c-2.872-0.367-4.665-3.232-5.775-5.889     c-1.93-4.634-3.041-9.544-4.644-14.287c-1.119-3.299-2.503-6.574-4.497-9.453c-0.116-0.168-0.238-0.35-0.359-0.532     c7.733,0,15.104,0,22.375,1.861c1.245,6.44,1.362,13.079,0.332,19.545C302.416,33.369,301.94,35.512,300.729,37.264z"/>
		</g>
		<g>
			<path style="fill:#AC312F;" d="M314.749,24.032c-1.267,0.964-3.196,1.232-4.465,0.24c-1.279-0.997-1.462-2.812-1.631-4.414     c-0.235-2.317-0.642-4.611-1.22-6.86c-0.043-0.179-0.108-0.358-0.169-0.546c4.317,0.539,7.974,1.046,11.475,2.18     c-0.284,1.857-0.75,3.686-1.413,5.444C316.766,21.566,316.03,23.063,314.749,24.032z"/>
		</g>
		<g>
			<path style="fill:#AC312F;" d="M273.329,21.439c-0.763,1.189-2.295,2.007-3.637,1.537c-0.662-0.23-1.197-0.731-1.685-1.233     c-2.843-2.855-6.599-7.049-8.288-11.24c4.941-0.634,9.664-0.928,14.594-0.703c0.186,2.521,0.205,5.054,0.038,7.569     C274.254,18.779,274.083,20.246,273.329,21.439z"/>
		</g>
		<g>
			<path style="fill:#AC312F;" d="M375.028,78.14c-2.451,0.648-4.98,1.045-7.496,1.39c-3.599,0.475-7.665,0.72-10.482-1.578     c-0.951-0.764-1.693-1.805-1.982-2.976c-0.611-2.447,0.864-5.008,2.901-6.488c2.032-1.493,4.539-2.161,6.945-2.933     c2.613-0.823,5.244-1.853,7.486-3.453c0.841-0.595,1.451-1.356,2.018-2.125C375.611,65.836,375.811,71.956,375.028,78.14z"/>
		</g>
		<g>
			<path style="fill:#AC312F;" d="M373.84,57.432c-1.877,0.747-3.861,1.205-5.957,1.145c-2.431-0.082-5.803-0.41-6.473-3.271     c-0.185-0.758-0.036-1.541,0.3-2.259c1.354-2.914,4.726-3.666,7.009-5.621c0.313-0.275,0.615-0.576,0.921-0.888     C371.47,50.01,372.864,53.654,373.84,57.432z"/>
		</g>
		<g>
			<path style="fill:#AC312F;" d="M370.7,94.343c-2.116-0.582-4.128-1.535-5.917-2.817c-1.19-0.842-2.323-1.906-2.744-3.287     c-0.427-1.394,0.12-3.151,1.48-3.651c0.666-0.245,1.411-0.169,2.128-0.129c2.619,0.146,5.262-0.299,7.676-1.283     c0.326-0.132,0.651-0.309,0.966-0.492c-0.219,1.08-0.461,2.161-0.736,3.238C372.763,89.032,371.796,91.831,370.7,94.343z"/>
		</g>
		<g>
			<g>
				<g>
					<path style="fill:#FFFFFF;" d="M340.58,110.012c-5.541,2.741-13.659,2.778-19.126-0.251c-1.168-0.648-2.226-1.457-3.14-2.447       c-3.952-4.324-5.596-11.177-4.851-16.897c0.007-0.133,0.025-0.266,0.043-0.399c0.859-5.758,4.888-10.517,10.326-12.573       c6.366-2.403,15.35-2.267,20.223,3.125c1.922,2.131,3.293,4.909,4.057,7.931l0.011,0.001       C350.188,96.549,347.998,106.333,340.58,110.012z"/>
				</g>
				<g>
					<path style="fill:#AC312F;" d="M340.58,110.012c-3.142,1.55-6.685,2.132-10.175,2.095c-1.75-0.03-3.501-0.252-5.206-0.687       c-1.706-0.426-3.374-1.07-4.886-2.022c-1.516-0.95-2.794-2.273-3.814-3.732c-1.03-1.462-1.846-3.068-2.468-4.744       c-1.239-3.357-1.717-6.994-1.369-10.608l-0.006,0.062c0.438-4.315,2.607-8.238,5.895-10.948       c1.633-1.342,3.513-2.419,5.516-3.067c1.98-0.672,4.032-1.088,6.107-1.242c4.119-0.273,8.486,0.471,11.969,2.921       c1.747,1.203,3.122,2.865,4.14,4.648c1.034,1.79,1.745,3.734,2.2,5.719l-0.347-0.287l0.011,0.001l0.274,0.023l0.062,0.263       c0.466,2.03,0.67,4.112,0.602,6.179c-0.077,2.066-0.4,4.12-1.008,6.087c-0.612,1.965-1.546,3.829-2.791,5.461       C344.037,107.762,342.424,109.116,340.58,110.012z M340.58,110.012c1.836-0.915,3.43-2.283,4.655-3.916       c1.24-1.629,2.09-3.526,2.641-5.482c0.556-1.961,0.793-4.003,0.753-6.031c-0.034-2.028-0.326-4.047-0.875-5.986l0.347,0.286       l-0.011,0l-0.259-0.009l-0.076-0.276c-0.536-1.895-1.324-3.721-2.381-5.354c-1.052-1.64-2.375-3.073-3.993-4.069       c-3.242-2.014-7.244-2.587-11.061-2.23c-3.838,0.364-7.641,1.549-10.569,3.943c-1.465,1.196-2.698,2.661-3.649,4.294       c-0.465,0.821-0.881,1.676-1.176,2.576c-0.173,0.442-0.271,0.906-0.406,1.361c-0.083,0.445-0.214,0.964-0.25,1.342       l-0.006,0.063c-0.489,3.315-0.219,6.798,0.802,10.045c0.513,1.623,1.213,3.191,2.124,4.632c0.908,1.446,2.04,2.742,3.443,3.722       c2.816,1.964,6.317,2.874,9.776,3.033C333.88,112.118,337.423,111.51,340.58,110.012z"/>
				</g>
			</g>
			<g>
				<path style="fill:#AC312F;" d="M328.8,107.099c4.589,0.943,9.845-0.507,12.825-4.188c4.748-5.864,3.356-15.54-2.95-19.748      c-3.385-2.26-8.134-2.983-11.984-1.654c-10.291,3.551-10.285,18.863-1.47,24.215C326.306,106.382,327.523,106.836,328.8,107.099      z"/>
			</g>
			<g style="opacity:0.21;">
				<path style="fill:#AC312F;" d="M348.112,88.501c-19.861-10.775-33.046,0.439-34.649,1.916c0.007-0.133,0.025-0.266,0.043-0.399      c0.859-5.758,4.888-10.517,10.326-12.573c6.366-2.403,15.35-2.267,20.223,3.125C345.977,82.701,347.348,85.479,348.112,88.501z"/>
			</g>
		</g>
		<g>
			<g>
				<g>
					<path style="fill:#FFFFFF;" d="M259.026,110.837c-5.541,2.741-13.658,2.779-19.125-0.251c-1.167-0.648-2.226-1.457-3.14-2.447       c-3.952-4.323-5.596-11.176-4.851-16.897c0.007-0.133,0.025-0.266,0.043-0.399c0.859-5.758,4.888-10.517,10.326-12.573       c6.365-2.403,15.349-2.267,20.223,3.125c1.921,2.13,3.293,4.909,4.057,7.931l0.011,0       C268.635,97.374,266.445,107.157,259.026,110.837z"/>
				</g>
				<g>
					<path style="fill:#AC312F;" d="M259.026,110.837c-3.142,1.55-6.685,2.132-10.175,2.095c-1.75-0.03-3.501-0.252-5.206-0.687       c-1.705-0.426-3.373-1.069-4.886-2.022c-1.516-0.949-2.795-2.272-3.814-3.732c-1.03-1.462-1.846-3.069-2.468-4.745       c-1.239-3.357-1.717-6.994-1.369-10.608l-0.006,0.062c0.438-4.315,2.607-8.238,5.894-10.948       c1.633-1.343,3.513-2.419,5.516-3.067c1.98-0.672,4.032-1.088,6.107-1.241c4.118-0.273,8.485,0.471,11.969,2.921       c1.747,1.203,3.122,2.865,4.139,4.648c1.035,1.79,1.745,3.734,2.201,5.719l-0.35-0.287l0.011,0.001l0.277,0.021l0.063,0.265       c0.466,2.03,0.67,4.113,0.601,6.179c-0.077,2.066-0.4,4.12-1.008,6.087c-0.612,1.965-1.545,3.829-2.791,5.461       C262.483,108.586,260.871,109.94,259.026,110.837z M266.403,91.002c-0.706-3.963-2.584-6.935-2.584-6.935       c-1.052-1.64-2.375-3.073-3.993-4.069c-3.242-2.014-7.244-2.587-11.061-2.23c-6.734,0.63-13.261,4.32-15.467,11.027       c-1.314,3.994-1.033,8.628,0.216,12.598c0.512,1.623,1.212,3.192,2.124,4.632c0.908,1.446,2.04,2.742,3.443,3.723       c2.817,1.964,6.317,2.873,9.776,3.033c3.471,0.164,7.013-0.445,10.17-1.942c1.836-0.915,3.43-2.283,4.655-3.916       c1.24-1.629,2.283-3.481,2.641-5.482C267.464,95.042,266.866,93.601,266.403,91.002z"/>
				</g>
			</g>
			<g>
				<path style="fill:#AC312F;" d="M247.246,107.923c4.589,0.943,9.845-0.507,12.825-4.188c4.748-5.864,3.356-15.54-2.95-19.749      c-3.385-2.259-8.134-2.983-11.985-1.654c-10.291,3.552-10.284,18.863-1.47,24.215      C244.752,107.207,245.969,107.661,247.246,107.923z"/>
			</g>
			<g style="opacity:0.21;">
				<path style="fill:#AC312F;" d="M266.559,89.325c-19.861-10.775-33.046,0.438-34.649,1.916c0.007-0.133,0.025-0.266,0.043-0.399      c0.859-5.758,4.888-10.517,10.326-12.573c6.365-2.403,15.349-2.267,20.223,3.125C264.423,83.525,265.795,86.303,266.559,89.325z      "/>
			</g>
		</g>
		<g>
			<g>
				<path style="fill:#AC312F;" d="M289.342,87.67c0,0-4.35-4.145-6.526-3.057c-2.175,1.088,2.308,5.937,6.858,6.694      c0,0,6.902-4.463,4.793-7.467C292.358,80.837,289.342,87.67,289.342,87.67z"/>
			</g>
			<g>
				<path style="fill:#AC312F;" d="M282.438,122.58c0.482-2.75,1.027-5.487,1.546-8.23l1.659-8.205l1.744-8.186      c0.596-2.725,1.15-5.46,1.782-8.178l0.315-1.355l0.644,1.22c1.26,2.387,2.424,4.799,3.545,7.242      c1.12,2.44,2.175,4.912,3.128,7.422c0.956,2.509,1.839,5.047,2.62,7.615c0.741,2.581,1.4,5.186,1.857,7.827      c-0.675-2.594-1.43-5.158-2.321-7.677c-0.894-2.518-1.835-5.017-2.877-7.476c-2.102-4.904-4.322-9.778-6.86-14.458l0.958-0.136      c-0.574,2.73-1.226,5.443-1.836,8.166l-1.873,8.157l-1.959,8.139C283.822,117.171,283.162,119.883,282.438,122.58z"/>
			</g>
			<g style="opacity:0.48;">
				<path style="fill:#AC312F;" d="M281.438,92.713c-2.659,1.104-5.055,3.432-6.254,6.726c-1.738,4.775-1.489,10.446,1.933,14.122      c2.124,2.282,4.848,3.317,7.518,3.811c5.117,0.947,10.247,1.47,15.091-0.825c1.757-0.832,3.448-1.989,4.75-3.723      c1.994-2.658,2.924-6.638,2.439-10.434s-2.376-7.319-4.955-9.235c-3.173-2.357-7.521-2.667-10.987-2.164      C287.884,91.441,284.361,91.498,281.438,92.713z"/>
			</g>
		</g>
		<g style="opacity:0.48;">
			<path style="fill:#E84949;" d="M327.414,113.876c-3.334,2.111-3.968,6.68-0.297,9.13c4.916,3.281,14.394,3.066,18.966-0.699     c3.86-3.178,1.729-9.305-2.334-10.536c-3.435-1.04-7.118-0.866-10.536-0.052C331.624,112.096,329.281,112.693,327.414,113.876z"/>
		</g>
		<g style="opacity:0.48;">
			<path style="fill:#E84949;" d="M235.858,116.286c-3.581,2.317-4.224,7.249-0.234,9.844c5.342,3.475,15.579,3.125,20.483-0.991     c4.14-3.474,1.781-10.051-2.621-11.327c-3.721-1.079-7.698-0.845-11.382,0.075C240.39,114.315,237.865,114.988,235.858,116.286z"/>
		</g>
		<g>
			<path style="fill:#AC312F;" d="M220.025,77.27c-1.86,1.175-4.137,1.428-6.34,1.545c-3.362,0.165-6.76,0.063-10.086-0.437     c-1.757-5.782-2.063-10.932-1.244-17.231c0.109,0.085,0.214,0.157,0.327,0.233c4.643,3.107,10.165,4.534,15.277,6.667     c1.82,0.75,3.768,1.788,4.431,3.634C223.135,73.746,221.872,76.099,220.025,77.27z"/>
		</g>
		<g>
			<path style="fill:#AC312F;" d="M217.273,88.468c-1.532,2.535-4.226,4.241-7.095,5.069c-0.069,0.024-0.133,0.04-0.208,0.05     c-2.354-3.752-4.133-7.679-5.394-11.704c2.1,0.347,4.197,0.579,6.43,0.396c1.209-0.104,2.426-0.274,3.638-0.115     c1.202,0.154,2.431,0.718,3.061,1.752C218.54,85.297,218.091,87.088,217.273,88.468z"/>
		</g>
		<g>
			<path style="fill:#AC312F;" d="M210.93,61.159c-1.108,0.061-2.193-0.345-3.183-0.855c-1.802-0.935-3.391-2.202-4.858-3.605     c0.769-4.78,2.123-9.411,3.978-13.739c0.166,0.43,0.295,0.866,0.423,1.279c1.235,4.058,2.971,7.953,5.177,11.579     c0.669,1.098,1.402,2.351,1.03,3.564C213.165,60.433,212.042,61.089,210.93,61.159z"/>
		</g>
		<g style="opacity:0.48;">
			<path style="fill:#AC312F;" d="M419.287,275.058c1.363-0.191,2.72-0.385,4.067-0.6c1.341-0.206,2.699-0.466,3.925-0.881     l0.958-0.323l-0.395,0.958c-0.295,0.715-0.508,1.566-0.437,2.236c0.045,0.338,0.174,0.547,0.393,0.666     c0.218,0.138,0.606,0.142,0.915,0.11c0.651-0.091,1.254-0.599,1.726-1.225c0.467-0.628,0.871-1.376,1.143-2.12l0.406-1.11     l0.449,1.074c0.227,0.543,0.528,1.119,0.906,1.589c0.376,0.473,0.846,0.873,1.396,0.996c0.543,0.118,1.156-0.028,1.688-0.377     c0.263-0.172,0.507-0.388,0.756-0.595l0.688-0.704l-0.552,0.829c-0.223,0.247-0.442,0.507-0.698,0.732     c-0.506,0.442-1.221,0.797-1.982,0.685c-0.756-0.102-1.382-0.565-1.863-1.07c-0.484-0.523-0.876-1.081-1.181-1.739l0.854-0.036     c-0.284,0.88-0.656,1.685-1.193,2.45c-0.54,0.732-1.301,1.478-2.38,1.664c-0.528,0.05-1.052,0.055-1.59-0.248     c-0.552-0.294-0.857-0.936-0.894-1.448c-0.084-1.053,0.243-1.9,0.615-2.752l0.563,0.634c-0.698,0.219-1.392,0.312-2.083,0.403     c-0.691,0.087-1.38,0.146-2.069,0.19C422.041,275.129,420.662,275.129,419.287,275.058z"/>
		</g>
		<g>
			<path style="fill:#AC312F;" d="M459.895,329.209c0.15-1.029,0.211-2.026,0.194-3.014c-0.028-0.986-0.109-1.962-0.332-2.911     c-0.205-0.949-0.479-1.891-0.873-2.796c-0.362-0.925-0.856-1.792-1.322-2.731c0.804,0.656,1.527,1.442,2.058,2.358     c0.577,0.893,0.93,1.916,1.172,2.953c0.222,1.045,0.263,2.127,0.118,3.177C460.77,327.29,460.46,328.325,459.895,329.209z"/>
		</g>
		<g style="opacity:0.48;">
			<path style="fill:#AC312F;" d="M213.224,146.346c-0.083,1.036-0.123,2.073-0.089,3.102c0.053,1.014,0.155,2.079,0.568,2.927     c0.152,0.312,0.473,0.671,0.857,0.689c0.434,0.02,0.782-0.404,1.013-0.718c0.556-0.775,0.929-1.755,1.232-2.687l0.599-1.85     l0.283,1.943c0.175,1.201,0.602,2.503,1.406,3.287c0.33,0.322,0.856,0.711,1.331,0.459c0.426-0.226,0.641-0.807,0.832-1.218     c0.524-1.137,0.897-2.4,1.211-3.666c0.305-1.269,0.58-2.562,0.795-3.848l0.578-3.449l0.356,3.471     c0.111,1.083,0.302,2.198,0.606,3.244c0.152,0.525,0.355,1.031,0.622,1.475c0.211,0.358,0.542,0.783,0.983,0.847     c0.496,0.073,0.87-0.433,1.105-0.803c0.292-0.451,0.541-0.955,0.741-1.478c0.413-1.044,0.717-2.138,0.989-3.24     c-0.123,1.13-0.332,2.253-0.658,3.355c-0.157,0.553-0.363,1.097-0.64,1.624c-0.292,0.557-0.776,1.17-1.467,1.153     c-0.661-0.017-1.284-0.551-1.64-1.072c-0.347-0.509-0.596-1.056-0.791-1.609c-0.399-1.111-0.642-2.236-0.785-3.405l0.933,0.022     c-0.185,1.335-0.417,2.646-0.729,3.955c-0.318,1.305-0.663,2.611-1.26,3.879c-0.335,0.613-0.621,1.304-1.483,1.767     c-0.756,0.406-1.816-0.183-2.337-0.738c-1.067-1.136-1.418-2.534-1.599-3.927l0.883,0.093c-0.371,1.023-0.81,1.989-1.507,2.875     c-0.862,1.096-2.364,1.259-2.976-0.18c-0.452-1.057-0.395-2.136-0.374-3.179C212.867,148.399,213.004,147.363,213.224,146.346z"/>
		</g>
		<g>
			<path style="fill:#AC312F;" d="M436.154,219.233c-1.517,1.023-3.057,2-4.609,2.966c-4.54,2.839-9.321,5.735-14.666,6.138     c-1.552,0.126-3.172,0.011-4.551-0.701c-1.379-0.713-2.483-2.127-2.472-3.69c0.012-1.161,0.609-2.23,1.264-3.184     c2.242-3.299,5.253-5.965,8.241-8.586c3.23-2.839,6.46-5.69,9.69-8.529c0.333-0.287,0.632-0.598,0.908-0.919     c1.552,3.253,3,6.804,4.333,10.701C434.97,215.416,435.59,217.348,436.154,219.233z"/>
		</g>
		<g>
			<path style="fill:#AC312F;" d="M441.28,245.347c-0.092,0.023-0.184,0.034-0.276,0.057c-5.173,0.977-10.494,1.046-15.701,0.322     c-1.897-0.253-4.104-0.908-4.678-2.736c-0.403-1.31,0.287-2.77,1.333-3.666c1.046-0.897,2.379-1.356,3.689-1.782     c4.701-1.574,9.632-3.23,13.574-6.322C440.292,236.393,440.947,241.094,441.28,245.347z"/>
		</g>
		<g>
			<path style="fill:#AC312F;" d="M202.951,161.268c-0.609,0.713-1.632,0.92-2.575,0.897c-2.689-0.046-5.115-1.506-7.356-3     c-1.621-1.081-3.506-2.195-5.253-3.437c-0.046-0.034-0.092-0.069-0.138-0.092c1.758-3.989,3.644-7.805,5.575-11.402     c0.034,0.034,0.069,0.069,0.092,0.104c3.506,3.781,6.586,7.942,9.161,12.402C203.272,158.142,204.008,160.027,202.951,161.268z"/>
		</g>
		<g>
			<path style="fill:#AC312F;" d="M201.1,189.831c-1.08,1.138-2.942,0.851-4.448,0.437c-6.115-1.69-12.034-4.057-17.609-7.058     c-0.069-0.023-0.138-0.057-0.207-0.114c1.161-6.092,2.85-12.011,4.885-17.678c0.046,0.058,0.092,0.104,0.138,0.161     c5.287,6.149,10.586,12.299,15.873,18.459C201.169,185.693,202.606,188.244,201.1,189.831z"/>
		</g>
		<g style="opacity:0.48;">
			<path style="fill:#AC312F;" d="M177.346,203.871c2.317-0.424,4.72-0.348,7.061,0.038c2.35,0.368,4.641,1.141,6.763,2.238     c2.107,1.112,4.107,2.484,5.731,4.23c0.87,0.814,1.566,1.784,2.302,2.706c0.377,0.455,0.639,0.995,0.952,1.493     c0.306,0.503,0.599,1.013,0.884,1.524c-1.483-1.825-2.929-3.643-4.697-5.133c-1.7-1.553-3.624-2.832-5.654-3.88     c-2.022-1.075-4.202-1.842-6.441-2.385c-0.559-0.139-1.128-0.239-1.694-0.36c-0.571-0.087-1.144-0.178-1.719-0.245     C179.683,203.935,178.52,203.875,177.346,203.871z"/>
		</g>
		<g>
			<g>
				<path style="fill:#AC312F;" d="M224.486,127.29c3.178-1.876,6.488-3.46,9.829-4.972c3.354-1.483,6.741-2.893,10.26-4.007      c-3.177,1.878-6.487,3.462-9.829,4.972C231.391,124.763,228.004,126.172,224.486,127.29z"/>
			</g>
			<g>
				<path style="fill:#AC312F;" d="M220.998,118.832c3.411-1.038,6.88-1.76,10.362-2.405c3.488-0.614,6.99-1.149,10.549-1.365      c-3.411,1.04-6.879,1.762-10.362,2.405C228.06,118.078,224.557,118.612,220.998,118.832z"/>
			</g>
			<g>
				<path style="fill:#AC312F;" d="M221.55,107.486c3.52,0.568,6.953,1.444,10.364,2.396c3.402,0.983,6.783,2.042,10.075,3.413      c-3.52-0.566-6.953-1.442-10.363-2.396C228.223,109.914,224.842,108.854,221.55,107.486z"/>
			</g>
		</g>
		<g>
			<g>
				<path style="fill:#AC312F;" d="M363.233,113.196c-3.53,0.502-7.068,0.685-10.608,0.789c-3.541,0.072-7.083,0.064-10.634-0.267      c3.53-0.505,7.068-0.687,10.608-0.789C356.14,112.859,359.683,112.868,363.233,113.196z"/>
			</g>
			<g>
				<path style="fill:#AC312F;" d="M362.097,122.922c-3.486-0.752-6.867-1.808-10.224-2.938c-3.346-1.16-6.666-2.396-9.881-3.937      c3.486,0.75,6.868,1.806,10.223,2.937C355.56,120.147,358.88,121.383,362.097,122.922z"/>
			</g>
			<g>
				<path style="fill:#AC312F;" d="M360.406,102.195c-2.949,2.003-6.047,3.723-9.181,5.373c-3.148,1.622-6.333,3.172-9.668,4.436      c2.949-2.006,6.046-3.725,9.181-5.373C353.887,105.01,357.073,103.46,360.406,102.195z"/>
			</g>
		</g>
		<g style="opacity:0.48;">
			<g>
				<path style="fill:#AC312F;" d="M263.095,122.81c9.508,0.16,18.927,0.378,28.359,0.301c4.714,0.01,9.426-0.105,14.142-0.237      c4.72-0.12,9.434-0.366,14.195-0.524c-4.631,1.073-9.331,1.941-14.071,2.373c-4.735,0.511-9.496,0.73-14.255,0.762      C281.954,125.487,272.409,124.829,263.095,122.81z"/>
			</g>
		</g>
		<g>
			<path style="fill:#AC312F;" d="M315.308,297.91c-1.247-2.01-2.171-4.171-2.951-6.374c-0.791-2.203-1.369-4.475-1.832-6.774     c-0.812-4.589-1.094-9.461,0.304-14.005c0.271,2.35,0.546,4.6,0.868,6.853c0.372,2.246,0.735,4.482,1.162,6.716     C313.68,288.807,314.648,293.252,315.308,297.91z"/>
		</g>
		<g>
			<path style="fill:#AC312F;" d="M299.008,297.563c-0.932-1.687-1.517-3.509-1.941-5.356c-0.435-1.85-0.636-3.746-0.708-5.651     c-0.055-3.783,0.574-7.762,2.649-11.025c-0.095,1.928-0.236,3.729-0.283,5.548c-0.013,1.816-0.06,3.615,0.008,5.426     C298.792,290.134,299.036,293.744,299.008,297.563z"/>
		</g>
		<g>
			<path style="fill:#AC312F;" d="M242.704,299.732c-0.172-2.975-0.307-5.713-0.34-8.548c0.019-1.409-0.004-2.822,0.1-4.252     c0.072-1.43,0.193-2.871,0.525-4.356c1.266,2.748,1.697,5.665,1.748,8.594c-0.009,1.464-0.104,2.939-0.415,4.392     C244.02,297.003,243.585,298.473,242.704,299.732z"/>
		</g>
		<g>
			<path style="fill:#AC312F;" d="M259.303,304.03c0.156-3.125,0.809-5.989,1.439-8.858c0.682-2.875,1.38-5.611,2.158-8.624     c0.591,1.467,0.743,3.054,0.729,4.596c0.002,1.554-0.26,3.07-0.575,4.565c-0.362,1.485-0.821,2.939-1.438,4.335     C261.008,301.439,260.291,302.799,259.303,304.03z"/>
		</g>
		<g>
			<path style="fill:#AC312F;" d="M384.5,127.11c-2.549,2.039-5.414,3.617-7.72,4.588c-3.277,1.384-9.929,3.957-13.085,1.287     c-2.889-2.403,1.117-5.947,2.889-7.501c3.228-2.816,6.7-5.438,9.516-8.691c0.437-0.51,0.85-1.02,1.214-1.505     C379.936,119.099,382.315,123.056,384.5,127.11z"/>
		</g>
		<g>
			<path style="fill:#AC312F;" d="M399.114,162.916c-9.128,2.816-19.153,2.549-28.33-0.17c-2.16-0.631-4.321-1.432-5.972-2.913     c-1.651-1.505-2.719-3.86-2.136-5.996c0.607-2.209,2.719-3.641,4.734-4.71c5.146-2.67,10.827-4.151,16.143-6.409     c2.404-1.02,4.758-2.209,6.894-3.738C393.967,146.652,396.856,154.687,399.114,162.916z"/>
		</g>
		<g>
			<path style="fill:#AC312F;" d="M404.794,192.071c-2.986,0.218-6.02,0.049-9.006-0.316c-4.224-0.51-8.691-1.578-11.531-4.734     c-1.19-1.311-2.039-3.18-1.457-4.855c0.874-2.476,4.054-3.01,6.676-3.204c4.37-0.316,8.764-0.728,13.06-1.505     C403.483,182.288,404.212,187.168,404.794,192.071z"/>
		</g>
		<g>
			<path style="fill:#FFC38E;" d="M226.441,269.632c-0.461,0.558-0.947,1.092-1.432,1.578c-4.467-12.114-8.327-27.14-11.361-43.356     c1.724-3.059,3.884-6.773,6.457-10.803c1.505,18.474,3.617,38.453,6.312,52.508C226.417,269.583,226.417,269.608,226.441,269.632     z"/>
		</g>
		<g>
			<path style="fill:#FFC38E;" d="M270.574,296.141c0.049,0.024,0.073,0.024,0.121,0.024v0.097     C270.647,296.214,270.623,296.165,270.574,296.141z"/>
		</g>
		<g>
			<path style="fill:#FFC38E;" d="M304.56,299.297c-11.385-0.146-23.304-1.384-33.864-3.131c3.569-13.716,1.044-46.027,0.656-59.791     c-0.413-14.031,1.724-51.221,2.476-63.626c3.01-0.583,6.117-0.898,9.322-0.898c7.453,0,14.808,2.039,21.824,5.681     c-3.617,22.43-12.963,80.716-14.395,95.233C289.072,288.276,295.554,297.306,304.56,299.297z"/>
		</g>
		<g>
			<path style="fill:#FFC38E;" d="M356.243,293.446c-13.352,3.714-29.204,5.608-45.299,5.85c10.293-4.224,28.33-41.39,36.851-70.254     C356.267,249.362,360.006,272.399,356.243,293.446z"/>
		</g>
		<g style="opacity:0.48;">
			<g>
				<path style="fill:#AC312F;" d="M274.082,168.672l-1.391,37.119c-0.418,12.375-0.925,24.733-0.187,37.06      c0.702,12.356,1.344,24.752,1.043,37.202c-0.09,3.113-0.251,6.23-0.583,9.351c-0.275,2.585-0.609,5.183-1.346,7.684      c-0.481,1.629-1.066,3.302-2.153,4.636c-1.64,2.011-4.381,2.75-6.838,3.131c-2.966,0.46-6.052,0.568-9.028,0.151      c-6.392-0.898-12.462-4.057-16.83-8.769c-4.408-4.707-7.273-10.548-9.112-16.586c-3.348-12.122-4.545-24.481-5.995-36.801      c-1.053-12.353-2.294-24.688-3.02-37.054c-0.662-12.373-1.194-24.749-1.609-37.124c0.954,12.351,1.715,24.706,2.77,37.039      c0.961,12.344,2.404,24.633,3.674,36.934l2.488,18.363c0.991,6.083,2.073,12.178,3.766,18.035      c1.789,5.756,4.568,11.294,8.679,15.626c4.08,4.347,9.637,7.176,15.51,7.986c2.186,0.302,4.493,0.362,6.723,0.127      c1.903-0.201,3.965-0.45,5.68-1.429c1.934-1.103,2.58-3.024,3.162-5.057c0.665-2.32,1.01-4.739,1.279-7.134      c0.34-3.034,0.518-6.104,0.624-9.178c0.404-12.314-0.285-24.677-0.704-37.052c-0.52-12.419,0.19-24.839,0.848-37.193      C272.394,193.381,273.065,181.014,274.082,168.672z"/>
			</g>
		</g>
		<g style="opacity:0.48;">
			<g>
				<path style="fill:#AC312F;" d="M306.418,168.672c-2.756,19.643-5.557,39.279-8.454,58.892      c-1.423,9.814-2.879,19.622-4.138,29.431c-0.976,9.761-3.937,19.804-1.078,28.993c1.287,4.526,4.099,8.651,8.224,10.789      c2.033,1.061,4.325,1.705,6.646,1.825c2.347,0.121,4.201-0.762,5.907-2.342c3.481-3.222,6.298-7.335,8.923-11.46      c2.594-4.173,5.009-8.478,7.283-12.861c4.524-8.78,8.527-17.842,12.095-27.072l5.007-13.979c1.698-4.66,2.818-9.485,4.13-14.272      c-3.99,19.449-10.938,38.245-19.601,56.145c-2.181,4.476-4.54,8.873-7.172,13.126c-2.662,4.23-5.448,8.429-9.23,11.989      c-0.947,0.892-2.023,1.733-3.226,2.286c-1.337,0.614-2.772,0.717-4.225,0.652c-2.631-0.117-5.232-0.818-7.594-2.029      c-4.785-2.437-8.015-7.172-9.44-12.116c-1.458-4.978-1.529-10.23-0.876-15.189l2.085-14.758      c1.372-9.848,2.776-19.664,4.481-29.434l4.945-29.34C302.841,188.182,304.54,178.413,306.418,168.672z"/>
			</g>
		</g>
		<g>
			<path style="fill:#AC312F;" d="M310.69,245.601c-2.694,0.777-5.608,0.558-8.399,0.024c-2.598-0.485-5.171-1.044-7.768-1.602     c0.558-3.666,1.141-7.501,1.724-11.385c2.063,0.656,4.127,1.287,6.19,1.991c2.063,0.704,4.103,1.481,6.093,2.427     C311.904,238.634,317.026,243.756,310.69,245.601z"/>
		</g>
		<g>
			<path style="fill:#AC312F;" d="M348.876,225.258c-0.34,1.238-0.704,2.5-1.092,3.787c-1.457,4.879-3.18,10.026-5.098,15.196     c-0.971-0.68-1.966-1.359-3.035-1.918c-3.641-1.918-8.011-2.622-11.871-4.224c-3.86-1.578-7.453-4.661-7.113-8.302     c0.267-3.01,3.326-5.462,6.749-6.384c3.399-0.922,7.088-0.631,10.608-0.17C341.666,223.729,345.307,224.408,348.876,225.258z"/>
		</g>
		<g>
			<path style="fill:#AC312F;" d="M326.348,200.084c0.048,1.748-1.287,3.277-2.864,4.005c-1.578,0.728-3.374,0.801-5.098,0.874     c-5.972,0.267-11.919,0.51-17.891,0.631c0.753-4.855,1.481-9.492,2.161-13.74c2.84,0.024,5.729,0.34,8.569,0.656     c4.127,0.461,8.327,1.165,11.895,3.253C324.721,196.734,326.299,198.215,326.348,200.084z"/>
		</g>
		<g>
			<path style="fill:#AC312F;" d="M252.04,194.21c0.073,1.189-0.68,2.282-1.602,3.083c-2.355,2.039-5.68,2.5-8.788,2.937     c-6.967,0.995-13.958,2.379-20.391,5.268c-0.656,0.291-1.335,0.607-1.991,0.922c-0.364-5.146-0.68-10.05-0.947-14.493     c5.608-1.19,11.264-1.966,16.969-2.379c4.345-0.316,8.812-0.364,12.963,0.995C250.025,191.151,251.943,192.34,252.04,194.21z"/>
		</g>
		<g>
			<path style="fill:#AC312F;" d="M271.873,210.426c-0.243,5.753-0.437,11.337-0.534,16.143c-1.869,0.17-3.738,0.17-5.608,0.17     c-3.326,0.024-6.627,0.024-9.929,0.049c-2.476,0-5.025,0-7.283-1.02c-2.258-1.02-4.127-3.35-3.787-5.802     c0.413-2.84,3.374-4.491,6.045-5.535C257.478,211.858,264.664,210.499,271.873,210.426z"/>
		</g>
		<g>
			<path style="fill:#AC312F;" d="M253.133,248.684c-4.783,4.467-10.851,4.564-16.847,6.142c-3.981,1.044-7.793,2.865-11.628,4.418     c-0.777-5.268-1.481-10.973-2.136-16.896c9.71-2.694,21.654-4.831,29.956,0.219C255.074,244.169,255.415,246.548,253.133,248.684     z"/>
		</g>
		<g style="opacity:0.48;">
			<g>
				<path style="fill:#AC312F;" d="M353.025,214.366c0.59,1.053,1.202,2.089,1.914,3.018c0.359,0.458,0.746,0.893,1.164,1.23      c0.21,0.166,0.426,0.296,0.627,0.392c0.255,0.087,0.303,0.068,0.195,0.049c0.013,0.038,0.208-0.648,0.192-1.144      c0.028-0.539,0.014-1.115-0.025-1.689c-0.075-1.147-0.245-2.327-0.413-3.461l-0.522-3.524l2.361,2.742      c0.843,0.979,1.848,1.922,2.847,2.708c0.959,0.766,2.224,1.411,2.812,1.216c0.052-0.019,0.002-0.036,0.039-0.003      c-0.064-0.025-0.06,0.097-0.071,0.065c-0.006,0.027,0.048-0.151-0.002-0.387c-0.059-0.47-0.275-1.079-0.542-1.656      c-0.535-1.158-1.228-2.359-1.946-3.458l-0.882-1.351l1.55-0.314c0.965-0.196,2.123-0.696,3.09-1.297      c0.991-0.619,1.885-1.402,2.699-2.284c0.76-0.922,1.484-1.913,2.055-3.014c0.588-1.095,1.008-2.276,1.443-3.479      c-0.095,1.27-0.309,2.545-0.708,3.783c-0.368,1.251-0.942,2.45-1.672,3.57c-0.751,1.106-1.684,2.106-2.771,2.931      c-1.107,0.838-2.252,1.49-3.752,1.876l0.667-1.665c0.877,1.188,1.672,2.363,2.317,3.735c0.323,0.684,0.626,1.39,0.774,2.301      c0.065,0.444,0.116,0.995-0.159,1.668c-0.271,0.665-0.913,1.145-1.611,1.289c-1.108,0.228-2.044-0.097-2.777-0.449      c-0.747-0.367-1.39-0.811-1.977-1.286c-1.172-0.968-2.128-2.033-3.049-3.214l1.838-0.782c0.133,1.247,0.162,2.461,0.132,3.713      c-0.022,0.625-0.051,1.252-0.167,1.904c-0.048,0.32-0.141,0.661-0.248,1c-0.149,0.339-0.27,0.765-0.816,1.108      c-0.298,0.19-0.599,0.194-0.897,0.132c-0.308-0.051-0.393-0.164-0.594-0.25c-0.321-0.201-0.576-0.446-0.797-0.698      c-0.434-0.509-0.755-1.052-1.044-1.602C353.732,216.688,353.315,215.543,353.025,214.366z"/>
			</g>
		</g>
		<g>
			<path style="fill:#AC312F;" d="M171.324,223.462c-0.413,1.36-1.748,2.282-3.156,2.598c-1.384,0.316-2.84,0.122-4.273-0.073     c-4.539-0.607-9.079-1.189-13.643-1.796c-0.073-0.024-0.146-0.024-0.219-0.024c2.379-3.666,5.049-6.7,7.768-9.201     c0.073,0,0.121,0.024,0.194,0.024c4.491,0.656,9.176,1.335,12.065,4.37C171.081,220.451,171.761,222.029,171.324,223.462z"/>
		</g>
		<g>
			<path style="fill:#AC312F;" d="M143.698,237.906h0.243c3.156,0.121,6.312,0.534,8.885,0.898c1.505,0.219,3.059,0.51,4.37,1.311     c1.335,0.801,2.379,2.185,2.379,3.714c-0.024,1.408-0.898,2.719-2.063,3.52c-1.141,0.826-2.549,1.214-3.908,1.554     c-3.981,0.922-8.084,1.287-12.138,1.626c-0.073,0.024-0.121,0.024-0.194,0.024c-0.024,0-0.024,0-0.049,0     C141.222,250.553,141.589,243.775,143.698,237.906z"/>
		</g>
		<g>
			<path style="fill:#AC312F;" d="M150.058,269.755c-0.922,1.02-2.209,1.626-3.496,2.112c-1.578,0.558-3.18,0.995-4.831,1.262     c-0.073,0.024-0.146,0.024-0.243,0.024c-0.922-3.447-1.116-6.46-0.922-9.977c0.073-0.024,0.17-0.024,0.243-0.024     c1.845-0.073,3.69,0.024,5.316,0.194c1.918,0.194,4.151,0.801,4.855,2.597C151.491,267.231,150.981,268.736,150.058,269.755z"/>
		</g>
	</g>
</g>















</svg>
