<?xml version="1.0" encoding="UTF-8"?>
<!-- Generator: Adobe Illustrator 25.2.3, SVG Export Plug-In . SVG Version: 6.00 Build 0)  -->
<svg xmlns="http://www.w3.org/2000/svg" xmlns:xlink="http://www.w3.org/1999/xlink" version="1.1" id="Capa_1" x="0px" y="0px" viewBox="0 0 512 512" style="enable-background:new 0 0 512 512;" xml:space="preserve" width="512" height="512">
<g>
	<g>
		<path style="fill:#FF993D;" d="M147.882,318.077c0,0-24.576,33.755-25.814,60.387c-1.239,26.633,47.33-11.501,47.33-11.501    l-4.17-40.986L147.882,318.077z"/>
	</g>
	<g>
		<path style="fill:#FF993D;" d="M363.505,294.205h11.678h3.747c0,0-18.439-101.051-32.087-153.915    C333.195,87.425,307.893,0.674,284.85,0.223c-3.899-0.076-20.091-1.607-17.974,13.172    c10.397,72.563,96.011,298.137,96.011,298.137L363.505,294.205z"/>
	</g>
	<g>
		<path style="fill:#FC5555;" d="M371.601,294.363c0,0-21.501-101.995-24.757-118.094C343.587,160.17,306.121,4.288,279.67,0.222    c-20.731-3.186-42.939,28.743-53.362,42.412c-26.602,34.884-89.618,184.978-89.206,218.983    c0.452,37.264,198.353,73.41,198.353,73.41L371.601,294.363z"/>
	</g>
	<g>
		<g>
			<g>
				<path style="fill:#FF993D;" d="M444.83,385.367c-3.398,0.154-8.112-0.636-12.935-1.535c-4.823-0.921-9.778-1.951-13.57-2.28      c-9.273-0.767-14.842,6.314-17.253,16.42c-1.447,5.853-1.82,12.737-1.25,19.687c0.132,1.688,0.329,3.376,0.57,5.042      c0.548,3.793,0.767,8.484,0.351,13.483c-0.548,6.358-2.126,13.219-5.305,19.38c-7.805,15.171-25.299,26.088-61.099,14.929      c-10.611-10.282,4.648-14.601,4.648-14.601s10.063,4.735,21.397,3.836c5.634-0.46,11.575-2.302,16.771-6.818      c0.68-0.592,1.293-1.228,1.82-1.907c11.948-14.864-7.498-49.305,13.132-73.442c3.551-4.165,7.344-7.3,11.225-9.558      c6.643-3.946,13.548-5.393,19.972-5.239c7.739,0.131,14.798,2.565,19.884,5.656c3.157,1.907,5.546,4.056,6.884,6.095      C453.38,379.557,452.371,385.016,444.83,385.367z"/>
			</g>
			<g style="opacity:0.2;">
				<path style="fill:#AA312F;" d="M444.83,385.367c-3.398,0.154-8.112-0.636-12.935-1.535c-4.823-0.921-9.778-1.951-13.57-2.28      c-9.273-0.767-14.842,6.314-17.253,16.42c-1.447,5.853-1.82,12.737-1.25,19.687c0.132,1.688,0.329,3.376,0.57,5.042      c0.548,3.793,0.767,8.484,0.351,13.483c-0.548,6.358-2.126,13.219-5.305,19.38c-7.805,15.171-25.299,26.088-61.099,14.929      c-10.611-10.282,4.648-14.601,4.648-14.601s10.063,4.735,21.397,3.836c5.634-0.46,11.575-2.302,16.771-6.818      c0.68-0.592,1.293-1.228,1.82-1.907c11.948-14.864-7.498-49.305,13.132-73.442c3.551-4.165,7.344-7.3,11.225-9.558      c6.643-3.946,13.548-5.393,19.972-5.239c7.739,0.131,14.798,2.565,19.884,5.656c3.157,1.907,5.546,4.056,6.884,6.095      C453.38,379.557,452.371,385.016,444.83,385.367z"/>
			</g>
		</g>
		<g>
			<path style="fill:#AA312F;" d="M444.83,385.367c-3.398,0.154-8.112-0.636-12.935-1.535c3.749-5.174,15.543-3.749,15.543-3.749     c-5.503-4.275-5.349-8.703-4.253-11.663c3.157,1.907,5.546,4.056,6.884,6.095C453.38,379.557,452.371,385.016,444.83,385.367z"/>
		</g>
		<g>
			<path style="fill:#AA312F;" d="M423.301,362.764c-0.263,3.529-1.754,7.059-6.336,8.046c-5.59,1.206-10.457-0.811-13.636-2.806     C409.972,364.058,416.878,362.611,423.301,362.764z"/>
		</g>
		<g>
			<path style="fill:#AA312F;" d="M399.822,417.659c-3.924-3.157-7.761-7.541-6.643-12.101c0.986-4.012,4.429-6.292,7.892-7.585     C399.624,403.826,399.252,410.71,399.822,417.659z"/>
		</g>
		<g>
			<path style="fill:#AA312F;" d="M373.909,463.61c-5.437,1.776-10.676-1.535-13.526-3.88c5.634-0.46,11.575-2.302,16.771-6.818     c0.68-0.592,1.293-1.228,1.82-1.907C379.367,455.608,378.929,461.988,373.909,463.61z"/>
		</g>
		<g>
			<path style="fill:#AA312F;" d="M400.742,436.184c-0.548,6.358-2.126,13.219-5.305,19.38c-1.381-3.771-2.477-8.835-1.315-13.132     C395.02,439.188,397.783,437.303,400.742,436.184z"/>
		</g>
	</g>
	<g>
		<g>
			<g>
				<path style="fill:#FF993D;" d="M143.784,357.545c0,0-26.998,6.33-36.971,20.56c-14.788,21.101-0.541,56.268-0.541,56.268      s-20.559-0.361-36.43,9.017c-15.871,9.378-8.657,16.592-3.607,16.231c5.05-0.361,13.346-11.181,26.691-10.821      c13.346,0.361,20.56,3.607,25.609-7.935c0,0,28.856,19.917,45.447,10.139c16.592-9.778-10.46-74.101-10.46-74.101      L143.784,357.545z"/>
			</g>
			<g style="opacity:0.2;">
				<path style="fill:#AA312F;" d="M143.784,357.545c0,0-26.998,6.33-36.971,20.56c-14.788,21.101-0.541,56.268-0.541,56.268      s-20.559-0.361-36.43,9.017c-15.871,9.378-8.657,16.592-3.607,16.231c5.05-0.361,13.346-11.181,26.691-10.821      c13.346,0.361,20.56,3.607,25.609-7.935c0,0,28.856,19.917,45.447,10.139c16.592-9.778-10.46-74.101-10.46-74.101      L143.784,357.545z"/>
			</g>
		</g>
		<g>
			<path style="fill:#AA312F;" d="M70.921,457.559c0.041-0.715-0.262-1.471-0.295-2.246c-0.067-0.774-0.065-1.572,0.055-2.363     c0.216-1.59,0.878-3.138,1.838-4.454c1.016-1.271,2.252-2.34,3.651-3.07c0.68-0.393,1.437-0.631,2.15-0.915     c0.757-0.19,1.509-0.363,2.274-0.453c-0.603,0.51-1.226,0.919-1.829,1.344c-0.571,0.474-1.175,0.876-1.716,1.34     c-1.096,0.916-2.078,1.891-2.907,2.969c-0.828,1.081-1.442,2.295-1.927,3.606c-0.228,0.661-0.438,1.346-0.6,2.062     C71.375,456.071,71.408,456.882,70.921,457.559z"/>
		</g>
	</g>
	<g>
		<path style="fill:#FF993D;" d="M340.235,467.074c-0.855,1.995-1.798,3.99-2.806,5.941c-1.074,2.105-2.236,4.165-3.486,6.204    c-0.241,0.395-0.482,0.789-0.745,1.184c-1.206,1.929-2.477,3.749-3.793,5.415c-3.924,5.086-8.199,9.142-12.693,12.343    c-3.135,2.258-6.38,4.078-9.69,5.568c-5.481,2.433-11.137,3.902-16.749,4.626c-5.437,0.745-10.852,0.789-16.048,0.395    c-4.933-0.395-9.668-1.162-14.031-2.126c-3.661-0.811-7.059-1.776-10.106-2.74c-8.112-2.565-13.789-5.283-15.324-5.985    c0,0-9.843,17.253-23.699,13.592c-3.793,0-19.665-32.928-22.822-39.527c-0.066-0.154,0.044,0.131,0,0    c-0.022,0-0.022-0.022-0.022-0.022c-0.219-0.46-0.329-0.701-0.329-0.701s-0.044,0-0.132-0.022h-0.022    c-2.718-0.46-43.715-8.111-55.005-55.684c-10.392-43.802,19.577-80.589,26.286-88.131c0.811-0.943,1.293-1.425,1.293-1.425    l182.97,29.706c0,0,2.083,6.818,4.078,17.758c0.57,3.244,1.162,6.884,1.666,10.808    C351.964,406.676,352.665,438.749,340.235,467.074z"/>
	</g>
	<g>
		<path style="fill:#FFC48F;" d="M275.847,406.369c-0.022,0.044-0.044,0.088-0.066,0.132c-0.088,0.175-0.197,0.351-0.285,0.526    c0,0.022-0.022,0.044-0.022,0.066c-1.841-1.14-5.656-3.245-8.44-3.508c-0.395-0.044-0.767-0.044-1.118,0.022    c-0.285,0.022-0.526,0.088-0.767,0.175c-3.42,1.403,0,4.034,0,4.034c-0.044,0.022-0.088,0.022-0.154,0.022    c-2.083,0.219-24.707,3.025-35.099,17.933c-10.699,15.368-9.032,52.506-8.967,53.733c0,0.022,0,0.022,0,0.022    s-6.862-0.767-12.211-11.422c-4.538-9.098-14.601-22.208-23.611-23.019c-0.57-0.066-1.14-0.044-1.688,0    c-0.986,0.088-1.973,0.351-2.916,0.789c-6.993,3.31,0.68,15.346,7.235,25.343c-2.718-0.461-43.715-8.112-55.005-55.685    c-7.147-30.144,4.823-56.978,15.149-73.223c4.692-7.366,9.032-12.562,11.137-14.908l120.511,30.144c0,0,1.666,8.616,1.819,19.336    c0.132,7.761-0.526,16.618-3.157,24.137c-1.096-0.965-2.214-1.491-3.091-1.162C273.019,400.669,274.685,404.308,275.847,406.369z"/>
	</g>
	<g>
		<path style="fill:#FF993D;" d="M322.095,264.137c-0.944,1.466-1.995,2.867-3.131,4.237c-0.071,0.082-0.142,0.163-0.214,0.245    c-0.189,0.239-0.393,0.468-0.588,0.683c-0.708,0.776-1.421,1.528-2.165,2.261c-20.948,20.31-63.187,22.182-98.036,11.78    c-25.338-7.555-35.543-10.057-44-26.237c-1.254-2.947-2.031-4.801-2.412-5.641c-2.278-5.227-5.535-15.279-4.279-27.943    c0.067-0.753,0.158-1.512,0.258-2.286c0.254-1.703,0.552-3.443,0.972-5.211c0.016-0.094,0.029-0.149,0.051-0.219    c0.324-1.409,0.701-2.87,1.182-4.33c0.092-0.32,0.19-0.614,0.307-0.94c0.098-0.295,0.205-0.605,0.288-0.909    c0.977-2.742,2.065-5.458,3.347-8.117c0.247-0.538,0.491-1.035,0.778-1.569c0.572-1.132,1.173-2.245,1.845-3.336    c0.041-0.1,0.106-0.206,0.172-0.312c1.285-2.156,2.741-4.248,4.357-6.262c0.402-0.484,0.799-0.992,1.232-1.457    c6.08-6.956,14.418-12.522,26.167-15.278l-0.093-0.392c-1.268-6.256,0.014-16.146,2.649-21.274    c0.743-1.444,1.57-2.482,2.479-3.009c0.368-0.191,0.73-0.303,1.109-0.341c6.13-0.385,10.709,3.584,13.374,8.589    c1.813,3.436,2.868,7.493,5.05,10.738c0.162,0.246,1.563,2.383,2.678,3.864l0.274,0.336c0.357,0.032,0.714,0.063,1.07,0.095    c1.924,0.202,3.917,0.426,5.953,0.718c0.893,0.111,1.807,0.256,2.721,0.4c0.259,0.055,0.527,0.095,0.78,0.125    c0.308,0.043,0.606,0.102,0.89,0.151c0.701,0.118,1.401,0.236,2.077,0.36c0.363,0.056,0.74,0.121,1.094,0.193    c6.701,1.2,12.997,2.548,18.831,4.071c0.204,0.042,0.414,0.108,0.608,0.166c0.798,0.198,1.586,0.412,2.358,0.616    c0.624,0.175,1.232,0.341,1.841,0.506l0.015,0.009c0.733,0.201,1.457,0.417,2.157,0.638c3.045,0.893,5.949,1.845,8.697,2.847    c0.38,0.13,0.736,0.265,1.1,0.385c0.495,0.18,0.951,0.356,1.422,0.541c1.848,0.699,3.612,1.43,5.353,2.167    c0.009-0.015,0.009-0.015,0.009-0.015c3.348-10.122,14.103-17.983,18.315-17.187l0.025-0.006    c4.629,0.865,5.074,11.275,6.909,19.531c1.769,8.09,8.759,25.351,9.038,26.087c1.683,3.649,2.738,7.433,3.119,11.43    c0.039,0.379,0.071,0.733,0.109,1.112c0.032,0.626,0.074,1.237,0.092,1.854c0.033,0.354,0.041,0.715,0.058,1.06    c0.168,4.785-0.071,9.382-0.732,13.782l-0.007,0.079c-0.097,0.734-0.224,1.45-0.361,2.181c-0.277,1.502-0.614,2.966-1.006,4.417    C326.923,255.176,324.885,259.877,322.095,264.137z"/>
	</g>
	<g>
		<path style="fill:#AA312F;" d="M299.669,189.063c-3.833-2.137-6.803-3.224-6.955-3.291c3.364-10.117,14.113-17.978,18.326-17.19    l0.012,0.002c0.315,2.479,0.672,5.444-1.865,11.427c-0.253,0.587-0.457,1.168-0.635,1.739    C305.876,190.207,303.316,191.105,299.669,189.063z"/>
	</g>
	<g>
		<path style="fill:#AA312F;" d="M212.644,172.378c-1.686,0.174-3.273,0.358-4.502,0.523c-1.28-6.255-0.002-16.147,2.645-21.278    c0.735-1.432,1.572-2.481,2.483-2.991c0,0,2.028,1.335,2.921,6.78c0.323,1.986,0.583,3.879,0.968,5.651    C218.077,165.254,218.141,171.786,212.644,172.378z"/>
	</g>
	<g style="opacity:0.48;">
		<path style="fill:#E64949;" d="M264.19,255.628c-3.102,1.855-4.362,6.74-1.712,9.888c3.549,4.216,11.44,5.233,15.835,1.742    c3.711-2.947,2.928-9.89-0.243-11.765c-2.68-1.584-5.761-1.881-8.726-1.448C267.966,254.248,265.928,254.588,264.19,255.628z"/>
	</g>
	<g style="opacity:0.48;">
		<path style="fill:#E64949;" d="M199.338,239.416c1.905,3.088,0.778,8.057-3.028,9.676c-5.096,2.168-12.581-0.53-14.883-5.681    c-1.944-4.348,1.947-10.234,5.63-10.469c3.113-0.198,5.989,0.945,8.426,2.692C196.615,236.446,198.27,237.685,199.338,239.416z"/>
	</g>
	<g>
		<path style="fill:#AA312F;" d="M269.782,178.074c-1.229,1.343-2.377,2.666-3.454,3.876c-2.115,2.355-4.101,4.843-5.999,7.384    c-1.433,1.9-3.694,3.641-6.223,3.484c-3.183-0.174-5.574-2.715-6.633-5.571c-1.332-3.55-0.654-7.35,0.597-10.833    c0.338-0.947,0.739-1.855,1.174-2.76c0.37,0.053,0.732,0.118,1.094,0.184c6.698,1.201,12.988,2.554,18.841,4.075    C269.376,177.964,269.585,178.023,269.782,178.074z"/>
	</g>
	<g>
		<path style="fill:#AA312F;" d="M179.135,215.647c-3.428-0.117-6.66-1.912-9.394-4.168c0.098-0.309,0.196-0.618,0.307-0.938    c0.096-0.297,0.194-0.607,0.304-0.915c0.961-2.737,2.056-5.459,3.329-8.122C178.94,208.556,185.563,215.855,179.135,215.647z"/>
	</g>
	<g>
		<path style="fill:#AA312F;" d="M176.198,224.013c-2.444,0.862-5.818,0.381-8.923-0.487c0.076-0.756,0.165-1.522,0.269-2.3    c0.235-1.699,0.55-3.439,0.967-5.216c0.021-0.072,0.028-0.132,0.048-0.204C174.687,218.89,180.507,222.493,176.198,224.013z"/>
	</g>
	<g>
		<path style="fill:#AA312F;" d="M181.322,200.509c-1.789-0.628-3.502-2.123-5.021-3.904c0.049-0.105,0.111-0.209,0.172-0.313    c1.3-2.155,2.742-4.256,4.356-6.251C183.521,196.041,185.469,201.967,181.322,200.509z"/>
	</g>
	<g>
		<path style="fill:#AA312F;" d="M287.36,183.634c-3.171,2.563-6.309,5.216-8.351,5.236c-5.084,0.072-6.333-4.722-2.849-9.017    c3.031,0.904,5.931,1.85,8.693,2.85c0.377,0.127,0.733,0.259,1.09,0.391C286.429,183.271,286.895,183.453,287.36,183.634z"/>
	</g>
	<g>
		<path style="fill:#AA312F;" d="M247.175,173.295c-1.871,1.788-3.679,3.247-5.187,3.421c-4.077,0.483-6.565-2.782-5.161-4.805    c1.93,0.191,3.911,0.413,5.952,0.707c0.893,0.113,1.804,0.253,2.728,0.402c0.25,0.049,0.521,0.093,0.778,0.129    C246.589,173.196,246.884,173.256,247.175,173.295z"/>
	</g>
	<g style="opacity:0.48;">
		<path style="fill:#AA312F;" d="M176.114,246.738c0.635,1.679,1.267,3.355,1.978,4.993c0.344,0.822,0.709,1.634,1.105,2.423    c0.398,0.778,0.842,1.568,1.378,2.149l0.157,0.17l-0.054,0.25c-0.158,0.731-0.283,1.508-0.292,2.246    c-0.027,0.716,0.151,1.525,0.498,1.647c0.162,0.062,0.222,0.072,0.441-0.145c0.191-0.213,0.359-0.536,0.499-0.866    c0.279-0.67,0.465-1.437,0.609-2.165l0.436-2.198l0.622,2.14c0.229,0.788,0.515,1.592,0.844,2.351    c0.332,0.757,0.708,1.508,1.19,2.101c0.235,0.298,0.517,0.544,0.773,0.617c0.291,0.083,0.526,0.068,0.644-0.115    c0.321-0.44,0.302-1.409,0.179-2.158l-0.19-1.166l0.827,0.802c1.014,0.983,2.125,1.895,3.248,2.772    c1.129,0.876,2.325,1.665,3.614,2.31c-1.376-0.445-2.654-1.158-3.887-1.919c-1.228-0.778-2.377-1.654-3.498-2.6l0.637-0.364    c0.104,0.458,0.163,0.896,0.174,1.367c-0.006,0.465-0.023,0.973-0.354,1.494c-0.171,0.252-0.476,0.48-0.79,0.536    c-0.16,0.041-0.311,0.055-0.449,0.038c-0.144-0.002-0.285-0.019-0.425-0.072c-0.575-0.167-0.956-0.535-1.265-0.888    c-0.628-0.721-1.035-1.521-1.397-2.329c-0.36-0.812-0.66-1.625-0.919-2.483l1.058-0.058c-0.148,0.83-0.36,1.61-0.692,2.405    c-0.176,0.393-0.368,0.791-0.711,1.17c-0.101,0.092-0.197,0.185-0.309,0.27c-0.139,0.073-0.265,0.159-0.426,0.199    c-0.334,0.089-0.684,0.033-0.953-0.109c-0.566-0.285-0.807-0.852-0.912-1.292c-0.105-0.46-0.108-0.893-0.097-1.319    c0.046-0.849,0.183-1.646,0.411-2.453l0.102,0.42c-0.633-0.783-1.01-1.609-1.382-2.444c-0.358-0.836-0.677-1.681-0.974-2.532    C177.007,250.218,176.501,248.493,176.114,246.738z"/>
	</g>
	<g>
		<g>
			<g>
				<path style="fill:#FFFFFF;" d="M284.083,252.713c-6.244,2.663-15.108,2.196-20.859-1.474c-1.228-0.784-2.326-1.739-3.253-2.883      c-4.005-4.995-5.311-12.622-4.089-18.857c0.017-0.146,0.046-0.291,0.075-0.435c1.349-6.269,6.086-11.242,12.169-13.16      c7.12-2.24,16.917-1.528,21.852,4.697c1.946,2.46,3.245,5.597,3.863,8.962l0.012,0.001      C295.532,238.532,292.444,249.137,284.083,252.713z"/>
			</g>
			<g>
				<path style="fill:#AA312F;" d="M284.083,252.713c-3.531,1.503-7.441,1.924-11.255,1.665c-1.912-0.142-3.814-0.496-5.65-1.082      c-1.837-0.577-3.621-1.39-5.208-2.541c-1.593-1.146-2.895-2.688-3.9-4.359c-1.02-1.674-1.794-3.491-2.352-5.37      c-1.105-3.763-1.368-7.773-0.736-11.702l-0.011,0.069c0.783-4.696,3.396-8.854,7.164-11.628      c1.868-1.376,3.989-2.453,6.226-3.047c2.211-0.621,4.485-0.955,6.77-1c4.531-0.059,9.282,1.031,12.939,3.955      c1.834,1.439,3.225,3.362,4.209,5.389c1.003,2.036,1.637,4.217,1.991,6.424l-0.378-0.354l0.012,0.002l0.329,0.047l0.049,0.305      c0.363,2.266,0.422,4.567,0.197,6.833c-0.234,2.264-0.738,4.497-1.543,6.616c-0.809,2.117-1.962,4.101-3.436,5.813      C288.022,250.455,286.166,251.842,284.083,252.713z M284.083,252.713c2.074-0.893,3.909-2.297,5.362-4.012      c1.468-1.71,2.526-3.737,3.266-5.848c1.486-4.24,1.614-8.879,0.714-13.207l0.377,0.352l-0.012-0.001l-0.308-0.028l-0.07-0.326      c-0.451-2.11-1.169-4.161-2.208-6.019c-1.034-1.868-2.379-3.523-4.079-4.717c-3.406-2.408-7.746-3.285-11.941-3.111      c-4.218,0.167-8.438,1.248-11.778,3.694c-0.835,0.611-1.609,1.3-2.33,2.042c-0.693,0.765-1.361,1.559-1.925,2.427      c-0.559,0.868-1.073,1.774-1.456,2.738c-0.219,0.471-0.358,0.973-0.537,1.46c-0.121,0.481-0.3,1.039-0.367,1.448l-0.011,0.07      c-0.77,3.585-0.732,7.407,0.137,11.03c0.438,1.81,1.084,3.576,1.971,5.217c0.882,1.647,2.02,3.148,3.48,4.319      c2.933,2.349,6.705,3.572,10.475,3.966C276.627,254.606,280.539,254.155,284.083,252.713z"/>
			</g>
		</g>
		<g>
			<path style="fill:#AA312F;" d="M271.432,248.776c4.942,1.323,10.783,0.059,14.299-3.795c5.602-6.142,4.773-16.853-1.81-21.869     c-3.534-2.693-8.666-3.785-12.964-2.567c-11.487,3.255-12.573,20.069-3.333,26.496     C268.761,247.833,270.057,248.408,271.432,248.776z"/>
		</g>
		<g style="opacity:0.21;">
			<path style="fill:#AA312F;" d="M293.841,229.564c-20.911-13.074-36.105-1.587-37.96-0.065c0.017-0.146,0.046-0.291,0.075-0.435     c1.349-6.269,6.086-11.242,12.169-13.16c7.12-2.24,16.917-1.528,21.852,4.697C291.923,223.062,293.222,226.199,293.841,229.564z"/>
		</g>
	</g>
	<g>
		<g>
			<g>
				<path style="fill:#FFFFFF;" d="M211.84,232.074c-5.129,4.253-12.757,3.623-18.481,1.121c-0.784-0.355-1.531-0.77-2.22-1.251      c-8.36-5.798-8.845-20.416-1.967-27.812c0.692-0.771,1.486-1.456,2.349-2.055c7.58-5.208,20.86-3.06,26.002,4.763      c1.231,1.904,1.57,4.291,1.602,6.511c0.027,1.518-0.098,3.154-0.37,4.822C217.935,223.414,215.656,228.913,211.84,232.074z"/>
			</g>
			<g>
				<path style="fill:#AA312F;" d="M211.839,232.074c-1.811,1.501-4.03,2.475-6.348,2.883c-2.315,0.416-4.712,0.398-7.04-0.013      c-1.165-0.199-2.322-0.462-3.453-0.823c-1.13-0.35-2.259-0.769-3.314-1.365c-2.078-1.229-3.889-2.946-5.188-5.012      c-2.634-4.133-3.466-9.233-2.838-14.087c0.348-2.431,1.06-4.842,2.258-7.048l1.005-1.596c0.368-0.509,0.782-0.985,1.174-1.477      c0.803-0.968,1.79-1.837,2.841-2.546c4.319-2.831,9.599-3.403,14.4-2.507c4.789,0.922,9.458,3.374,12.28,7.449      c1.525,2.035,1.882,4.626,1.889,6.974c0.011,2.391-0.365,4.746-0.908,7.039c-0.548,2.295-1.352,4.529-2.45,6.61      C215.061,228.634,213.658,230.579,211.839,232.074z M211.839,232.074c3.594-3.092,5.524-7.663,6.419-12.203      c0.44-2.293,0.616-4.635,0.466-6.94c-0.16-2.285-0.657-4.595-2.113-6.269c-2.798-3.544-7.225-5.466-11.62-6.075      c-4.398-0.615-9.104,0.051-12.671,2.448c-0.899,0.592-1.707,1.276-2.411,2.106c-0.341,0.423-0.707,0.827-1.033,1.263      l-0.89,1.371c-1.087,1.901-1.84,4.022-2.233,6.218c-0.815,4.366-0.4,9.149,1.8,13.121c1.077,1.99,2.646,3.687,4.527,4.978      c0.954,0.625,2.01,1.098,3.096,1.514c1.082,0.42,2.196,0.773,3.339,0.999c2.274,0.483,4.647,0.63,6.959,0.258      C207.785,234.489,210.007,233.551,211.839,232.074z"/>
			</g>
		</g>
		<g>
			<path style="fill:#AA312F;" d="M191.366,223.156c0.24,0.468,1.909,6.192,10.553,7.08c8.644,0.889,11.978-9.318,12.182-13.033     c0.204-3.715-0.994-12.059-10.732-13.38C193.631,202.502,187.241,215.104,191.366,223.156z"/>
		</g>
		<g style="opacity:0.21;">
			<path style="fill:#AA312F;" d="M218.754,218.173c-7.788-10.301-22-13.22-29.583-14.041c0.692-0.771,1.486-1.456,2.349-2.055     c7.58-5.208,20.86-3.06,26.002,4.763c1.231,1.904,1.57,4.291,1.602,6.511C219.151,214.868,219.026,216.505,218.754,218.173z"/>
		</g>
	</g>
	<g>
		<path style="fill:#AA312F;" d="M330.135,225.629c-22.168,9.105-27.043-5.563-18.341-6.767c5.83-0.812,11.428-3.217,15.122-4.858    C328.667,217.711,329.744,221.586,330.135,225.629z"/>
	</g>
	<g>
		<path style="fill:#AA312F;" d="M329.672,243.436l-0.01,0.085c-0.096,0.396-0.165,0.783-0.247,1.168    c-7.924,1.949-17.349,2.379-24.165-1.686c-2.571-1.534-4.558-4.491-3.255-7.09c0.528-1.036,1.536-1.856,2.697-2.399    c3.434-1.622,7.839-1.429,11.694-1.373c4.385,0.055,9.759-1.18,14.005-2.473C330.563,234.436,330.333,239.047,329.672,243.436z"/>
	</g>
	<g>
		<path style="fill:#AA312F;" d="M328.288,250.12c-1.355,5.059-3.396,9.755-6.176,14.019c-5.282,0.234-10.701-1.632-14.844-4.817    c-1.844-1.424-3.374-3.539-2.573-5.962c1.053-3.207,5.486-3.035,8.144-2.663C320.047,251.711,325.415,250.845,328.288,250.12z"/>
	</g>
	<g>
		<g>
			<path style="fill:#AA312F;" d="M165.227,243.487c3.351-0.782,6.736-1.235,10.13-1.608c3.397-0.34,6.803-0.597,10.244-0.523     c-3.351,0.785-6.736,1.238-10.13,1.608C172.073,243.302,168.668,243.559,165.227,243.487z"/>
		</g>
		<g>
			<path style="fill:#AA312F;" d="M164.589,234.994c3.324,0.027,6.604,0.382,9.872,0.817c3.264,0.468,6.516,1.018,9.722,1.898     c-3.324-0.025-6.604-0.38-9.872-0.817C171.047,236.422,167.796,235.872,164.589,234.994z"/>
		</g>
		<g>
			<path style="fill:#AA312F;" d="M168.36,225.115c2.974,1.486,5.763,3.247,8.507,5.074c2.726,1.855,5.404,3.779,7.897,5.98     c-2.975-1.484-5.764-3.245-8.507-5.075C173.533,229.237,170.854,227.313,168.36,225.115z"/>
		</g>
	</g>
	<g>
		<path style="fill:#FFFFFF;" d="M302.901,186.628c0,0-2.342-0.434-2.911-1.055c-0.581-0.623,3.068-0.283,3.068-0.283    c-1.722-0.99-2.958-3.293-2.333-3.257c0.638,0.025,2.571,1.854,2.571,1.854c-1.826-3.482,0.312-8.166,2.721-7.564    c1.031,0.256,1.891,2.712,2.536,5.427c-2.677,8.458,1.776,15.429,2.632,16.343c-3.459-3.969-7.868-6.988-11.515-9.029    C300.482,187.382,302.901,186.628,302.901,186.628z"/>
	</g>
	<g>
		<path style="fill:#FFFFFF;" d="M212.644,172.378c0.569-1.919,2.943-4.393,3.152-4.603c-0.165,0.042-1.929,0.565-2.656,0.035    c-0.761-0.558,2.167-1.338,2.167-1.338s-2.174-0.081-2.269-0.746c-0.108-0.654,2.062-0.228,2.062-0.228    c-1.436-1.117-3.745-5.642-1.693-6.525c1.337-0.572,2.85,0.949,3.752,2.091c0.917,4.19,2.569,7.689,7.681,10.173    C224.841,171.236,218.141,171.786,212.644,172.378z"/>
	</g>
	<g>
		<g>
			<path style="fill:#AA312F;" d="M233.909,227.598c0,0-2.387-4.496-4.141-4.098c-1.754,0.398,1.83,7.2,3.532,8.101     c1.702,0.902,6.901-4.574,6.16-5.965C238.72,224.244,233.909,227.598,233.909,227.598z"/>
		</g>
		<g>
			<path style="fill:#AA312F;" d="M234.771,254.334c-0.258-1.934-0.437-3.874-0.648-5.813l-0.488-5.827     c-0.163-1.943-0.259-3.89-0.364-5.839c-0.074-1.955-0.157-3.893-0.086-5.89l1.034,0.27c-1.643,3.386-3.205,6.825-4.742,10.268     c-0.762,1.725-1.508,3.458-2.198,5.213c-0.722,1.744-1.374,3.514-1.983,5.307c0.373-1.858,0.929-3.675,1.487-5.487     c0.588-1.803,1.255-3.578,1.927-5.35c1.36-3.541,2.898-7.001,4.531-10.428l1.142-2.396l-0.108,2.665     c-0.077,1.897-0.014,3.854,0.036,5.791l0.171,5.832l0.182,5.838C234.69,250.437,234.762,252.384,234.771,254.334z"/>
		</g>
		<g style="opacity:0.48;">
			<path style="fill:#AA312F;" d="M225.162,230.599c-3.16,0.108-6.427,1.409-8.733,3.984c-3.342,3.732-4.863,8.94-2.399,13.409     c1.529,2.774,4.084,4.621,6.754,5.962c5.115,2.569,10.378,4.76,16.224,4.309c2.12-0.164,4.274-0.642,6.196-1.774     c2.945-1.734,5.182-5.019,5.864-8.612c0.681-3.593-0.21-7.41-2.336-10.004c-2.615-3.193-7.118-4.93-10.943-5.636     C232.382,231.609,228.637,230.481,225.162,230.599z"/>
		</g>
	</g>
	<g>
		<g>
			<path style="fill:#AA312F;" d="M279.671,267.65c3.364,0.722,6.62,1.757,9.848,2.868c3.217,1.142,6.407,2.363,9.487,3.899     c-3.365-0.72-6.62-1.755-9.848-2.869C285.942,270.404,282.752,269.183,279.671,267.65z"/>
		</g>
		<g>
			<path style="fill:#AA312F;" d="M301.584,266.299c-3.322,0.116-6.614-0.098-9.898-0.392c-3.28-0.327-6.553-0.737-9.794-1.479     c3.323-0.118,6.614,0.096,9.898,0.393C295.07,265.15,298.343,265.56,301.584,266.299z"/>
		</g>
		<g>
			<path style="fill:#AA312F;" d="M300.19,255.817c-2.934,1.565-5.983,2.82-9.062,4c-3.09,1.149-6.21,2.22-9.447,2.979     c2.932-1.567,5.983-2.822,9.062-4C293.834,257.649,296.953,256.579,300.19,255.817z"/>
		</g>
	</g>
	<g style="opacity:0.48;">
		<path style="fill:#AA312F;" d="M262.322,284.435c1.607-0.527,3.218-1.029,4.807-1.593c1.591-0.552,3.183-1.104,4.709-1.775    l0.982-0.431l-0.485,0.989c-0.204,0.416-0.385,0.883-0.49,1.326c-0.114,0.433-0.109,0.923,0.028,1.062    c0.042,0.064,0.197,0.129,0.312,0.128c0.076,0.006,0.243-0.056,0.405-0.177c0.331-0.241,0.649-0.606,0.938-0.984    c0.574-0.772,1.092-1.622,1.554-2.497c0.455-0.869,0.903-1.795,1.203-2.672l0.593-1.731l0.456,1.765    c0.186,0.721,0.446,1.472,0.78,2.126c0.331,0.653,0.816,1.247,1.229,1.162c0.48-0.026,1.041-0.611,1.432-1.226    c0.401-0.627,0.744-1.343,1.018-2.046l0.12-0.308l0.305,0.016c1.785,0.093,3.638-0.044,5.429-0.365    c0.904-0.14,1.797-0.347,2.677-0.607c0.885-0.251,1.737-0.597,2.59-0.959c-1.581,0.967-3.348,1.633-5.156,2.097    c-1.824,0.432-3.673,0.675-5.583,0.681l0.424-0.291c-0.253,0.807-0.57,1.561-1.014,2.293c-0.223,0.364-0.476,0.72-0.807,1.044    c-0.325,0.317-0.764,0.629-1.337,0.697c-0.275,0.032-0.583-0.007-0.852-0.13c-0.262-0.12-0.467-0.286-0.639-0.458    c-0.341-0.348-0.573-0.726-0.779-1.106c-0.4-0.769-0.673-1.537-0.896-2.362l1.049,0.034c-0.356,1.038-0.816,1.93-1.302,2.848    c-0.497,0.905-1.023,1.796-1.687,2.626c-0.338,0.412-0.693,0.818-1.191,1.163c-0.25,0.162-0.563,0.339-0.998,0.326    c-0.386-0.027-0.739-0.172-1.014-0.51c-0.469-0.717-0.257-1.353-0.133-1.868c0.16-0.533,0.376-1.004,0.642-1.482l0.497,0.558    c-1.606,0.594-3.227,1.087-4.866,1.517C265.629,283.726,263.987,284.128,262.322,284.435z"/>
	</g>
	<g style="opacity:0.48;">
		<g>
			<path style="fill:#AA312F;" d="M283.586,407.816c-2.068-2.046-3.897-4.255-5.927-5.973l0.206,0.138l-0.11-0.085l-0.209-0.141     c-0.677-0.593-1.557-1.043-1.972-0.998c-0.188,0.021-0.343,0.119-0.428,0.275c-0.114,0.186-0.164,0.591-0.123,1.017     c0.069,0.881,0.358,1.848,0.661,2.807l1.019,2.937c-0.773-0.75-1.443-1.552-2.022-2.452c-0.582-0.9-1.085-1.863-1.37-3.021     c-0.107-0.587-0.194-1.255,0.085-2.032c0.289-0.818,1.098-1.394,1.931-1.499c1.703-0.122,2.66,0.789,3.514,1.495l-0.209-0.141     l0.108,0.09l0.207,0.139c1.123,1.059,1.997,2.25,2.773,3.49C282.466,405.119,283.129,406.417,283.586,407.816z"/>
		</g>
	</g>
	<g style="opacity:0.2;">
		<path style="fill:#AA312F;" d="M281.349,376.883c-62.042-1.272-114.833-25.102-133.467-34.573    c4.692-7.366,9.032-12.562,11.137-14.908l120.511,30.144C279.53,357.546,281.196,366.162,281.349,376.883z"/>
	</g>
	<g style="opacity:0.48;">
		<g>
			<path style="fill:#AA312F;" d="M276.725,407.806c-1.401-0.88-2.859-1.669-4.362-2.362c-1.231-0.568-2.496-1.072-3.813-1.394     c-1.245-0.305-2.643-0.422-3.732,0.254c-0.287,0.178-0.552,0.42-0.671,0.736c-0.142,0.375-0.059,0.806,0.13,1.161     c0.276,0.519,0.75,0.987,1.213,1.342l0.785,0.602c-0.374,0.006-0.749,0.013-1.123,0.02c0.045-0.007,0.09-0.018,0.133-0.032     c-0.085,0.027-0.17,0.04-0.257,0.054c-0.862,0.143-1.723,0.289-2.58,0.453c-6.613,1.268-13.202,3.4-19.119,6.648     c-3.644,2-7.01,4.495-9.842,7.546c-2.651,2.856-4.612,6.206-6.056,9.838c-2.733,7.335-4.044,15.212-4.752,23.079     c-0.714,7.876-0.87,15.84-0.632,23.726l0.033,1.097c-0.46-0.028-0.93-0.027-1.384-0.109c-3.442-0.965-6.229-2.953-8.547-5.651     c-0.527-0.614-1.026-1.251-1.502-1.905c-1.2-1.628-2.133-3.43-3.06-5.222c-0.94-1.818-1.973-3.584-3.1-5.306     c-2.18-3.354-4.643-6.537-7.439-9.373c-2.701-2.739-5.847-5.448-9.572-6.673c-2.486-0.818-5.749-0.931-7.784,1.002     c-2.165,2.057-1.023,5.713-0.163,8.096c0.675,1.869,1.568,3.676,2.5,5.46c1.829,3.498,3.939,6.839,6.06,10.167     c2.144,3.364,4.29,6.738,6.076,10.31c0.071,0.143,0.142,0.286,0.212,0.429c-0.859-1.756-2.011-3.422-3.075-5.058     c-1.088-1.673-2.215-3.32-3.344-4.966c-2.256-3.288-4.525-6.574-6.506-10.038c-1.095-1.916-2.149-3.854-2.941-5.92     c-1.139-2.972-2.125-6.573,0.161-9.269c2.246-2.446,6.001-2.537,8.994-1.691c2.126,0.601,4.056,1.668,5.858,2.927     c1.712,1.193,3.288,2.549,4.742,4.014c2.92,2.922,5.466,6.168,7.728,9.595c1.134,1.718,2.17,3.499,3.152,5.308     c0.946,1.743,1.846,3.51,3.033,5.106c2.14,2.949,5.17,5.93,8.863,6.707c0.037,0.008,0.073,0.015,0.11,0.022     c-0.397,0.306-0.758,0.658-1.076,1.046c-0.163-4.301-0.194-8.6-0.041-12.903c0.132-3.71,0.383-7.415,0.736-11.11     c0.777-7.963,2.146-15.952,5.033-23.541c1.498-3.769,3.684-7.361,6.536-10.274c2.825-2.945,6.158-5.336,9.698-7.269     c5.883-3.211,12.454-5.292,19.07-6.435c1.176-0.203,2.422-0.386,3.631-0.534c0.053-0.006,0.106-0.014,0.159-0.019     c0.04-0.003,0.372,0.001,0.381-0.025c-0.069,0.205-0.138,0.411-0.207,0.616c0.012-0.035-0.141-0.146-0.163-0.165     c-0.18-0.158-0.353-0.319-0.516-0.494c-0.555-0.596-1.028-1.388-0.884-2.234c0.018-0.104,0.045-0.206,0.083-0.305     c0.139-0.363,0.409-0.664,0.722-0.894c0.578-0.424,1.301-0.62,2.017-0.648c0.716-0.028,1.43,0.104,2.123,0.285     C271.458,404.415,274.138,406.095,276.725,407.806z"/>
		</g>
	</g>
	<g style="opacity:0.48;">
		<path style="fill:#AA312F;" d="M178.984,455.564c0.512-1.587,2.106-2.416,3.669-2.632c7.112-0.984,11.774,5.857,15.124,11.026    c3.493,5.391,6.494,11.116,9.156,16.959c2.592,5.69,4.94,11.577,6.431,17.66c0.839,3.426,2.163,8.49,0.158,11.786    c-3.476,5.561-11.495-10.198-18.65-24.878c-4.577-9.391-8.713-17.244-11.51-21.372    C178.505,457.105,178.979,455.58,178.984,455.564z"/>
	</g>
	<g style="opacity:0.48;">
		<g>
			<path style="fill:#AA312F;" d="M304.477,371.173c0.766,12.75,1.086,25.525,0.748,38.319c-0.086,3.199-0.223,6.401-0.532,9.603     c-0.308,3.225-0.672,6.313-0.709,9.478c-0.059,3.142,0.091,6.291,0.659,9.336c0.588,3.014,1.537,6.036,3.415,8.319     c0.865,1.202,2.044,2.088,3.296,2.803c0.659,0.305,1.308,0.635,2.033,0.789c0.736,0.218,1.345,0.367,2.025,0.285     c2.758-0.226,5.382-2.253,7.609-4.314c4.481-4.334,7.926-9.735,11.026-15.23c3.071-5.54,5.609-11.386,7.714-17.382     c2.183-5.976,3.798-12.152,5.082-18.406c-1.705,12.658-5.536,25.083-11.42,36.523c-2.944,5.712-6.48,11.192-11.124,15.826     c-1.184,1.136-2.456,2.204-3.878,3.112c-1.419,0.891-3.029,1.657-4.876,1.804c-3.702,0.002-6.918-1.818-9.075-4.552     c-2.166-2.716-3.128-6.022-3.729-9.227c-0.571-3.237-0.69-6.5-0.599-9.732c0.066-3.221,0.48-6.478,0.808-9.601     c0.311-3.151,0.537-6.323,0.723-9.5c0.357-6.356,0.515-12.732,0.611-19.109C304.435,383.94,304.437,377.559,304.477,371.173z"/>
		</g>
	</g>
	<g>
		<path style="fill:#AA312F;" d="M307.613,444.66c1.187-1.476,2.217-2.972,3.183-4.501c0.943-1.54,1.838-3.092,2.6-4.716    c0.761-1.621,1.492-3.265,2.099-4.975l1.839-5.238c0.17,1.886,0.075,3.802-0.315,5.665c-0.321,1.885-1.015,3.683-1.798,5.429    c-0.851,1.717-1.894,3.345-3.163,4.78C310.797,442.535,309.338,443.832,307.613,444.66z"/>
	</g>
	<g>
		<path style="fill:#AA312F;" d="M317.334,450.999c1.868-3.932,3.943-7.623,5.748-11.429c0.941-1.883,1.764-3.808,2.478-5.761    c0.683-1.964,1.294-3.956,1.343-6.143c0.801,2.075,0.622,4.422,0.182,6.566c-0.441,2.177-1.233,4.247-2.176,6.216    c-0.971,1.958-2.054,3.852-3.328,5.613C320.32,447.829,318.945,449.518,317.334,450.999z"/>
	</g>
	<g>
		<path style="fill:#FFC48F;" d="M137.288,258.322c0,0-15.475,4.348-17.075,26.78c-1.601,22.432,10.139,41.108,39.487,54.982    c29.348,13.874,72.388,32.831,134.911,31.09c62.523-1.741,76.007-15.615,84.473-27.889c8.245-11.954,10.768-46.434-5.84-53.19    c-4.646-1.89-9.903-0.418-14.694,1.067c-26.065,8.077-51.44,18.005-78.884,20.256c-19.974,1.638-40.253-0.193-59.408-6.206    c-12.968-4.071-25.443-9.557-37.656-15.487c-13.285-6.45-27.501-14.109-38.176-24.641    C143.467,264.137,138.706,257.921,137.288,258.322z"/>
	</g>
	<g>
		<path style="fill:#FF993D;" d="M367.742,296.061c-3.386-0.444-6.464,2.311-8.697,4.593c-3.387,3.461-5.274,8.107-6.193,12.8    c-1.933,9.871-0.142,21.209,4.772,29.982c1.042,1.86,2.331,3.702,4.234,4.663c7.967,4.023,13.847-11.303,15.343-16.59    c2.747-9.709,4.246-31.599-8.64-35.278C368.286,296.153,368.013,296.096,367.742,296.061z"/>
	</g>
	<g>
		<path style="fill:#AA312F;" d="M198.434,453.185c-1.615,0.285-2.941,0.331-3.961,0.693c-0.507,0.162-0.892,0.417-1.319,0.808    c-0.446,0.389-0.784,0.984-1.308,1.66c-0.312-0.757-0.408-1.644-0.04-2.488c0.312-0.859,1.119-1.588,2.002-1.894    c0.891-0.278,1.777-0.264,2.566-0.035C197.159,452.151,197.884,452.541,198.434,453.185z"/>
	</g>
	<g style="opacity:0.48;">
		<g>
			<path style="fill:#AA312F;" d="M172.48,388.926c1.577,0.182,3.07,0.758,4.458,1.49c1.401,0.724,2.683,1.665,3.849,2.731     c2.308,2.142,4.129,4.905,4.814,7.983l-3.065-3.381c-1.008-1.086-2.039-2.13-3.126-3.114     C177.271,392.612,174.963,390.828,172.48,388.926z"/>
		</g>
	</g>
	<g style="opacity:0.48;">
		<g>
			<path style="fill:#AA312F;" d="M172.48,397.101c0.811-1.312,1.906-2.402,3.097-3.35c1.191-0.958,2.526-1.725,3.923-2.363     c1.406-0.616,2.902-1.054,4.432-1.245c1.52-0.234,3.096-0.123,4.573,0.249c-1.474,0.474-2.867,0.796-4.22,1.294     c-1.348,0.48-2.681,0.956-3.971,1.558C177.694,394.369,175.199,395.727,172.48,397.101z"/>
		</g>
	</g>
	<g>
		<path style="fill:#AA312F;" d="M349.026,384.249c0,0-12.93,0-12.935,0c-2.119,0-5.297-0.162-5.985-2.718    c-0.686-2.548,1.827-4.308,3.815-5.196c4.121-1.842,8.879-2.741,13.439-2.894C347.93,376.685,348.522,380.325,349.026,384.249z"/>
	</g>
	<g>
		<path style="fill:#AA312F;" d="M340.235,467.074c-0.855,1.995-1.798,3.99-2.806,5.941c-1.074,2.105-2.236,4.165-3.486,6.204    c-0.241,0.395-0.482,0.789-0.745,1.184c-0.219-0.11-0.438-0.219-0.636-0.329c-4.428-2.455-8.309-5.744-12.496-8.572    c-1.863-1.271-3.968-2.938-3.88-5.218c0.285-8.791,16.881-2.609,20.783-0.723C337.758,465.956,338.919,466.46,340.235,467.074z"/>
	</g>
	<g>
		<path style="fill:#AA312F;" d="M316.711,498.161c-3.135,2.258-6.38,4.078-9.69,5.568c-0.176-0.153-0.329-0.329-0.482-0.482    c-3.135-3.42-5.13-7.783-6.358-12.255c-0.482-1.732-0.855-3.573-0.351-5.305c0.526-1.71,2.171-3.223,3.946-2.982    c0.899,0.132,1.688,0.658,2.39,1.228C310.398,487.243,314.629,492.855,316.711,498.161z"/>
	</g>
	<g>
		<path style="fill:#AA312F;" d="M290.272,508.355c-5.437,0.745-10.852,0.789-16.048,0.395c0.943-1.162,1.82-2.346,2.543-3.639    c2.061-3.705,2.587-8.068,3.42-12.233c0.241-1.162,0.526-2.324,1.14-3.332c0.592-1.03,1.622-1.863,2.806-1.951    c1.82-0.175,3.354,1.403,4.209,3.025c1.096,2.127,1.557,4.494,1.841,6.862C290.623,501.077,290.667,504.738,290.272,508.355z"/>
	</g>
	<g>
		<path style="fill:#AA312F;" d="M260.194,506.623c-3.661-0.811-7.059-1.776-10.106-2.74c1.074-1.973,2.061-4.034,3.069-6.073    c0.921-1.907,2.499-10.37,6.204-7.892c0.702,0.461,1.14,1.272,1.425,2.083C262.386,496.319,261.706,501.734,260.194,506.623z"/>
	</g>
	<g style="opacity:0.9;">
		<path style="fill:#E64949;" d="M226.072,47.196c-5.508,6.54-10.008,14.203-9.917,22.064c0.059,5.144,2.52,10.21,6.525,13.438    c8.874,7.15,18.775,2.99,26.348-3.813c3.865-3.472,7.218-7.473,10.456-11.523c4.847-6.063,12.134-9.607,14.747-17.407    c2.572-7.68-0.202-16.739-7.179-21.108c-10.721-6.714-22.978,0.992-31.075,8.28C232.803,39.985,229.268,43.402,226.072,47.196z"/>
	</g>
	<g style="opacity:0.48;">
		<g>
			<path style="fill:#AA312F;" d="M205.525,96.582c-0.445,1.841-0.576,3.805-0.061,5.564c0.292,0.866,0.805,1.614,1.483,2.157     c0.737,0.458,1.548,0.824,2.459,0.867c0.438,0.077,0.887,0.097,1.346,0.067c0.45-0.009,0.886-0.023,1.465-0.008     c1.095,0.024,2.23,0.639,2.87,1.532c1.286,1.8,1.505,3.854,1.714,5.779c0.352,3.902-0.023,7.73-0.157,11.519     c-0.078,1.893-0.137,3.781-0.048,5.624c0.052,0.915,0.129,1.832,0.327,2.666c0.181,0.828,0.505,1.619,0.928,1.955     c0.191,0.203,0.429,0.245,0.687,0.305c0.194-0.023,0.266-0.02,0.43-0.192c0.332-0.413,0.553-1.322,0.654-2.177     c0.2-1.771,0.126-3.665,0.022-5.539c-0.204-3.767-0.737-7.546-0.867-11.4c-0.041-0.963-0.051-1.935-0.018-2.917     c0.061-0.988,0.072-1.969,0.551-3.063c0.598-1.365,2.201-1.456,3.152-1.206c1.016,0.254,1.899,0.653,2.773,1.036     c1.697,0.756,3.497,1.576,5.237,1.042c1.746-0.537,2.792-2.359,3.59-4.037c-0.608,1.742-1.444,3.747-3.407,4.542     c-1.979,0.771-4.035-0.014-5.795-0.627c-0.891-0.327-1.772-0.673-2.619-0.837c-0.814-0.171-1.637,0.066-1.768,0.622     c-0.271,0.67-0.3,1.651-0.294,2.552c0.014,0.923,0.068,1.857,0.154,2.795c0.369,3.752,0.845,7.536,1.152,11.374     c0.134,1.925,0.254,3.855,0.062,5.879c-0.144,1.012-0.228,2.072-1.039,3.21c-0.439,0.589-1.308,0.988-2.068,0.946     c-0.671-0.063-1.407-0.292-1.901-0.766c-1.028-0.936-1.316-2.074-1.55-3.075c-0.222-1.026-0.284-2.019-0.325-3.004     c-0.063-1.966,0.031-3.89,0.14-5.803c0.229-3.817,0.547-7.607,0.447-11.323c-0.085-1.823-0.283-3.754-1.19-5.125     c-0.451-0.672-1.118-1.082-1.932-1.157c-0.373-0.031-0.89-0.046-1.393-0.058c-0.497,0.003-0.996-0.029-1.494-0.16     c-1-0.132-1.962-0.628-2.775-1.251c-0.767-0.712-1.276-1.635-1.518-2.604C204.528,100.333,204.877,98.368,205.525,96.582z"/>
		</g>
	</g>
	<g style="opacity:0.48;">
		<g>
			<path style="fill:#AA312F;" d="M275.979,37.392c-0.939,0.414-1.43,1.402-1.471,2.35c-0.072,0.958,0.231,1.928,0.769,2.682     c1.181,1.485,3.234,1.913,5.13,1.954c1.929,0.079,3.947-0.21,6.049,0.091c1.045,0.143,2.119,0.47,3.071,1.063     c0.958,0.589,1.72,1.432,2.316,2.331c1.198,1.825,1.752,3.858,2.202,5.838c0.446,1.997,0.718,4.011,0.942,6.008     c0.446,3.99,0.703,7.956,1.698,11.692c0.502,1.829,1.034,3.885,2.159,4.813c0.523,0.429,1.08,0.437,1.548,0.072     c0.489-0.381,0.857-1.227,1.043-2.075c0.658-3.698,0.239-7.707-0.239-11.607c-0.51-3.926-1.265-7.889-1.461-11.926     c-0.136-4.011,0.221-8.177,1.952-11.815c-1.294,3.798-1.419,7.826-0.961,11.741c0.389,3.935,1.303,7.802,2.011,11.761     c0.719,3.965,1.147,8.019,0.503,12.228c-0.247,1.071-0.591,2.224-1.647,3.153c-0.522,0.462-1.282,0.727-2.002,0.715     c-0.741-0.005-1.447-0.325-1.95-0.727c-1.014-0.827-1.543-1.852-1.959-2.871c-0.369-0.972-0.697-1.957-0.959-2.955     c-0.998-4.015-1.185-8.069-1.569-12.008c-0.19-1.972-0.425-3.924-0.82-5.83c-0.42-1.896-0.871-3.802-1.806-5.381     c-0.906-1.61-2.41-2.654-4.282-2.963c-1.853-0.368-3.853-0.173-5.905-0.363c-1.996-0.201-4.259-0.807-5.506-2.639     c-0.549-0.912-0.79-1.987-0.629-3.016C274.35,38.689,275.002,37.701,275.979,37.392z"/>
		</g>
	</g>
	<g style="opacity:0.2;">
		<g>
			<path style="fill:#AA312F;" d="M131.975,314.731c-1.231-2.187-1.661-4.636-1.726-7.06c-0.004-2.425,0.361-4.885,1.538-7.104     c0.414,2.466,0.43,4.756,0.489,7.077C132.273,309.965,132.318,312.256,131.975,314.731z"/>
		</g>
	</g>
	<g style="opacity:0.2;">
		<g>
			<path style="fill:#AA312F;" d="M139.055,320.536c-1.142-1.457-1.606-3.131-1.831-4.815c-0.163-1.69-0.088-3.426,0.701-5.103     c0.819,1.656,1.098,3.252,1.312,4.874C139.389,317.12,139.476,318.739,139.055,320.536z"/>
		</g>
	</g>
	<g style="opacity:0.2;">
		<g>
			<path style="fill:#AA312F;" d="M147.72,326.95c-1.602-1.657-2.483-3.762-2.994-5.915c-0.453-2.166-0.548-4.446,0.206-6.626     c0.857,2.129,1.291,4.145,1.773,6.186C147.128,322.65,147.59,324.661,147.72,326.95z"/>
		</g>
	</g>
	<g style="opacity:0.2;">
		<g>
			<path style="fill:#AA312F;" d="M155.22,331.6c-1.694-1.879-2.665-4.192-3.274-6.561c-0.55-2.384-0.747-4.885-0.099-7.332     c0.957,2.332,1.488,4.584,2.068,6.854C154.437,326.846,154.998,329.091,155.22,331.6z"/>
		</g>
	</g>
	<g style="opacity:0.9;">
		<path style="fill:#E64949;" d="M269.784,122.064c0.129,7.852,6.745,12.399,12.078,17.078c5.992,5.257,7.488,13.133,13.087,18.312    c10.998,10.174,26.951-5.33,29.036-16.316c2.89-15.23-4.179-36.821-20.198-42.079c-13.808-4.531-31.759,5.809-33.832,20.378    C269.825,120.357,269.77,121.23,269.784,122.064z"/>
	</g>
	<g>
		<circle style="fill:#FF993D;" cx="245.665" cy="120.998" r="2.686"/>
	</g>
	<g>
		<path style="fill:#FF993D;" d="M251.131,112.538c0,0.508-0.412,0.919-0.919,0.919c-0.508,0-0.919-0.412-0.919-0.919    c0-0.508,0.412-0.919,0.919-0.919C250.72,111.619,251.131,112.031,251.131,112.538z"/>
	</g>
	<g>
		<circle style="fill:#FF993D;" cx="271.164" cy="60.637" r="4.288"/>
	</g>
	<g>
		<path style="fill:#FF993D;" d="M260.02,67.344c0,0.485-0.393,0.878-0.878,0.878s-0.878-0.393-0.878-0.878    c0-0.485,0.393-0.878,0.878-0.878S260.02,66.859,260.02,67.344z"/>
	</g>
	<g>
		<path style="fill:#FF993D;" d="M288.535,170.075c0,2.512-2.036,4.549-4.549,4.549c-2.512,0-4.549-2.036-4.549-4.549    s2.037-4.549,4.549-4.549C286.499,165.526,288.535,167.563,288.535,170.075z"/>
	</g>
</g>















</svg>
