<?xml version="1.0" encoding="UTF-8"?>
<!-- Generator: Adobe Illustrator 25.2.3, SVG Export Plug-In . SVG Version: 6.00 Build 0)  -->
<svg xmlns="http://www.w3.org/2000/svg" xmlns:xlink="http://www.w3.org/1999/xlink" version="1.1" id="Capa_1" x="0px" y="0px" viewBox="0 0 512 512" style="enable-background:new 0 0 512 512;" xml:space="preserve" width="512" height="512">
<g>
	<ellipse style="fill:#FB5555;" cx="259.48" cy="354.086" rx="250.49" ry="83.551"/>
	<ellipse style="fill:#FB5555;" cx="113.507" cy="437.637" rx="55.698" ry="24.319"/>
	<ellipse style="fill:#FB5555;" cx="187.991" cy="458.396" rx="14.777" ry="6.452"/>
	<g>
		<g>
			<g>
				<g>
					<path style="fill:#FF983D;" d="M97.35,261.265l-7.107,22.277c0,0-15.731,3.708-33.906,2.191       c-8.54-0.73-17.641-2.584-25.872-6.545c-6.77-3.23-12.978-7.866-17.838-14.383C-2.15,245-3.358,217.976,5.884,195.588       c1.742-4.186,3.849-8.062,6.236-11.742c4.551-6.995,10.029-13.287,15.591-19.664c0.253-0.281,0.478-0.534,0.731-0.815       c8.793-10.029,22.782-27.221,16.49-41.575c-0.787-1.826-1.882-3.483-3.175-5c-3.343-3.933-7.978-6.967-12.079-9.804       c-3.006-2.107-6.827-3.259-9.073-6.321C12.149,89.065,33.835,88.644,39.706,89.88c0.871,0.196,1.742,0.393,2.613,0.674       c9.467,2.753,17.557,9.326,23.175,17.389c3.231,4.663,4.72,9.916,4.832,15.422c0.224,8.259-2.557,17.136-6.799,25.619       c-5.337,10.703-12.978,20.76-19.861,28.175c-7.584,8.175-17.332,23.232-21.855,38.485c-1.91,6.377-2.921,12.781-2.416,18.737       c0.702,9.804,5.337,18.428,16.293,23.709C69.258,274.244,97.35,261.265,97.35,261.265z"/>
				</g>
				<g style="opacity:0.2;">
					<path style="fill:#A9312F;" d="M97.35,261.265l-7.107,22.277c0,0-15.731,3.708-33.906,2.191       c-8.54-0.73-17.641-2.584-25.872-6.545c-6.77-3.23-12.978-7.866-17.838-14.383C-2.15,245-3.358,217.976,5.884,195.588       c1.742-4.186,3.849-8.062,6.236-11.742c4.551-6.995,10.029-13.287,15.591-19.664c0.253-0.281,0.478-0.534,0.731-0.815       c8.793-10.029,22.782-27.221,16.49-41.575c-0.787-1.826-1.882-3.483-3.175-5c-3.343-3.933-7.978-6.967-12.079-9.804       c-3.006-2.107-6.827-3.259-9.073-6.321C12.149,89.065,33.835,88.644,39.706,89.88c0.871,0.196,1.742,0.393,2.613,0.674       c9.467,2.753,17.557,9.326,23.175,17.389c3.231,4.663,4.72,9.916,4.832,15.422c0.224,8.259-2.557,17.136-6.799,25.619       c-5.337,10.703-12.978,20.76-19.861,28.175c-7.584,8.175-17.332,23.232-21.855,38.485c-1.91,6.377-2.921,12.781-2.416,18.737       c0.702,9.804,5.337,18.428,16.293,23.709C69.258,274.244,97.35,261.265,97.35,261.265z"/>
				</g>
			</g>
			<g>
				<path style="fill:#A9312F;" d="M41.757,116.791c1.938-4.831,6.068-17.473,0.562-26.237c0,0-14.46-8.45-22.924,1.818      c-5.72,6.939,5.768,12.587,8.956,14.931C28.351,107.303,37.44,113.453,41.757,116.791z"/>
			</g>
			<g>
				<path style="fill:#A9312F;" d="M70.326,123.365c0.525,8.771-2.557,17.136-6.799,25.619c-2.079-2.051-3.736-5.618-2.949-11.799      C61.562,129.404,66.309,125.387,70.326,123.365z"/>
			</g>
			<g>
				<path style="fill:#A9312F;" d="M24.593,183.93c-3.989,4.101-8.624,2.669-12.473-0.084c4.551-6.995,10.029-13.287,15.591-19.664      C29.172,168.845,30.886,177.497,24.593,183.93z"/>
			</g>
			<g>
				<path style="fill:#A9312F;" d="M19.396,234.382c-5.478-1.685-12.416-5.057-10.169-10.843c2.359-6.068,8.624-7.557,12.585-7.894      C20.129,222.512,18.891,228.426,19.396,234.382z"/>
			</g>
			<g>
				<path style="fill:#A9312F;" d="M56.337,285.733c-8.608,0-17.442-1.704-25.872-6.545c3.259-2.837,9.748-6.967,18.203-5.056      C54.736,275.479,56.308,280.733,56.337,285.733z"/>
			</g>
		</g>
		<g>
			<path style="fill:#FF983D;" d="M463.329,279.693l-0.197,0.843l-1.882,7.641l-0.309,1.292l-0.337,1.349l-1.292,5.253l-1.348,5.562     l-7.697,31.35l-1.686,6.939l-0.028,0.113v0.028l-3.849,15.647l-6.939,28.288l-2.95,12.079c0,0-21.967,6.04-24.131,16.855     c0,0.028-0.028,0.084-0.028,0.112c-0.056,0.281-0.14,0.562-0.225,0.871c0,0.028,0,0.028,0,0.028     c-1.573,4.972-7.585,11.63-18.456,17.276c-5.506,2.837-12.276,5.45-20.366,7.416c-11.209,2.753-24.917,4.326-41.294,3.792     c-4.017-0.14-7.978-0.478-11.883-1.039c-3.399-0.45-6.77-1.068-10.057-1.826c-6.911-1.517-13.596-3.596-19.945-6.04     c-1.264-0.478-2.5-0.983-3.708-1.489c-5.899-2.416-11.489-5.113-16.658-7.893c-8.456-4.523-15.9-9.326-22.024-13.681     c-11.18-7.922-18.007-14.355-18.541-14.86c0.056,0.168,0.281,0.73,0.534,1.573c0.225,0.758,0.478,1.714,0.646,2.781     c0.084,0.337,0.112,0.675,0.168,1.012c0.056,0.534,0.084,1.039,0.084,1.573c0.028,0.281,0.028,0.534,0,0.815     c0.028,0.084,0.028,0.197,0,0.309c-0.056,0.927-0.197,1.854-0.534,2.725c-0.028,0.084-0.056,0.197-0.084,0.281     c-1.208,2.978-4.27,5.141-11.181,4.242c-1.067-0.14-2.051-0.309-2.95-0.534c-14.046-3.315-10.787-15.591-55.087-27.895     c-40.508-11.237-69.92-50.874-70.088-95.567c0-0.646,0.028-1.32,0.028-1.994v-1.124c0.168-6.32,0.927-12.725,2.332-19.158     c0.084-0.449,0.197-0.899,0.309-1.348c2.051-8.821,5.506-18.091,10.338-27.389c24.158-46.604,82.196-94.134,164.869-91.129     c89.19,3.23,139.333,64.526,149.109,77.729c1.011,1.348,1.573,2.191,1.77,2.416v0.028c0.028,0.028,0.028,0.056,0.028,0.056     l10.197,12.248L463.329,279.693z"/>
		</g>
		<g style="opacity:0.48;">
			<path style="fill:#E54949;" d="M452.514,193.396c-7.95,12.22-19.439,21.518-31.715,29.58c-0.983,0.646-1.994,1.292-3.034,1.938     v0.028c-0.168,0.084-0.337,0.197-0.534,0.309c-1.517,0.955-3.034,1.91-4.551,2.809c-0.112,0.084-0.225,0.168-0.337,0.225     c-0.955,0.59-1.91,1.152-2.894,1.741c-8.399,4.944-17.052,9.58-26.041,13.4c-7.163,3.006-14.523,5.506-22.108,7.22     c-27.305,6.18-55.115,1.798-83.066-2.5c-17.332-2.697-34.721-5.365-52.081-5.478c-11.883-0.056-24.496,1.32-33.963,8.512     c-6.264,4.775-10.59,11.686-16.349,17.079c-5.787,5.394-14.327,9.242-21.518,6.012c-9.411-4.242-11.461-18.035-20.928-22.136     c-4.101-1.77-8.792-1.292-13.203-1.994c-7.725-1.236-14.355-6.714-17.894-13.681c-0.084-0.168-0.168-0.365-0.281-0.562     c24.158-46.604,82.196-94.134,164.869-91.129c89.19,3.23,139.333,64.526,149.109,77.729c1.039,0.084,2.051,0.169,3.034,0.281     l0.506-0.421c2.079-1.882,4.775-4.635,5.112-4.944c4.158-4.214,6.883-9.944,10.59-14.523     C439.564,197.526,445.632,193.508,452.514,193.396z"/>
		</g>
		<g style="opacity:0.2;">
			<path style="fill:#A9312F;" d="M463.329,280.783l-28.513,116.383c0,0-21.968,6.04-24.131,16.855     c-2.191,10.815-27.249,31.21-80.369,29.496c-4.017-0.141-7.978-0.478-11.883-1.039c-3.399-0.449-6.77-1.067-10.057-1.826     c-6.91-1.517-13.596-3.596-19.945-6.04c-1.264-0.478-2.5-0.983-3.708-1.489c-5.899-2.416-11.489-5.113-16.658-7.894     c-8.455-4.523-15.9-9.326-22.024-13.68c-11.18-7.922-18.007-14.355-18.54-14.86c0.365,0.955,6.742,17.529-10.366,15.31     c-17.613-2.276-10.871-15.338-58.037-28.429c-47.138-13.063-79.274-64.638-67.729-117.844     c11.546-53.177,75.51-123.49,175.515-119.866c100.005,3.624,151.435,79.611,151.435,79.611L463.329,280.783z"/>
		</g>
		<g>
			<g>
				<g>
					<path style="fill:#FF983D;" d="M421.479,386.461c-5.454,8.042-10.496,16.443-10.81,26.477       c-0.495,15.851,14.365,19.813,26.748,15.355c8.227-2.961,13.956-9.961,20.307-15.576c3.927-3.473,8.448-6.208,13.308-8.163       c4.874-1.961,10.374-2.35,14.955-4.928c4.556-2.564,8.54-6.295,12.001-10.172c7.726-8.657,13.797-19.975,14.007-31.799       c0.175-9.867-4.345-18.729-11.734-25.136c-20.063-17.397-45.562,10.948-57.342,25.346c-7.096,8.674-13.896,17.598-20.24,26.838       C422.278,385.288,421.877,385.874,421.479,386.461z"/>
				</g>
				<g style="opacity:0.3;">
					<path style="fill:#A9312F;" d="M421.479,386.461c-5.454,8.042-10.496,16.443-10.81,26.477       c-0.495,15.851,14.365,19.813,26.748,15.355c8.227-2.961,13.956-9.961,20.307-15.576c3.927-3.473,8.448-6.208,13.308-8.163       c4.874-1.961,10.374-2.35,14.955-4.928c4.556-2.564,8.54-6.295,12.001-10.172c7.726-8.657,13.797-19.975,14.007-31.799       c0.175-9.867-4.345-18.729-11.734-25.136c-20.063-17.397-45.562,10.948-57.342,25.346c-7.096,8.674-13.896,17.598-20.24,26.838       C422.278,385.288,421.877,385.874,421.479,386.461z"/>
				</g>
			</g>
			<g>
				<path style="fill:#A9312F;" d="M426.257,429.494c-0.578-1.84-0.639-3.781-0.438-5.682c0.193-1.911,0.752-3.786,1.562-5.562      c0.828-1.767,2.034-3.383,3.495-4.684c1.422-1.35,3.257-2.214,5.095-2.656c-1.285,1.452-2.535,2.659-3.509,4.111      c-0.974,1.423-1.906,2.841-2.594,4.418C428.37,422.537,427.374,425.866,426.257,429.494z"/>
			</g>
			<g>
				<path style="fill:#A9312F;" d="M413.176,423.481c-0.518-1.719-0.52-3.536-0.256-5.288c0.244-1.768,0.852-3.475,1.662-5.077      c0.845-1.583,1.912-3.068,3.266-4.253c1.291-1.238,2.883-2.145,4.563-2.698c-1.014,1.49-2.064,2.738-2.942,4.112      c-0.904,1.339-1.735,2.691-2.444,4.114C415.511,417.204,414.404,420.177,413.176,423.481z"/>
			</g>
		</g>
		<g>
			<path style="fill:#FF983D;" d="M506.324,313.629c-0.644,16.775-5.668,34.292-15.662,47.276l-1.208,1.236l-2.359,2.416     c0,0,0.281,5.365-0.534,7.191c-0.197,0.421-0.477,0.646-0.843,0.505l-0.028-0.028c-2.247-0.983-2.5-3.68-2.36-5.534     c-0.168,0.393-0.421,0.899-0.786,1.433c-0.337,0.59-0.815,1.264-1.348,1.91c-0.056,0.056-0.084,0.084-0.112,0.14     c-1.405,1.629-3.231,3.062-4.888,2.697c-2.556-0.562-0.815-4.017-0.815-4.017c-0.113,0.084-0.253,0.14-0.365,0.224     c-0.084,0.056-0.197,0.14-0.309,0.197c-3.006,1.854-15.928,9.298-36.659,14.664c-0.112,0-0.197,0.028-0.281,0.056     c-5.169,1.32-10.843,2.5-16.939,3.427c-11.433,1.77-24.44,2.612-38.794,1.826c-1.489-0.084-2.978-0.168-4.494-0.309     c-28.794-2.247-47.234-0.858-86.245-20.012c-7.875-5.187-10.804-5.738-21.403-21.058c-7.61-11.001-10.42-24.098-11.05-37.478     c-0.642-13.635,1.236-27.513,6.609-40.06c7.122-16.631,19.517-30.357,26.635-47.019c5.085-11.743,8.765-27.08,15.928-27.024     c2.444,0,5.871,2.107,9.354,5.534c0.281,0.309,0.59,0.59,0.871,0.899c3.455,3.68,6.882,8.652,9.214,14.214     c0.393,0.927,0.758,1.882,1.096,2.837c0.309,0.955,0.618,1.91,0.871,2.893c0.393,1.489,0.621,2.941,0.846,4.43     c28.699-5.371,38.634-4.94,42.046-5.122c15.467-0.793,31.308-0.96,46.72,0.804l0.506-0.421c2.079-1.882,4.775-4.635,5.112-4.944     c4.158-4.214,6.883-9.944,10.59-14.523c4.326-5.366,10.394-9.383,17.276-9.495c1.657-0.056,3.343,0.141,5.085,0.59     c0.562,0.168,1.039,0.421,1.517,0.843c0.028-0.028,0.028,0,0.028,0c0.141,0.112,0.309,0.253,0.449,0.421     c3.919,4.704,3.851,12.193,3.696,17.988c-0.178,6.656-1.458,12.867-3.555,19.15c-0.056,0.168-0.113,0.365-0.225,0.534     c13.512,6.096,24.299,14.901,32.294,27.387c7.791,12.166,12.734,26.167,14.152,40.552     C506.364,305.006,506.491,309.293,506.324,313.629z"/>
		</g>
		<g>
			<path style="fill:#A9312F;" d="M311.822,225.757l7.192,4.251c6.316-2.072,11.044-2.832,11.29-2.888     c0-18.555-15.799-30.799-22.289-30.843l-0.019-0.001c-1.183,3.595-2.569,7.9-0.523,17.527c0.208,0.947,0.343,1.868,0.442,2.769     L311.822,225.757z"/>
		</g>
		<g>
			<path style="fill:#A9312F;" d="M445.562,224.916l7.653,5.383c2.456,0.744,4.697,1.763,6.295,2.622     c4.237-8.509,5.583-24.737,3.128-33.129c-0.679-2.34-2.298-3.957-3.506-4.978c0,0-3.398,1.4-6.298,9.238     c-1.053,2.861-1.986,5.6-3.07,8.123L445.562,224.916z"/>
		</g>
		<g style="opacity:0.48;">
			<path style="fill:#E54949;" d="M362.754,361.639c6.087,4.241,6.966,12.888-0.06,17.199c-9.408,5.773-27.106,4.599-35.397-2.855     c-7-6.293-2.605-17.645,5.072-19.631c6.489-1.679,13.36-1.052,19.693,0.756C355.005,357.949,359.342,359.263,362.754,361.639z"/>
		</g>
		<g style="opacity:0.48;">
			<path style="fill:#E54949;" d="M449.618,352.568c-4.857,4.087-4.933,11.522,1.389,14.65c8.464,4.187,23.452,1.812,29.936-5.183     c5.475-5.905,0.849-15.237-5.846-16.332c-5.659-0.926-11.465,0.142-16.72,2.174C455.934,348.822,452.34,350.278,449.618,352.568z     "/>
		</g>
		<g>
			<path style="fill:#A9312F;" d="M404.632,221.601c4.938,6.309,8.345,13.683,9.577,21.518c0.866,5.536,0.779,11.372-2.234,16.281     c-2.4,3.931-6.671,7.014-11.46,6.373c-3.813-0.511-6.658-3.74-8.237-6.986c-2.092-4.326-4.338-8.59-6.799-12.72     c-4.474-7.539-9.975-17.438-17.483-23.978C367.995,222.087,388.508,219.613,404.632,221.601z"/>
		</g>
		<g>
			<path style="fill:#A9312F;" d="M505.955,300.86c-4.716,2.565-10.269,4.252-15.4,3.436c-9.616-1.545,2.479-10.486,12.331-19.455     C502.887,284.841,505.612,293.198,505.955,300.86z"/>
		</g>
		<g>
			<path style="fill:#A9312F;" d="M505.918,319.431c-4.868,0.396-10.021,0.136-13.407-1.85c-5.969-3.502,3.855-7.18,13.856-9.998     C506.366,307.583,506.765,314.196,505.918,319.431z"/>
		</g>
		<g>
			<path style="fill:#A9312F;" d="M491.744,281.231c2.828-0.499,5.755-2.312,8.463-4.6c-0.048-0.169-0.114-0.34-0.18-0.51     c-1.413-3.54-3.051-7.035-4.974-10.413C489.556,274.013,485.188,282.391,491.744,281.231z"/>
		</g>
		<g>
			<path style="fill:#A9312F;" d="M342.87,224.831c1.984,2.067,4.21,4.375,5.809,6.115c5.055,5.517,10.371,13.232,14.237,14.026     c8.08,1.671,11.227-6.241,5.874-14.201c-2.443-3.627-5.802-6.225-8.738-7.992l-0.208-0.171     C353.851,223.124,348.331,223.979,342.87,224.831z"/>
		</g>
		<g>
			<path style="fill:#A9312F;" d="M421.445,223.032c2.725,1.938,5.843,4.579,8.568,8.006c1.714,2.135,0.562,4.832-2.023,6.208     c-0.196,0.084-0.421,0.197-0.674,0.281c-1.601,0.618-3.624,0.758-5.843,0.056c-2.837-0.927-5.843-5.197-8.792-9.523     c-1.489-2.163-2.95-4.438-4.354-6.208C408.326,221.853,414.369,221.853,421.445,223.032z"/>
		</g>
		<g style="opacity:0.48;">
			<path style="fill:#A9312F;" d="M496.411,351.56c-1.404,2.327-2.814,4.644-4.329,6.884c-0.743,1.128-1.516,2.234-2.33,3.299     c-0.814,1.048-1.696,2.1-2.675,2.829l-0.243,0.181l0.009,0.328c0.03,1.142-0.007,2.336-0.204,3.448     c-0.173,1.077-0.644,2.269-1.289,2.397c-0.306,0.069-0.476,0.015-0.742-0.391c-0.234-0.392-0.392-0.929-0.508-1.468     c-0.225-1.092-0.282-2.287-0.285-3.422l-0.007-2.912l-1.326,2.577c-0.572,1.112-1.231,2.225-1.943,3.264     c-0.716,1.035-1.497,2.047-2.402,2.8c-0.444,0.38-0.949,0.675-1.385,0.713c-0.481,0.044-0.884-0.066-1.024-0.418     c-0.365-0.819-0.034-2.241,0.37-3.335l0.526-1.426l-1.247,0.805c-1.802,1.163-3.72,2.193-5.652,3.161     c-1.94,0.962-3.952,1.781-6.061,2.345c2.169-0.288,4.268-0.99,6.312-1.78c2.042-0.815,4-1.791,5.928-2.879l-0.721-0.621     c-0.28,0.644-0.491,1.276-0.639,1.965c-0.123,0.684-0.233,1.433,0.095,2.267c0.176,0.404,0.541,0.807,0.972,0.972     c0.215,0.102,0.427,0.163,0.63,0.176c0.206,0.038,0.414,0.052,0.628,0.014c0.867-0.079,1.527-0.506,2.079-0.937     c1.124-0.88,1.955-1.947,2.722-3.04c0.765-1.099,1.444-2.219,2.072-3.413l-1.333-0.335c-0.018,1.266,0.07,2.485,0.33,3.748     c0.147,0.628,0.316,1.266,0.703,1.909c0.119,0.16,0.231,0.319,0.367,0.47c0.176,0.14,0.331,0.299,0.545,0.397     c0.443,0.214,0.948,0.233,1.366,0.104c0.876-0.246,1.382-0.984,1.66-1.596c0.283-0.639,0.414-1.274,0.52-1.904     c0.177-1.263,0.205-2.485,0.104-3.74l-0.235,0.509c1.153-0.962,1.958-2.077,2.753-3.204c0.777-1.134,1.499-2.294,2.19-3.471     C494.043,356.455,495.305,354.044,496.411,351.56z"/>
		</g>
		<g>
			<g>
				<g>
					<path style="fill:#FFFFFF;" d="M328.911,351.367c8.515,5.76,21.829,7.622,31.438,3.826c2.053-0.813,3.96-1.916,5.668-3.35       c7.396-6.271,11.536-17.235,11.519-26.856c0.017-0.222,0.015-0.446,0.013-0.669c-0.197-9.71-5.807-18.47-14.298-23.075       c-9.94-5.384-24.711-7.151-33.844,0.682c-3.602,3.096-6.438,7.385-8.328,12.211l-0.018-0.001       C315.978,326.981,317.511,343.639,328.911,351.367z"/>
				</g>
				<g>
					<path style="fill:#A9312F;" d="M371.442,305.902c-2.36-2.584-5.169-4.775-8.315-6.292c-3.09-1.545-6.349-2.697-9.72-3.427       c-6.658-1.404-13.99-1.152-20.254,2.079c-3.118,1.601-5.731,4.017-7.781,6.742c-1.995,2.612-3.512,5.506-4.663,8.54       c-0.056,0.14-0.112,0.253-0.168,0.393c-1.208,3.231-1.966,6.63-2.303,10.057c-0.309,3.427-0.225,6.911,0.365,10.282       c0.534,3.006,1.435,6.092,2.868,8.788c0.211,0.429,0.305,0.542,0.474,0.851c0.994,1.821,2.416,3.487,3.893,4.936       c-2.81-2.757-4.846-6.358-5.88-10.146c-0.584-2.142-1.015-4.311-1.221-6.524c-0.383-4.126-0.057-8.319,0.982-12.331       c0.452-1.745,1.038-3.455,1.758-5.107c-0.172,0.095-0.334-0.256-0.15-0.325s0.294,0.301,0.102,0.343       c2.5-6.074,6.612-11.781,12.528-14.636c4.692-2.264,10.129-2.55,15.296-1.883c9.386,1.212,18.751,5.878,23.551,14.035       c4.806,8.167,4.328,18.643,0.775,27.427c-1.968,4.867-4.902,9.469-9.116,12.601c-4.444,3.304-10.083,4.774-15.621,4.753       s-10.807-1.379-15.95-3.434c1.592,0.782,3.098,1.411,4.813,1.858c2.444,0.758,4.944,1.264,7.472,1.573       c2.388,0.281,4.832,0.337,7.248,0.168c0.478-0.028,0.955-0.084,1.433-0.14c2.893-0.365,5.787-1.068,8.456-2.303       c2.697-1.264,5.056-3.174,7.023-5.366c1.994-2.191,3.652-4.663,5-7.304c2.697-5.253,4.214-11.124,4.382-17.136       C378.858,317.869,376.19,311.015,371.442,305.902z M328.912,351.354"/>
				</g>
			</g>
			<g>
				<path style="fill:#A9312F;" d="M348.855,349.162c-7.73,0.541-16.049-3.021-20.165-9.766      c-6.557-10.747-2.235-26.433,8.999-31.993c6.031-2.985,13.976-3.127,20.016-0.077c16.141,8.153,12.905,33.463-2.686,40.356      C353.098,348.531,351.006,349.011,348.855,349.162z"/>
			</g>
			<g style="opacity:0.21;">
				<path style="fill:#A9312F;" d="M321.078,314.135c34.861-13.408,54.138,8.052,56.457,10.851c0.017-0.222,0.015-0.446,0.013-0.669      c-0.197-9.71-5.807-18.47-14.298-23.075c-9.94-5.384-24.711-7.151-33.844,0.682C325.805,305.021,322.969,309.31,321.078,314.135      z"/>
			</g>
		</g>
		<g>
			<g>
				<g>
					<path style="fill:#FFFFFF;" d="M440.021,333.67c5.898,7.788,17,9.441,26.01,7.783c1.239-0.244,2.443-0.587,3.589-1.043       c13.875-5.481,19.458-26.19,12.112-39.05c-0.731-1.332-1.634-2.576-2.667-3.72c-9.079-9.972-28.757-11.348-38.716-1.899       c-2.395,2.306-3.678,5.601-4.466,8.76c-0.546,2.157-0.915,4.535-1.085,7.008C434.215,319.266,435.63,327.88,440.021,333.67z"/>
				</g>
				<g>
					<path style="fill:#A9312F;" d="M448.778,340.146 M448.778,340.146c2.725,1.124,5.618,1.77,8.568,1.995       c0.281,0.056,0.562,0.056,0.843,0.084c1.714,0.084,3.455,0.084,5.197-0.056c1.714-0.141,3.455-0.365,5.169-0.871       c3.343-1.067,6.489-2.894,9.017-5.422c2.5-2.472,4.467-5.422,5.899-8.624c1.461-3.287,2.36-6.854,2.725-10.45       c0.309-3.568,0.084-7.22-0.871-10.759l-0.899-2.584c-0.365-0.843-0.787-1.629-1.18-2.472c-0.815-1.63-1.91-3.174-3.174-4.523       c-4.888-5.169-11.77-7.753-18.54-8.287h-0.281c-0.253-0.028-0.477-0.056-0.73-0.056c-3.568-0.196-7.163,0.253-10.59,1.264       c-3.427,1.039-6.658,2.725-9.326,5.141c-1.404,1.096-2.5,2.669-3.287,4.242c-0.786,1.601-1.348,3.287-1.742,5       c-0.842,3.399-1.096,6.883-1.096,10.338c0,3.455,0.394,6.91,1.236,10.253c0.674,2.556,1.629,5.056,2.978,7.332       c-0.59-1.067-1.124-2.191-1.573-3.315c-0.309-0.702-0.562-1.433-0.758-2.163c-1.208-3.905-1.601-8.09-1.461-12.107       c0.028-0.955,0.112-1.91,0.197-2.837c0.253-2.472,0.73-4.888,1.433-7.248c0.955-3.231,2.444-6.377,5.085-8.315       c5.197-4.186,12.22-5.506,18.737-4.916c0.084,0,0.168,0.028,0.253,0.028c0.084,0,0.168,0,0.253,0.028       c3.118,0.309,6.18,1.068,9.018,2.303c3.006,1.264,5.759,3.09,7.922,5.422c0.758,0.786,1.433,1.657,2.022,2.584       c0.281,0.421,0.534,0.843,0.758,1.292c0.337,0.702,0.731,1.433,1.039,2.163l0.815,2.276c0.927,3.118,1.292,6.433,1.096,9.72       c-0.169,3.764-1.011,7.585-2.556,11.096c-1.096,2.584-2.613,5-4.523,7.107c-2.219,2.472-5.056,4.382-8.203,5.59       c-1.573,0.562-3.258,0.871-4.944,1.095c-1.685,0.225-3.399,0.337-5.113,0.281C458.188,341.775,453.094,341.507,448.778,340.146       z"/>
				</g>
			</g>
			<g>
				<path style="fill:#A9312F;" d="M472.234,327.787c-0.499,0.588-4.797,8.202-17.435,6.578      c-12.639-1.623-13.983-17.311-13.032-22.683c0.952-5.371,5.454-16.884,19.799-15.513      C475.911,297.541,480.817,317.672,472.234,327.787z"/>
			</g>
			<g style="opacity:0.21;">
				<path style="fill:#A9312F;" d="M434.799,311.51c14.564-12.101,35.833-11.515,46.933-10.15c-0.731-1.332-1.634-2.576-2.667-3.72      c-9.079-9.972-28.757-11.348-38.716-1.899c-2.395,2.306-3.678,5.601-4.466,8.76C435.338,306.659,434.969,309.037,434.799,311.51      z"/>
			</g>
		</g>
		<g>
			<path style="fill:#A9312F;" d="M263.171,275.587c30.334,19.931,41.811-0.472,29.222-4.772     c-8.435-2.889-16.063-8.079-21.083-11.584C267.638,264.238,264.919,269.69,263.171,275.587z"/>
		</g>
		<g>
			<path style="fill:#A9312F;" d="M258.745,304.133c11.22,5.183,25.109,8.539,36.414,4.462c4.266-1.538,8.072-5.364,6.885-9.603     c-0.486-1.693-1.749-3.203-3.319-4.345c-4.637-3.402-11.243-4.384-16.99-5.414c-6.535-1.182-14.294-4.025-20.234-7.172     C261.5,282.061,258.229,294.434,258.745,304.133z"/>
		</g>
		<g>
			<path style="fill:#A9312F;" d="M258.855,312.534c0.556,7.913,1.448,16.091,4.352,23.232c7.786,1.872,17.168,0.053,24.247-3.487     c3.152-1.586,6.036-4.289,5.545-8.123c-0.641-5.072-7.281-6.095-11.34-6.309C270.648,317.276,262.916,314.441,258.855,312.534z"/>
		</g>
		<g>
			<g>
				<path style="fill:#A9312F;" d="M502.665,361.323c-4.784-2.04-9.693-3.671-14.632-5.2c-4.952-1.488-9.935-2.873-15.045-3.844      c4.783,2.044,9.692,3.673,14.632,5.2C492.573,358.964,497.557,360.348,502.665,361.323z"/>
			</g>
			<g>
				<path style="fill:#A9312F;" d="M506.064,348.879c-4.955-0.826-9.934-1.223-14.919-1.514c-4.987-0.25-9.979-0.391-14.996-0.1      c4.956,0.829,9.934,1.225,14.919,1.514C496.055,349.025,501.048,349.166,506.064,348.879z"/>
			</g>
			<g>
				<path style="fill:#A9312F;" d="M503.306,333.103c-4.814,1.437-9.46,3.27-14.065,5.2c-4.589,1.969-9.135,4.037-13.512,6.504      c4.815-1.434,9.461-3.268,14.065-5.2C494.381,337.635,498.928,335.567,503.306,333.103z"/>
			</g>
		</g>
		<g>
			<path style="fill:#FFFFFF;" d="M314.911,225.456c0,0,3.607,0.031,4.632-0.729c1.044-0.759-4.478-1.306-4.478-1.306     c2.846-0.976,5.348-4.044,4.408-4.171c-0.957-0.146-4.357,2.016-4.357,2.016c3.719-4.651,1.891-12.232-1.865-12.032     c-1.606,0.083-3.594,3.487-5.336,7.338c1.541,13.347-7.09,22.428-8.626,23.54c6.288-4.903,13.714-8.12,19.725-10.103     C318.29,227.274,314.911,225.456,314.911,225.456z"/>
		</g>
		<g>
			<path style="fill:#FFFFFF;" d="M453.214,230.299c-0.293-3.018-3.108-7.38-3.359-7.752c0.234,0.11,2.704,1.395,3.939,0.818     c1.293-0.609-2.836-2.615-2.836-2.615s3.256,0.507,3.589-0.455c0.349-0.941-3-0.934-3-0.934c2.457-1.247,7.195-7.309,4.399-9.214     c-1.823-1.236-4.51,0.589-6.182,2.026c-2.572,5.965-6.036,10.691-14.355,12.91C435.409,225.084,445.213,227.834,453.214,230.299z     "/>
		</g>
		<g style="opacity:0.48;">
			<path style="fill:#E54949;" d="M418.29,331.985c4.668,1.071,9.151,3.949,11.835,8.441c3.892,6.513,4.653,14.695-0.3,20.629     c-3.073,3.683-7.405,5.693-11.761,6.917c-8.346,2.344-16.803,4.084-25.365,1.727c-3.105-0.855-6.168-2.188-8.7-4.424     c-3.88-3.427-6.258-8.957-6.235-14.495c0.025-5.538,2.449-10.956,6.358-14.202c4.808-3.993,12.004-5.276,17.895-5.223     C407.266,331.403,413.159,330.807,418.29,331.985z"/>
		</g>
		<g>
			<path style="fill:#A9312F;" d="M418.619,332.52c-0.766,5.154-1.258,10.092-1.106,15.056c0.024,2.477,0.242,4.947,0.597,7.416     c0.296,2.493,0.903,4.923,1.371,7.521c-1.516-2.124-2.752-4.507-3.471-7.051c-0.817-2.523-1.177-5.178-1.252-7.825     c-0.041-2.649,0.2-5.305,0.847-7.865C416.226,337.218,417.158,334.714,418.619,332.52z"/>
		</g>
		<g>
			<path style="fill:#A9312F;" d="M395.903,333.658c1.254,2.6,2.024,5.385,2.56,8.206c0.533,2.826,0.777,5.714,0.701,8.616     c-0.139,2.896-0.512,5.815-1.439,8.602c-0.941,2.77-2.38,5.417-4.425,7.451c1.086-2.681,1.827-5.299,2.339-7.983     c0.45-2.695,0.682-5.415,0.769-8.156c0.126-2.742,0.009-5.504-0.076-8.286L395.903,333.658z"/>
		</g>
		<g>
			<path style="fill:#A9312F;" d="M416.341,342.424c-1.496-0.116-3.217-0.516-4.716-0.627c-1.543-0.124-3.044-0.191-4.513-0.006     c-2.968,0.257-5.716,1.354-8.847,2.821c1.588-3.074,4.963-5.214,8.572-5.563c1.799-0.165,3.615,0.057,5.269,0.659     C413.71,340.256,415.392,341.304,416.341,342.424z"/>
		</g>
		<g>
			<path style="fill:#A9312F;" d="M406.427,325.779c0,0,4.846-5.996,7.339-4.899c2.492,1.097-4.797,10.177-7.588,11.026     c-2.791,0.85-8.942-8.79-7.439-10.646C400.242,319.404,406.427,325.779,406.427,325.779z"/>
		</g>
		<g style="opacity:0.48;">
			<g>
				<path style="fill:#A9312F;" d="M180.201,279.688c3.314-2.358,6.698-4.652,10.537-6.231c0.978-0.349,1.955-0.773,3.217-0.581      c0.665,0.17,1.276,0.686,1.382,1.395c0.141,0.693-0.101,1.357-0.399,1.824c-1.256,1.917-2.988,3.07-4.763,4.211l-0.413-1.328      c2.953-0.239,5.856-0.434,8.925,0.073c0.768,0.171,1.564,0.291,2.424,1.004c0.992,0.905,0.88,2.249,0.321,3.134      c-1.2,1.658-2.712,2.105-4.239,2.625l0.433-1.718c6.11,6.034,10.022,13.561,12.953,21.371c2.867,7.851,4.371,16.134,4.93,24.43      c0.564,8.364-0.017,16.786-1.389,25.047c-1.081,6.507-2.394,13.478-4.776,19.649c-0.389,1.008-1.616,3.104-1.148,4.217      c-0.163-0.387-0.325-0.774-0.488-1.161c5.73,3.277,11.581,6.652,15.865,11.675c4.283,5.022,6.761,12.103,4.625,18.349      c1.617-6.344-1.288-13.154-5.816-17.882c-4.528-4.728-10.488-7.775-16.327-10.735c-0.032-0.016,3.984-15.265,4.264-16.714      c1.114-5.764,1.882-11.595,2.299-17.451c0.917-12.873-0.054-26.343-4.387-38.579c-2.714-7.546-6.578-14.943-11.954-20.727      l-1.211-1.303l1.644-0.416c1.193-0.301,2.639-0.915,3.146-1.666c0.254-0.297,0.186-0.762,0.034-0.836      c-0.241-0.257-0.923-0.501-1.556-0.632c-2.657-0.541-5.621-0.477-8.447-0.334l-2.906,0.147l2.492-1.475      c1.65-0.977,3.469-2.085,4.513-3.555c0.559-0.693,0.413-1.553-0.258-1.717c-0.767-0.184-1.811,0.096-2.729,0.396      c-1.888,0.63-3.716,1.532-5.505,2.476C183.699,277.613,181.932,278.62,180.201,279.688z"/>
			</g>
		</g>
		<g style="opacity:0.48;">
			<g>
				<path style="fill:#A9312F;" d="M293.053,367.659c-0.43,1.992-0.79,3.993-1.018,5.992c-0.211,1.962-0.291,4.102,0.296,5.716      c0.531,1.561,2.502,1.026,3.569-0.358c1.155-1.364,1.982-3.237,2.546-5.006l2.198-6.889l0.044,7.291      c0.01,1.697,0.126,3.474,0.414,5.138c0.277,1.616,0.855,3.376,1.634,4.05c0.097,0.039,0.18,0.082,0.258,0.148      c0.09,0.025,0.178,0.013,0.261,0.053c0.208,0.01,0.467-0.022,0.627-0.1c0.343-0.137,0.709-0.608,0.953-1.29      c0.481-1.353,0.593-3.147,0.533-4.732l-0.091-2.418l2.11,1.121c5.861,3.113,12.155,5.66,18.512,7.793      c3.19,1.075,6.461,1.864,9.757,2.565c3.299,0.733,6.656,1.07,10.059,1.33c-3.392,0.327-6.834,0.255-10.253-0.067      c-3.407-0.397-6.795-1.027-10.125-1.877c-6.682-1.684-13.089-4.16-19.268-7.355l2.019-1.296c0.098,1.989,0.021,3.865-0.71,5.908      c-0.375,0.976-1.049,2.161-2.378,2.765c-0.665,0.291-1.316,0.369-1.999,0.316c-0.351-0.067-0.719-0.131-1.045-0.259      c-0.307-0.165-0.614-0.347-0.899-0.543c-1.9-1.842-2.07-3.871-2.43-5.722c-0.248-1.891-0.32-3.717-0.237-5.612l2.241,0.402      c-0.821,2.033-1.78,3.914-3.362,5.57c-0.789,0.79-1.855,1.564-3.196,1.657c-0.649,0.041-1.293-0.065-1.956-0.473      c-0.604-0.41-0.958-1.034-1.144-1.599c-0.623-2.294-0.126-4.345,0.27-6.358C291.688,371.51,292.298,369.555,293.053,367.659z"/>
			</g>
		</g>
		<g style="opacity:0.48;">
			<g>
				<path style="fill:#A9312F;" d="M410.694,414.822c-1.36-3.617-2.718-7.172-4.745-10.282c-2.002-3.114-4.501-5.848-7.463-7.987      c-5.911-4.391-13.328-6.312-20.936-7.613c7.647-0.89,15.988,0.589,22.568,5.392c3.241,2.404,5.938,5.564,7.698,9.153      c0.902,1.781,1.562,3.666,2.035,5.575C410.303,410.973,410.48,412.958,410.694,414.822z"/>
			</g>
		</g>
		<g>
			<path style="fill:#A9312F;" d="M391.967,431.206c-0.071-4.752-0.191-9.254-1.145-13.553c-0.483-2.139-1.241-4.165-2.236-6.109     c-1.032-1.944-2.484-3.604-4.123-5.38c2.237,0.787,4.379,2.202,5.91,4.182c1.539,1.963,2.55,4.303,3.136,6.697     c0.504,2.414,0.628,4.869,0.363,7.265C393.61,426.698,393.055,429.059,391.967,431.206z"/>
		</g>
		<g>
			<path style="fill:#A9312F;" d="M371.623,438.63c-0.456-4.436-1.039-8.575-2.445-12.417c-0.634-1.946-1.637-3.708-2.754-5.423     c-1.102-1.764-2.627-3.182-4.175-4.844c2.115,0.659,4.246,1.749,5.825,3.462c1.633,1.643,2.925,3.673,3.693,5.861     c0.758,2.191,1.162,4.482,1.13,6.756C372.873,434.289,372.529,436.557,371.623,438.63z"/>
		</g>
		<g>
			<path style="fill:#A9312F;" d="M319.069,416.443c-0.674,3.848-2.95,7.135-4.916,10.478c-2.36,3.961-4.41,8.231-5.787,12.641     c-6.91-1.517-13.596-3.596-19.945-6.04c-1.264-0.478-2.5-0.983-3.708-1.489c6.882-9.214,15.619-17.417,26.49-21.012     c2.36-0.758,5.281-1.18,6.939,0.674C319.266,412.931,319.35,414.813,319.069,416.443z"/>
		</g>
		<g>
			<path style="fill:#A9312F;" d="M281.286,403.577c-2.5,4.719-5.281,9.298-8.287,13.709c-1.573,2.332-3.371,4.523-4.944,6.854     c-8.455-4.523-15.9-9.326-22.024-13.68c5.141-10.815,16.321-18.709,28.344-19.524c2.922-0.225,6.321,0.168,8.034,2.556     C284.488,396.385,282.972,400.43,281.286,403.577z"/>
		</g>
		<g>
			<path style="fill:#A9312F;" d="M214.174,410.376c0.643-3.592,1.271-6.856,1.225-10.083c0.009-1.61-0.271-3.16-0.678-4.718     c-0.397-1.589-1.22-3.015-2.038-4.695c1.605,0.837,3.129,2.124,4.014,3.842c0.94,1.677,1.42,3.619,1.458,5.527     c-0.013,1.909-0.35,3.782-1.035,5.505C216.445,407.471,215.514,409.09,214.174,410.376z"/>
		</g>
	</g>
	<g>
		<g>
			<path style="fill:#FF983D;" d="M168.597,226.554c-3.512,1.152-6.208,3.287-8.315,6.152c-13.99,18.933-1.096,69.47-12.163,70.79     c-7.22,0.871-16.04-24.524-12.023-55.115c1.461-11.096,4.214-18.849,7.107-24.215c5.085-9.411,10.675-11.518,10.675-11.518     s5.787,0.731,11.658,2.079c5.674,1.32,11.377,3.231,11.995,5.674C177.98,222.172,175.676,224.25,168.597,226.554z"/>
		</g>
		<g style="opacity:0.1;">
			<path style="fill:#A9312F;" d="M168.597,226.554c-3.512,1.152-6.208,3.287-8.315,6.152l-17.079-8.54     c5.085-9.411,10.675-11.518,10.675-11.518s5.787,0.731,11.658,2.079l11.995,5.674C177.98,222.172,175.676,224.25,168.597,226.554     z"/>
		</g>
		<g>
			<path style="fill:#A9312F;" d="M315.622,68.042c0,0,28.378-24.303,55.126-16.242c11.08,3.339,19.389,10.393,25.991,19.699     c2.674,3.768,5.055,7.737,7.84,11.427c6.079,8.056,14.34,11.689,16.605,22.564c2.642,12.687-4.804,29.405-16.505,35.408     C389.801,148.533,291.64,101.872,315.622,68.042z"/>
		</g>
		<g>
			<path style="fill:#FF983D;" d="M138.201,161.7c-1.522,0-13.703,53.288,34.003,66.483c47.705,13.195,72.573-15.733,88.306-30.45     c15.733-14.718,36.033-23.853,52.781-9.643c16.748,14.21,48.213-1.522,48.213-1.522s41.896,13.52,43.964-26.677     c2.282-44.335-54.621-41.329-66.802-59.092c-12.18-17.763-34.003-57.856-88.306-53.288     C196.056,52.08,138.201,161.7,138.201,161.7z"/>
		</g>
		<g style="opacity:0.48;">
			<g>
				<path style="fill:#A9312F;" d="M155.954,160.224c-0.765,2.571-0.835,5.301-0.946,7.967c-0.078,2.68,0.008,5.362,0.26,8.024      c0.494,5.323,1.668,10.583,3.669,15.493c1.959,4.912,4.786,9.499,8.519,13.194c3.664,3.773,8.235,6.551,13.089,8.513      c4.887,2.019,10.029,2.978,15.22,2.419c5.169-0.509,10.181-2.297,14.866-4.687c9.423-4.823,17.563-11.879,25.77-18.785      c8.21-6.959,16.68-13.823,26.177-19.203c9.396-5.401,20.19-9.165,31.274-8.655c5.525,0.316,10.878,1.957,15.789,4.267      c4.977,2.247,9.414,5.348,14.292,7.511c4.838,2.228,9.995,3.927,15.331,4.263c5.307,0.362,10.793-0.901,15.222-4.012      c-4.306,3.255-9.826,4.808-15.248,4.558c-5.442-0.195-10.736-1.783-15.704-3.91c-5.008-2.121-9.602-4.997-14.495-7.066      c-4.865-2.142-10.028-3.57-15.275-3.74c-5.235-0.174-10.511,0.839-15.523,2.415c-5.032,1.588-9.866,3.815-14.453,6.49      c-9.215,5.319-17.507,12.137-25.633,19.143c-8.144,6.999-16.565,14.018-26.379,18.998c-4.898,2.447-10.214,4.312-15.784,4.817      c-5.544,0.568-11.304-0.531-16.281-2.793c-5.048-2.183-9.795-5.237-13.546-9.293c-3.823-3.977-6.642-8.832-8.534-13.941      c-1.88-5.133-2.834-10.539-3.122-15.94C154.295,170.892,154.387,165.382,155.954,160.224z"/>
			</g>
		</g>
		<g style="opacity:0.48;">
			<g>
				<path style="fill:#A9312F;" d="M201.633,92.681c10.954-11.632,24.24-21.357,39.325-27.304c7.532-2.96,15.658-4.627,23.837-4.524      c4.054-0.114,8.319,0.542,12.189,2.082c3.893,1.515,7.414,3.799,10.573,6.406c6.282,5.313,11.236,11.737,16.262,17.931      c4.983,6.243,10.099,12.324,15.968,17.58c5.901,5.155,12.883,9.244,20.644,10.746c7.713,1.743,15.831,0.959,23.612-0.752      c-7.627,2.311-15.825,3.417-23.865,2.08c-8.071-1.273-15.507-5.325-21.765-10.457c-12.595-10.391-20.629-24.921-32.62-35.011      c-5.894-5.096-13.171-8.375-21.046-8.1c-7.816-0.216-15.613,1.427-23.056,4.001c-7.451,2.616-14.526,6.332-21.191,10.659      C213.79,82.293,207.475,87.219,201.633,92.681z"/>
			</g>
		</g>
		<g style="opacity:0.48;">
			<g>
				<path style="fill:#A9312F;" d="M166.124,176.434c2.636,4.585,6.065,8.7,10.09,12.051c4.018,3.336,8.818,5.802,13.946,6.498      c5.125,0.774,10.353-0.329,15.053-2.404c2.439-0.893,4.574-2.386,6.774-3.734c1.108-0.662,2.044-1.597,3.074-2.38      c0.994-0.836,2.055-1.583,2.95-2.544c7.538-7.222,13.87-15.716,20.692-23.853c6.825-8.111,14.35-15.963,23.56-21.677      c9.185-5.715,19.971-8.754,30.716-8.991c10.701-0.533,21.76,1.513,31.195,6.859c9.506,5.26,16.83,13.658,22.184,22.819      c2.688,4.607,4.926,9.434,7.057,14.279c1.071,2.421,2.109,4.853,3.266,7.223c0.583,1.181,1.181,2.36,1.921,3.445      c0.716,1.073,1.596,2.182,2.901,2.543c-1.326-0.291-2.293-1.377-3.07-2.422c-0.808-1.061-1.472-2.217-2.121-3.375      c-1.264-2.336-2.394-4.733-3.558-7.106c-2.316-4.752-4.726-9.453-7.55-13.885c-5.511-8.893-12.818-16.847-22.048-21.66      c-9.169-4.818-19.709-6.853-30.084-6.211c-10.377,0.315-20.598,3.301-29.36,8.827c-8.866,5.399-16.271,12.966-23.094,20.951      c-6.858,7.98-13.185,16.592-21.183,23.797c-0.938,0.957-2.066,1.721-3.116,2.561c-1.091,0.791-2.074,1.723-3.253,2.395      c-2.34,1.366-4.606,2.859-7.185,3.742c-4.964,2.047-10.538,3.104-15.93,2.129c-5.386-0.949-10.248-3.719-14.207-7.274      C171.755,185.479,168.503,181.163,166.124,176.434z"/>
			</g>
		</g>
		<g style="opacity:0.48;">
			<g>
				<path style="fill:#A9312F;" d="M339.454,180.827c-6.719-8.219-13.875-16.096-21.787-23.04      c-4.002-3.395-8.211-6.585-12.784-8.927c-2.289-1.14-4.702-2.025-7.13-2.315c-2.435-0.28-4.989-0.029-7.444,0.561      c-9.913,2.554-18.625,9.064-26.201,16.214c-3.844,3.581-7.439,7.452-10.753,11.559c-3.393,4.052-6.446,8.381-9.321,12.854      c4.654-9.579,11.034-18.32,18.501-26.021c3.77-3.821,7.9-7.307,12.366-10.362c4.484-2.995,9.368-5.642,14.808-6.846      c2.71-0.599,5.527-0.843,8.364-0.477c2.846,0.386,5.473,1.417,7.909,2.669c4.885,2.528,9.077,5.987,12.992,9.639      C326.765,163.697,333.523,172.006,339.454,180.827z"/>
			</g>
		</g>
		<g>
			<path style="fill:#A9312F;" d="M148.987,70.124c-8.001,7.213-15.38,15.359-23.895,21.945     c-6.664,5.116-13.702,10.024-15.542,18.808c-3.882,18.526,10.799,43.799,28.513,50.15c34.968,12.537,85.765,9.55,96.428-33.362     c4.689-18.869,0.449-40.065-18.764-48.254c-9.862-4.203-20.62-4.246-30.653-7.6c-5.984-2-10.241-6.886-16.181-8.839     C160.756,60.298,154.682,64.991,148.987,70.124z"/>
		</g>
		<g style="opacity:0.48;">
			<g>
				<path style="fill:#A9312F;" d="M180.989,160.224c0.703,4.075,2.062,7.933,3.98,11.393c1.955,3.434,4.481,6.498,7.64,8.794      c1.622,1.069,3.213,2.23,5.054,2.953c1.729,0.969,3.661,1.452,5.548,2.118c1.904,0.605,3.913,0.876,5.888,1.383      c2.01,0.311,4.045,0.489,6.105,0.868c-2.05,0.246-4.128,0.338-6.225,0.478c-2.071-0.192-4.203-0.185-6.269-0.637      c-4.177-0.745-8.207-2.465-11.749-4.954C183.938,177.416,180.206,168.484,180.989,160.224z"/>
			</g>
		</g>
		<g style="opacity:0.48;">
			<g>
				<path style="fill:#A9312F;" d="M296.965,145.172c-1.587,1.65-3.154,3.189-4.567,4.804c-1.378,1.618-2.678,3.302-3.283,5.056      c-0.673,1.727-0.431,3.431,0.732,5.024c0.444,0.874,1.364,1.483,2.055,2.299c0.824,0.697,1.718,1.339,2.568,2.146      c-1.105-0.25-2.212-0.59-3.304-1.009c-0.979-0.635-2.15-1.038-2.962-2.046c-0.957-0.807-1.612-2.055-1.974-3.353      c-0.301-1.358-0.135-2.758,0.287-3.98c0.932-2.44,2.597-4.249,4.407-5.693C292.745,146.977,294.772,145.856,296.965,145.172z"/>
			</g>
		</g>
		<g style="opacity:0.48;">
			<g>
				<path style="fill:#A9312F;" d="M192.311,181.912c9.405-5.602,18.431-11.911,26.232-19.528      c8.251-7.171,12.204-17.866,20.289-25.783c7.766-8,17.813-13.726,28.49-16.82c10.679-3.157,21.985-4.088,33.051-2.827      c5.529,0.669,10.993,1.905,16.267,3.714l1.959,0.73l0.979,0.368l0.489,0.184l0.245,0.092c0.032,0.016,0.065,0.02-0.105-0.05      c-0.087,0.124-0.446-0.596-1.568,0.605c-0.358,1.378,0.168,1.227,0.103,1.373c0.073,0.086,0.022,0.028,0.022,0.028      c-0.903-0.946-1.892-1.876-2.881-2.782c-2.003-1.801-4.093-3.517-6.26-5.132c-8.66-6.478-18.466-11.416-28.843-14.437      c-10.387-3.011-21.43-3.695-32.164-2.034c-10.772,1.603-21.074,5.669-30.659,10.953c9.273-5.824,19.561-10.202,30.433-12.286      c10.878-1.966,22.215-1.521,32.951,1.321c10.766,2.782,20.825,7.932,29.777,14.466c2.238,1.642,4.4,3.388,6.484,5.234      c1.037,0.936,2.053,1.874,3.05,2.902l0.11,0.121c-0.036,0.177,0.519,0.057,0.191,1.467c-1.092,1.232-1.423,0.544-1.48,0.699      c-0.116-0.022-0.108-0.023-0.131-0.031l-0.237-0.087l-0.474-0.174l-0.947-0.348l-1.895-0.691      c-5.103-1.709-10.393-2.855-15.741-3.473c-10.687-1.302-21.658-0.483-32.02,2.495c-10.404,2.9-19.953,8.41-27.708,15.915      c-7.887,7.282-12.201,18.064-20.859,25.266C211.255,170.738,202.024,176.847,192.311,181.912z"/>
			</g>
		</g>
		<g>
			<path style="fill:#FF983D;" d="M183.864,167.494c0,0,9.787-31.909,63.173-55.636l-12.753,24.913L210.26,164.5L183.864,167.494z"/>
		</g>
		<g style="opacity:0.48;">
			<g>
				<path style="fill:#A9312F;" d="M235.338,117.536c4.849-4.117,11.069-6.292,17.204-7.798c6.192-1.515,12.58-2.057,18.917-2.034      c3.177-0.06,6.335,0.226,9.495,0.419c3.149,0.307,6.284,0.737,9.404,1.218c3.095,0.641,6.194,1.228,9.267,1.912      c3.035,0.878,6.082,1.662,9.078,2.617c-3.139-0.347-6.228-0.865-9.33-1.289l-9.301-1.138      c-6.216-0.486-12.411-1.075-18.615-0.983c-6.2-0.091-12.391,0.365-18.496,1.347c-3.055,0.486-6.078,1.181-9.033,2.11      C240.938,114.761,238.044,115.937,235.338,117.536z"/>
			</g>
		</g>
		<g style="opacity:0.48;">
			<g>
				<path style="fill:#A9312F;" d="M380.47,188.705c2.579-4.158,4.597-8.672,5.793-13.367c1.173-4.67,1.333-9.708-0.514-14.052      c-1.81-4.378-5.682-7.522-9.96-9.502c-4.315-2.086-9.053-2.827-13.905-3.992c-9.589-2.405-18.909-6.12-27.394-11.307      c-8.505-5.161-16.019-11.866-22.538-19.279c-6.574-7.371-12.195-15.481-18.959-22.344c-3.365-3.439-7.157-6.404-11.388-8.523      c-4.266-1.99-8.945-3.226-13.728-3.557c-9.594-0.776-19.284,1.426-28.402,4.71c-9.157,3.317-17.894,7.854-26.061,13.254      c7.833-5.898,16.489-10.707,25.595-14.473c9.135-3.604,18.97-6.091,29.008-5.551c4.99,0.243,10.006,1.339,14.616,3.491      c4.559,2.232,8.603,5.364,12.112,8.89c7.059,7.059,12.711,15.101,19.244,22.293c6.445,7.244,13.602,13.858,21.844,18.921      c8.195,5.119,17.257,8.772,26.623,11.274c4.617,1.227,9.662,2.179,14.152,4.511c4.476,2.219,8.646,5.788,10.485,10.641      c1.876,4.828,1.34,10.108-0.055,14.807C385.607,180.292,383.333,184.728,380.47,188.705z"/>
			</g>
		</g>
		<g style="opacity:0.48;">
			<g>
				<path style="fill:#A9312F;" d="M352.068,143.567c3.965,2.025,7.631,4.662,10.895,7.752c3.274,3.078,6.172,6.645,8.295,10.726      c2.108,4.06,3.342,8.754,2.912,13.402c-0.358,4.664-2.511,8.942-5.402,12.286c2.01-3.966,3.272-8.177,3.252-12.382      c-0.036-4.197-1.227-8.305-3.212-12.044c-1.908-3.787-4.539-7.231-7.385-10.497C358.527,149.581,355.427,146.47,352.068,143.567      z"/>
			</g>
		</g>
		<g style="opacity:0.48;">
			<g>
				<path style="fill:#A9312F;" d="M321.869,125.344c3.85,1.307,7.717,2.489,11.658,3.386c3.904,0.96,7.895,1.835,11.827,2.42      c7.874,1.101,15.965,0.462,24.177,0.861c4.103,0.246,8.263,0.752,12.292,1.951c4.029,1.246,7.801,3.091,11.201,5.506      c3.398,2.397,6.458,5.32,8.783,8.778c2.238,3.502,3.668,7.557,3.659,11.646c-0.338-2.009-0.873-3.953-1.661-5.789      c-0.839-1.814-1.866-3.522-3.098-5.073c-2.428-3.129-5.487-5.726-8.853-7.794c-3.375-2.03-6.987-3.77-10.756-4.766      c-3.775-1.044-7.723-1.512-11.712-1.707c-7.972-0.467-16.218,0.119-24.39-1.532      C336.984,131.461,329.141,129.045,321.869,125.344z"/>
			</g>
		</g>
	</g>
	<path style="opacity:0.48;fill:#E54949;" d="M196.468,257.975c0.27,0.943,1.126,1.599,2.006,2.033   c1.947,0.96,4.266,1.141,6.338,0.495c4.256-1.326,6.603-7.799,1.508-9.782C202.604,249.275,195.18,253.483,196.468,257.975z"/>
	<path style="opacity:0.48;fill:#E54949;" d="M120.541,264.05c-0.46,1.36-0.359,3.126,0.85,3.899   c0.394,0.251,0.858,0.365,1.312,0.474c0.729,0.175,1.474,0.351,2.221,0.286c1.319-0.114,2.451-0.954,3.462-1.808   c2.219-1.875,5.438-6.136,1.056-7.502C125.975,258.319,121.675,260.696,120.541,264.05z"/>
</g>















</svg>
