<?xml version="1.0" encoding="UTF-8"?>
<!-- Generator: Adobe Illustrator 25.2.3, SVG Export Plug-In . SVG Version: 6.00 Build 0)  -->
<svg xmlns="http://www.w3.org/2000/svg" xmlns:xlink="http://www.w3.org/1999/xlink" version="1.1" id="Capa_1" x="0px" y="0px" viewBox="0 0 512.779 512.779" style="enable-background:new 0 0 512.779 512.779;" xml:space="preserve" width="512" height="512">
<g>
	<g>
		<g>
			<path style="fill:#97ECE2;" d="M51.326,401.057l-17.6,2.198c0,0-3.025-37.16-7.777-48.393     c-4.753-11.233-22.9-27.918-25.492-34.914c-2.592-6.996,6.481-71.374,11.666-78.719c5.185-7.345,36.294-16.943,36.294-16.943     l2.127-18.201l7.527,0.014l42.194,69.188L51.326,401.057z"/>
		</g>
		<g>
			<path style="fill:#FB5555;" d="M157.892,230.404c0,0-49.977-4.749-63.79-14.921c-13.812-10.171-36.032-9.384-36.032-9.384v24.305     l-27.024,8.557l-12.011,39.017c0,0-3.603,41.804,4.204,49.127c7.807,7.323,18.617,24.691,18.617,31.321     c0,6.63,0.601,40.861,9.609,42.663c9.008,1.802,57.652-2.684,68.462-11.852c10.809-9.168,57.051-35.174,61.856-36.884     C186.586,350.643,157.892,230.404,157.892,230.404z"/>
		</g>
		<g>
			<path style="fill:#A9312F;" d="M43.118,256.298c0,0-5.699,4.035-2.884,6.014C43.048,264.291,43.118,256.298,43.118,256.298z"/>
		</g>
		<g>
			<path style="fill:#A9312F;" d="M76.062,248.171c0,0,5.045,4.828,6.453,1.689C83.923,246.72,76.062,248.171,76.062,248.171z"/>
		</g>
		<g>
			<path style="fill:#A9312F;" d="M81.046,219.202c0,0-2.277,6.601,1.164,6.568C85.65,225.736,81.046,219.202,81.046,219.202z"/>
		</g>
		<g>
			<path style="fill:#A9312F;" d="M63.883,286.011c0,0-2.783-6.405-5.296-4.054C56.073,284.307,63.883,286.011,63.883,286.011z"/>
		</g>
		<g>
			<path style="fill:#FFFFFF;" d="M51.326,401.057c-3.143-0.319-5.319-6.134-6.48-9.637c-1.159-3.526-1.85-7.201-2.205-10.894     c-0.745-7.34-1.289-14.682-1.629-22.081l0.072,0.323c-2.988-6.418-6.129-12.8-9.569-18.95c-0.85-1.543-1.756-3.043-2.694-4.503     c-0.95-1.463-1.981-2.641-3.254-3.977c-2.412-2.616-4.88-5.382-6.576-8.757c-0.844-1.679-1.468-3.502-1.769-5.386     c-0.319-1.907-0.212-3.806-0.246-5.531l-0.044-10.651l0.053-21.3l0.001-0.201l0.056-0.174     c4.37-13.553,8.595-27.152,13.102-40.662l0.16-0.48l0.457-0.138l27.142-8.182l-0.385,0.527l0.553-24.305l0.553,24.305     l0.009,0.396l-0.395,0.131l-26.905,8.932l0.616-0.617c-4.053,13.653-8.389,27.217-12.58,40.827l0.056-0.374l0.053,21.341     l-0.044,10.67c0.015,1.823-0.089,3.497,0.172,5.107c0.247,1.629,0.771,3.212,1.509,4.714c1.478,3.016,3.762,5.659,6.135,8.267     c1.174,1.24,2.475,2.755,3.443,4.293c0.971,1.537,1.889,3.089,2.741,4.665c3.393,6.316,6.334,12.794,9.194,19.328l0.07,0.159     l0.003,0.165c0.125,7.327,0.587,14.689,0.974,22.036c0.196,3.651,0.722,7.285,1.717,10.808     C46.411,394.744,47.941,399.327,51.326,401.057z"/>
		</g>
	</g>
	<path style="fill:#FB5555;" d="M273.296,429.336c0-20.629-34.504-37.352-77.068-37.352c-42.563,0-77.068,16.723-77.068,37.352   c0,8.862,6.38,16.998,17.019,23.403c-6.895,3.694-11.131,8.577-11.131,13.95c0,11.501,19.237,20.825,42.968,20.825   c23.73,0,42.968-9.324,42.968-20.825c0-0.232-0.056-0.456-0.072-0.686C246.451,462.68,273.296,447.531,273.296,429.336z"/>
	<polygon style="fill:#FB5555;" points="372.328,213.325 424.799,235.51 439.855,262.258 450.686,295.834 470.383,299.769    414.691,387.755 357.008,430.221 267.507,432.291 282.557,320.835  "/>
	<path style="fill:#FB5555;" d="M107.82,441.956c0,5.338-8.928,9.665-19.942,9.665c-11.014,0-19.942-4.327-19.942-9.665   c0-5.338,8.928-9.665,19.942-9.665C98.891,432.291,107.82,436.618,107.82,441.956z"/>
	<g>
		<g>
			<g>
				<g>
					<path style="fill:#FF983D;" d="M489.73,171.081c-3.653,2.943-7.077,6.367-9.614,10.578       c-8.168,13.546-6.621,30.999-6.266,54.311c0,0-7.117,10.13-7.371,16.928c-0.127,3.729,5.545,14.553,5.545,14.553       c-4.084,18.087-15.423,40.334-33.46,54.895c-8.549,6.925-18.594,12.1-30.111,14.307c-7.027,1.37-14.586,1.598-22.678,0.431       c-24.175-3.475-18.163-10.679-15.068-14.688c4.11-5.277,10.781-6.976,10.781-6.976s27.397-1.725,47.234-16.058       c0.507-0.38,1.015-0.735,1.497-1.116c8.878-6.697,14.967-13.952,18.645-22.653c4.033-9.538,5.2-20.826,4.084-35.058       c-0.964-12.202-2.765-26.027-2.41-39.446c0.304-12.049,2.309-23.744,8.219-33.612c2.588-4.338,5.885-8.295,10.122-11.796       c17.199-14.256,30.085-15.88,37.188-12.024c2.79,1.497,4.693,3.856,5.632,6.646C514.184,157.687,500.84,162.075,489.73,171.081       z"/>
				</g>
				<g style="opacity:0.2;">
					<path style="fill:#A9312F;" d="M489.73,171.081c-3.653,2.943-7.077,6.367-9.614,10.578       c-8.168,13.546-6.621,30.999-6.266,54.311l-5.725,16.521l3.899,14.961c-4.084,18.087-15.423,40.334-33.46,54.895       c-8.549,6.925-18.594,12.1-30.111,14.307c-7.027,1.37-14.586,1.598-22.678,0.431c-24.175-3.475-18.163-10.679-15.068-14.688       c4.11-5.277,10.781-6.976,10.781-6.976s27.397-1.725,47.234-16.058c0.507-0.38,1.015-0.735,1.497-1.116       c8.878-6.697,14.967-13.952,18.645-22.653c4.033-9.538,5.2-20.826,4.084-35.058c-0.964-12.202-2.765-26.027-2.41-39.446       c0.304-12.049,2.309-23.744,8.219-33.612c2.588-4.338,5.885-8.295,10.122-11.796c17.199-14.256,30.085-15.88,37.188-12.024       c2.79,1.497,4.693,3.856,5.632,6.646C514.184,157.687,500.84,162.075,489.73,171.081z"/>
				</g>
			</g>
			<g>
				<path style="fill:#A9312F;" d="M489.73,171.081c-0.761-7.433-0.406-24.251,16.337-27.422c2.79,1.497,5.487,4.352,6.426,7.143      C514.978,158.183,500.84,162.075,489.73,171.081z"/>
			</g>
			<g>
				<path style="fill:#A9312F;" d="M465.529,184.602c-0.152,7.255-8.777,13.166-14.992,16.489      c-0.539-15.166,2.309-23.744,8.219-33.612C461.597,170.878,465.707,177.118,465.529,184.602z"/>
			</g>
			<g>
				<path style="fill:#A9312F;" d="M473.723,255.148c-0.127,3.729-0.71,7.889-1.7,12.303c-3.627-3.069-8.929-9.132-7.534-17.529      c1.344-8.041,6.139-12.1,9.36-13.952C473.951,241.957,473.977,248.35,473.723,255.148z"/>
			</g>
			<g>
				<path style="fill:#A9312F;" d="M449.395,296.294c-5.251,5.91-13.977,3.932-19.178,1.953      c8.878-6.697,14.967-13.952,18.645-22.653C451.577,281.556,454.342,290.688,449.395,296.294z"/>
			</g>
			<g>
				<path style="fill:#A9312F;" d="M438.564,322.346c-8.549,6.925-18.594,12.1-30.111,14.307c3.526-5.631,9.995-13.723,19.051-15.88      C432.526,319.581,436.078,320.57,438.564,322.346z"/>
			</g>
		</g>
		<g>
			<g>
				<path style="fill:#FF983D;" d="M134.755,255.713c0,0-60.257-13.428-63.215,64.079c0,0-18.854-20.827-35.119-21.566      c-16.266-0.739-9.242,11.83,0,16.635c9.242,4.806,29.204,25.508,36.598,39.555c7.394,14.048,21.072,7.394,22.55,0      c0,0,12.939,22.92,41.404-6.284C165.438,318.927,134.755,255.713,134.755,255.713z"/>
			</g>
			<g style="opacity:0.2;">
				<path style="fill:#A9312F;" d="M134.755,255.713c0,0-60.257-13.428-63.215,64.079c0,0-18.854-20.827-35.119-21.566      c-16.266-0.739-9.242,11.83,0,16.635c9.242,4.806,29.204,25.508,36.598,39.555c7.394,14.048,21.072,7.394,22.55,0      c0,0,12.939,22.92,41.404-6.284C165.438,318.927,134.755,255.713,134.755,255.713z"/>
			</g>
		</g>
		<g>
			<path style="fill:#FF983D;" d="M401.598,276.174c-0.228-6.418-0.761-12.557-1.547-18.391c-1.167-8.701-2.892-16.743-4.947-24.124     c-2.004-7.128-4.338-13.673-6.849-19.609c-3.602-8.599-7.585-15.956-11.39-22.069c-5.102-8.164-9.915-14.082-13.256-17.801     c4.097-4.335,7.403-9.065,9.94-14.139c2.97-5.987,4.903-12.422,5.893-19.211c0.306-1.933,0.519-3.889,0.66-5.916     c0.071-0.943,0.094-1.909,0.141-2.875v-0.118c0.189-5.822-0.212-11.857-1.179-18.032c-0.047-0.472-0.141-0.943-0.189-1.391     c-0.141-0.801-0.283-1.603-0.424-2.381c-0.118-0.495-0.188-0.967-0.33-1.461c-1.084-5.091-3.041-9.9-5.798-14.402     c0,0,0,0,0.023,0c-0.354-0.66-12.21-22.275-15.769-32.599c-3.63-10.489-5.775-23.949-11.974-24.396h-0.024     c-5.586-0.377-18.409,11.479-21.237,25.174v0.023c-2.97-0.872-6.034-1.697-9.24-2.475c-0.472-0.118-0.967-0.236-1.461-0.33     c-4.667-1.108-9.546-2.074-14.685-2.899h-0.024c-2.098-0.33-4.266-0.66-6.435-0.966l-23.807,13.118     c-0.354,0-7.449-15.876-7.779-15.9c-1.226-0.047-2.428-0.094-3.606-0.094c-3.205-0.094-6.294-0.07-9.264,0     c-0.023,0-0.023,0-0.023,0l-0.401-0.401c-1.674-1.744-3.842-4.313-4.101-4.62c-3.324-3.889-5.304-9.028-8.203-13.224     c-4.219-6.105-10.819-10.584-18.716-9.122c-0.495,0.094-0.931,0.295-1.379,0.601l-0.816,9.8l-2.001,23.071c0.047,0.141,0,0,0,0     c-7.449,2.71-13.671,6.176-18.881,10.23c-5.233,4.054-9.452,8.674-12.87,13.648c-0.495,0.707-0.943,1.414-1.39,2.121     c-1.815,2.829-3.347,5.775-4.714,8.815c-0.071,0.142-0.142,0.283-0.165,0.401c-0.707,1.532-1.32,3.088-1.909,4.644     c-0.283,0.731-0.519,1.414-0.778,2.145c-1.249,3.677-2.262,7.378-3.111,11.102c-0.07,0.424-0.165,0.825-0.236,1.226     c-0.094,0.424-0.188,0.848-0.259,1.272c-0.401,1.957-0.684,3.913-0.872,5.822c-0.024,0.071-0.024,0.165-0.047,0.283     c-0.283,2.357-0.424,4.667-0.471,6.93c-0.023,1.013-0.023,2.027,0,3.041c0.3,16.364,5.826,28.724,9.574,35.289     c-5.397,2.05-15.82,6.828-25.903,16.078c-4.744,4.414-9.436,9.792-13.445,16.362c-1.497,2.41-2.892,4.998-4.16,7.737     c-2.384,5.15-3.83,9.665-4.617,13.597c-1.167,5.835-0.913,10.35-0.178,13.647c1.091,4.998,3.615,6.444,3.615,6.444l1.61,1.775     c2.537,1.218,5.302,1.877,8.092,1.928l1.928,0.025c0,0-37.01,24.251-29.426,76.204c7.584,51.952,41.222,72.931,82.773,83.332     c0,0,0.178,1.243,0.659,3.145c1.421,5.733,5.479,17.427,14.967,19.584c12.633,2.841,17.757-6.646,17.757-6.646     s45.535,3.678,89.547-10.553c6.875-2.232,13.724-4.896,20.345-8.092c6.241-2.993,12.278-6.443,17.96-10.426     c6.875-4.795,13.242-10.376,18.848-16.844c5.124-5.91,9.614-12.557,13.267-20.04c2.943-6.012,5.352-12.582,7.128-19.736     c0.355-1.446,0.685-2.942,0.989-4.439c2.486-12.253,3.881-23.82,4.439-34.652C401.801,288.097,401.827,282.009,401.598,276.174z"/>
		</g>
		<g>
			<path style="fill:#A9312F;" d="M341.395,63.729l-8.499,1.935c-5.318-2.201-9.35-3.165-9.559-3.229     c2.843-13.687,11.659-24.525,21.254-25.175h0.016c0.788,3.181,1.703,6.988-0.69,15.166c-0.241,0.803-0.418,1.59-0.562,2.361     C343.354,54.788,340.141,62.669,341.395,63.729z"/>
		</g>
		<g>
			<path style="fill:#A9312F;" d="M229.211,54.023l-12.196,3.143c-2.235,0.663-4.021,1.179-5.612,1.848     c-2.619-7.953-3.434-21.168-0.767-28.253c0.739-1.976,2.475-3.814,3.583-4.618c0,0,2.843,1.43,4.835,8.386     c0.723,2.538,1.349,4.964,2.12,7.213C221.176,41.743,222.174,51.564,229.211,54.023z"/>
		</g>
		<g style="opacity:0.48;">
			<path style="fill:#E54949;" d="M293.661,172.705c-5.083,3-6.298,9.807-0.982,13.649c7.118,5.143,21.229,5.273,28.253-0.144     c5.93-4.573,3.124-13.842-2.847-15.878c-5.048-1.721-10.536-1.635-15.668-0.58C300.03,170.242,296.51,171.025,293.661,172.705z"/>
		</g>
		<g style="opacity:0.48;">
			<path style="fill:#E54949;" d="M208.714,163.227c3.85,3.771,3.44,10.07-2.112,12.314c-7.434,3.004-19.971,0.035-25.013-6.302     c-4.258-5.35,0.255-12.954,5.994-13.454c4.85-0.422,9.697,0.853,14.016,2.91C203.606,159.652,206.556,161.114,208.714,163.227z"/>
		</g>
		<g>
			<path style="fill:#A9312F;" d="M291.495,55.784c-6.908,5.157-12.419,13.431-16.773,19.648c-2.393,3.406-4.61,6.94-6.699,10.539     c-1.574,2.699-4.241,5.302-7.567,5.495c-4.177,0.241-7.663-2.699-9.478-6.25c-2.281-4.434-1.976-9.478-0.868-14.202     c1.574-6.683,5.125-12.885,9.8-18.009c0.337,0.016,0.691,0.032,1.044,0.048C271.878,53.567,282.064,54.483,291.495,55.784z"/>
		</g>
		<g>
			<path style="fill:#A9312F;" d="M170.698,101.025c7.92,8.386,17.656,16.885,9.254,17.592c-4.483,0.37-8.965-1.478-12.869-4     C167.083,114.616,167.846,109.186,170.698,101.025z"/>
		</g>
		<g>
			<path style="fill:#A9312F;" d="M165.702,130.681c4.177,0.659,8.643,0.771,11.696-0.723c5.382-2.635-2.747-6.442-11.197-9.527     C166.2,120.432,165.045,127.151,165.702,130.681z"/>
		</g>
		<g>
			<path style="fill:#A9312F;" d="M178.265,85.008c4.418,7.406,7.856,14.828,2.233,13.559c-2.426-0.546-4.884-2.233-7.133-4.322     C173.365,94.245,175.249,89.608,178.265,85.008z"/>
		</g>
		<g>
			<path style="fill:#A9312F;" d="M312.636,59.64c-1.847,1.655-3.92,3.503-5.414,4.9c-4.723,4.434-9.816,10.748-13.206,11.182     c-7.085,0.916-9.286-6.121-4.145-12.644c2.346-2.972,5.414-4.996,8.065-6.33h0.016C303.397,57.403,307.694,58.172,312.636,59.64z     "/>
		</g>
		<g>
			<path style="fill:#A9312F;" d="M256.311,52.893c-4.017,4.305-8.595,11.728-12.371,12.628c-5.687,1.349-9.591-3.342-6.94-6.201     c2.57-2.779,5.446-4.867,7.92-6.346C248.839,52.567,252.418,52.629,256.311,52.893z"/>
		</g>
		<g style="opacity:0.48;">
			<path style="fill:#A9312F;" d="M171.815,159.039c1.06,2.101,2.127,4.193,3.289,6.226c0.568,1.022,1.163,2.028,1.797,3     c0.635,0.958,1.328,1.924,2.126,2.617l0.198,0.172l-0.029,0.283c-0.1,0.984-0.146,2.017-0.049,2.99     c0.079,0.941,0.408,2.001,0.957,2.153c0.26,0.079,0.41,0.044,0.666-0.29c0.228-0.323,0.399-0.776,0.534-1.234     c0.266-0.928,0.393-1.956,0.469-2.936l0.196-2.514l0.977,2.311c0.421,0.997,0.918,2.001,1.465,2.945     c0.551,0.94,1.159,1.865,1.891,2.574c0.359,0.357,0.775,0.644,1.149,0.706c0.412,0.069,0.767,0.001,0.911-0.294     c0.369-0.683,0.175-1.932-0.102-2.903l-0.362-1.266l1.025,0.777c1.479,1.121,3.068,2.136,4.674,3.097     c1.612,0.957,3.296,1.795,5.08,2.42c-1.854-0.391-3.621-1.133-5.333-1.948c-1.71-0.837-3.336-1.807-4.93-2.872l0.663-0.489     c0.2,0.575,0.341,1.133,0.424,1.738c0.062,0.599,0.108,1.252-0.23,1.95c-0.179,0.337-0.52,0.662-0.902,0.776     c-0.192,0.074-0.379,0.113-0.555,0.111c-0.181,0.019-0.361,0.018-0.543-0.029c-0.744-0.125-1.285-0.536-1.734-0.945     c-0.913-0.833-1.561-1.809-2.151-2.802c-0.589-0.999-1.102-2.011-1.566-3.082l1.173-0.203c-0.067,1.094-0.223,2.141-0.53,3.214     c-0.168,0.533-0.355,1.072-0.732,1.602c-0.113,0.13-0.22,0.261-0.347,0.382c-0.161,0.109-0.305,0.236-0.497,0.307     c-0.396,0.156-0.834,0.139-1.186,0.001c-0.741-0.269-1.129-0.94-1.328-1.486c-0.203-0.57-0.275-1.127-0.324-1.677     c-0.071-1.102-0.015-2.159,0.154-3.236l0.17,0.455c-0.933-0.905-1.556-1.921-2.168-2.945c-0.597-1.03-1.145-2.079-1.664-3.139     C173.54,163.42,172.608,161.256,171.815,159.039z"/>
		</g>
		<g>
			<g>
				<g>
					<path style="fill:#FFFFFF;" d="M315.007,172.549c-7.727,4.418-19.343,5.157-27.391,1.253c-1.719-0.835-3.294-1.912-4.675-3.261       c-5.976-5.897-8.836-15.632-8.193-23.938c0-0.193,0.016-0.386,0.032-0.579c0.803-8.37,6.217-15.567,13.848-18.989       c8.933-4,21.801-4.563,29.175,2.796c2.908,2.908,5.077,6.796,6.394,11.085h0.016       C327.763,152.339,325.353,166.621,315.007,172.549z"/>
				</g>
				<g>
					<path style="fill:#A9312F;" d="M315.007,172.549c-4.372,2.489-9.4,3.634-14.406,3.865c-2.511,0.1-5.039-0.076-7.515-0.567       c-2.475-0.481-4.916-1.277-7.145-2.537c-2.236-1.254-4.151-3.062-5.703-5.085c-1.57-2.023-2.842-4.27-3.842-6.626       c-1.988-4.722-2.918-9.89-2.675-15.073l-0.003,0.079c0.316-6.167,3.078-11.94,7.528-16.087       c2.208-2.058,4.786-3.767,7.587-4.876c2.767-1.14,5.662-1.919,8.614-2.326c5.86-0.773,12.173-0.091,17.351,3.117       c2.593,1.574,4.689,3.842,6.282,6.317c1.617,2.483,2.78,5.214,3.585,8.024l-0.468-0.346l0.016,0l0.354,0.008l0.099,0.337       c0.826,2.886,1.278,5.866,1.34,8.847c0.051,2.98-0.256,5.963-0.976,8.844c-0.726,2.878-1.916,5.64-3.575,8.095       C319.791,169.006,317.587,171.096,315.007,172.549z M315.007,172.549c2.567-1.476,4.746-3.582,6.379-6.037       c1.653-2.45,2.732-5.248,3.382-8.112c0.655-2.869,0.848-5.832,0.652-8.756c-0.19-2.925-0.75-5.82-1.675-8.582l0.467,0.344       l-0.016,0l-0.286,0.162l-0.182-0.508c-0.901-2.689-2.141-5.264-3.775-7.544c-1.627-2.29-3.639-4.266-6.049-5.583       c-2.396-1.35-5.09-2.114-7.828-2.468c-2.743-0.356-5.552-0.277-8.299,0.163c-5.496,0.858-10.875,2.913-14.888,6.648       c-1.003,0.931-1.914,1.956-2.746,3.042c-0.793,1.112-1.547,2.26-2.152,3.488c-0.599,1.228-1.131,2.499-1.483,3.825       c-0.214,0.653-0.318,1.333-0.476,2.001c-0.084,0.655-0.232,1.402-0.255,1.971l-0.003,0.08c-0.442,4.817,0.213,9.803,1.919,14.4       c0.857,2.296,1.98,4.501,3.398,6.505c1.41,2.012,3.136,3.796,5.229,5.096c4.201,2.603,9.305,3.605,14.278,3.537       C305.587,176.151,310.612,174.972,315.007,172.549z"/>
				</g>
			</g>
			<g>
				<path style="fill:#A9312F;" d="M297.932,169.346c6.638,0.971,14.053-1.562,18.046-7.117c6.362-8.851,3.653-22.676-5.683-28.208      c-5.012-2.97-11.862-3.611-17.275-1.372c-14.466,5.986-13.324,28.049-0.312,35.016      C294.31,168.524,296.085,169.075,297.932,169.346z"/>
			</g>
			<g style="opacity:0.21;">
				<path style="fill:#A9312F;" d="M324.197,140.916c-29.223-13.848-47.265,3.422-49.449,5.687c0-0.193,0.016-0.386,0.032-0.579      c0.803-8.37,6.217-15.567,13.848-18.989c8.933-4,21.801-4.563,29.175,2.796C320.71,132.739,322.879,136.627,324.197,140.916z"/>
			</g>
		</g>
		<g>
			<g>
				<g>
					<path style="fill:#FFFFFF;" d="M222.727,150.217c-3.711,6.764-12.193,9.334-19.423,9.077c-0.996-0.048-1.976-0.177-2.924-0.401       c-11.47-2.683-18.218-18.218-13.96-29.11c0.418-1.125,0.98-2.201,1.654-3.213c5.944-8.836,21.158-12.178,30.027-5.944       c2.136,1.526,3.518,3.952,4.498,6.33c0.674,1.622,1.237,3.438,1.655,5.35C225.603,138.297,225.49,145.188,222.727,150.217z"/>
				</g>
				<g>
					<path style="fill:#A9312F;" d="M222.727,150.217c-0.676,1.177-1.468,2.294-2.423,3.267c-0.968,0.953-2.022,1.831-3.19,2.535       c-2.317,1.431-4.908,2.421-7.587,2.963c-1.339,0.279-2.697,0.481-4.066,0.567c-1.364,0.097-2.755,0.121-4.137-0.077       c-2.747-0.449-5.41-1.532-7.668-3.205c-4.557-3.33-7.584-8.455-8.945-13.918c-0.65-2.749-0.898-5.627-0.547-8.486l0.401-2.125       c0.179-0.697,0.42-1.38,0.631-2.07c0.449-1.371,1.134-2.707,1.955-3.904c3.401-4.831,8.795-7.686,14.307-8.775       c2.774-0.552,5.636-0.627,8.428-0.222c2.787,0.412,5.523,1.352,7.875,2.928c1.223,0.714,2.255,1.812,3.056,2.953       c0.809,1.157,1.429,2.412,1.944,3.691c1.038,2.559,1.651,5.247,2.051,7.945c0.393,2.702,0.489,5.448,0.197,8.156       C224.726,145.14,224.046,147.832,222.727,150.217z M222.727,150.217c2.557-4.858,2.695-10.601,1.744-15.878       c-0.496-2.659-1.288-5.264-2.423-7.692c-1.135-2.403-2.652-4.704-4.949-5.912c-4.54-2.665-10.16-2.883-15.191-1.679       c-2.539,0.592-4.98,1.589-7.175,2.939c-2.196,1.34-4.147,3.077-5.558,5.15c-0.724,1.033-1.311,2.135-1.719,3.342       c-0.189,0.607-0.413,1.206-0.579,1.82l-0.377,1.876c-0.36,2.537-0.256,5.162,0.267,7.711c1.011,5.08,3.537,10.065,7.635,13.405       c2.026,1.683,4.459,2.837,7.046,3.415c1.301,0.262,2.643,0.314,3.991,0.294c1.345-0.014,2.696-0.117,4.024-0.363       c2.657-0.456,5.272-1.318,7.603-2.707c1.17-0.688,2.229-1.548,3.204-2.488C221.235,152.492,222.037,151.387,222.727,150.217z"/>
				</g>
			</g>
			<g>
				<path style="fill:#A9312F;" d="M196.884,149.333c0.458,0.402,4.692,5.854,14.378,3.13c9.686-2.724,8.93-15.135,7.567-19.221      c-1.362-4.086-6.205-12.562-17.254-9.838C190.527,126.128,189.014,142.419,196.884,149.333z"/>
			</g>
			<g style="opacity:0.21;">
				<path style="fill:#A9312F;" d="M224.253,132.304c-12.772-7.776-29.32-4.868-37.834-2.522c0.418-1.125,0.98-2.201,1.654-3.213      c5.944-8.836,21.158-12.178,30.027-5.944c2.136,1.526,3.518,3.952,4.498,6.33C223.273,128.577,223.836,130.392,224.253,132.304z      "/>
			</g>
		</g>
		<g>
			<path style="fill:#A9312F;" d="M378.135,108.656c-27.488,15.23-36.067-3.133-24.917-6.025c7.47-1.944,14.394-5.928,18.957-8.627     C375.913,99.652,377.763,103.591,378.135,108.656z"/>
		</g>
		<g>
			<path style="fill:#A9312F;" d="M380.177,133.595c-10.025,3.743-22.316,5.73-31.811,1.473c-3.583-1.606-6.619-5.157-5.318-8.739     c0.53-1.43,1.719-2.651,3.149-3.535c4.225-2.635,9.992-3.052,15.021-3.567c5.719-0.594,12.531-3.02,17.865-5.349     C379.083,113.877,381.435,123.157,380.177,133.595z"/>
		</g>
		<g>
			<path style="fill:#A9312F;" d="M379.453,140.835c-0.736,8.055-2.726,13.406-5.912,19.198c-6.844,1.109-14.186-0.498-20.066-4.016     c-2.618-1.574-4.932-4.097-4.257-7.374c0.884-4.338,6.683-4.788,10.202-4.707C368.962,144.161,375.822,142.216,379.453,140.835z"/>
		</g>
		<g>
			<g>
				<path style="fill:#A9312F;" d="M165.779,167.06c4.263-1.45,8.608-2.537,12.972-3.536c4.372-0.962,8.765-1.833,13.24-2.338      c-4.262,1.452-8.607,2.539-12.972,3.535C174.646,165.681,170.253,166.552,165.779,167.06z"/>
			</g>
			<g>
				<path style="fill:#A9312F;" d="M163.656,156.095c4.332-0.389,8.657-0.408,12.979-0.335c4.322,0.11,8.641,0.313,12.953,0.892      c-4.333,0.393-8.657,0.41-12.979,0.335C172.287,156.874,167.968,156.671,163.656,156.095z"/>
			</g>
			<g>
				<path style="fill:#A9312F;" d="M167.066,142.655c4.062,1.555,7.954,3.44,11.804,5.406c3.833,2,7.623,4.081,11.241,6.497      c-4.063-1.552-7.955-3.438-11.804-5.407C174.475,147.15,170.685,145.068,167.066,142.655z"/>
			</g>
		</g>
		<g>
			<path style="fill:#FFFFFF;" d="M336.735,62.001c0,0-3.117-0.208-3.952-0.931c-0.852-0.723,3.952-0.836,3.952-0.836     c-2.394-1.028-4.354-3.84-3.534-3.888c0.836-0.065,3.631,2.024,3.631,2.024c-2.908-4.257-0.835-10.684,2.394-10.266     c1.381,0.177,2.875,3.245,4.128,6.683c-2.201,11.423,4.659,19.825,5.913,20.885c-5.109-4.643-11.311-7.904-16.371-10.009     C333.698,63.351,336.735,62.001,336.735,62.001z"/>
		</g>
		<g>
			<path style="fill:#FFFFFF;" d="M217.015,57.166c0.45-2.587,3.165-6.169,3.406-6.474c-0.209,0.08-2.425,1.028-3.454,0.45     c-1.076-0.61,2.619-2.073,2.619-2.073s-2.844,0.225-3.069-0.626c-0.241-0.836,2.651-0.611,2.651-0.611     c-2.041-1.237-5.735-6.78-3.197-8.241c1.655-0.948,3.856,0.803,5.205,2.153c1.832,5.318,4.514,9.623,11.551,12.082     C232.727,53.825,224.084,55.56,217.015,57.166z"/>
		</g>
		<g>
			<path style="fill:#A9312F;" d="M251.184,142.649c0,0-3.793-5.493-6.017-4.708c-2.223,0.785,3.478,9.099,5.832,10.014     c2.354,0.916,8.293-7.006,7.116-8.706C256.938,137.548,251.184,142.649,251.184,142.649z"/>
		</g>
		<g>
			<path style="fill:#FB5555;" d="M240.248,147.888c-4.1,0.62-8.158,2.812-10.768,6.516c-3.785,5.369-4.974,12.383-1.086,17.829     c2.413,3.38,6.022,5.398,9.703,6.738c7.053,2.568,14.24,4.621,21.786,3.145c2.737-0.536,5.468-1.487,7.8-3.252     c3.573-2.706,5.987-7.325,6.328-12.108c0.34-4.783-1.4-9.618-4.563-12.675c-3.891-3.761-10.02-5.338-15.109-5.676     C249.804,148.104,244.755,147.205,240.248,147.888z"/>
		</g>
		<g>
			<g>
				<path style="fill:#A9312F;" d="M343.345,173.678c-4.312,0.575-8.631,0.779-12.953,0.892c-4.322,0.076-8.646,0.058-12.979-0.335      c4.312-0.578,8.631-0.782,12.953-0.892C334.688,173.27,339.012,173.288,343.345,173.678z"/>
			</g>
			<g>
				<path style="fill:#A9312F;" d="M339.935,160.237c-3.619,2.413-7.409,4.495-11.241,6.496c-3.849,1.968-7.74,3.854-11.804,5.407      c3.618-2.415,7.408-4.497,11.241-6.496C331.981,163.678,335.873,161.793,339.935,160.237z"/>
			</g>
		</g>
		<g style="opacity:0.48;">
			<g>
				<path style="fill:#A9312F;" d="M245.441,194.561c6.526,0.112,12.901,0.494,19.289,0.623c3.19,0.075,6.372,0.062,9.563,0.006      c3.184-0.135,6.369-0.284,9.624-0.628c-6.021,2.664-12.746,3.29-19.242,3.202C258.152,197.55,251.637,196.677,245.441,194.561z"/>
			</g>
		</g>
		<g style="opacity:0.48;">
			<g>
				<path style="fill:#A9312F;" d="M297.894,249.257c-3.295,0.641-6.397,0.852-9.51,1.157c-1.559,0.101-3.096,0.297-4.662,0.413      c-1.568,0.141-3.12,0.339-4.82,0.424c2.621-2.16,5.987-3.091,9.255-3.406c1.65-0.116,3.305-0.122,4.942,0.105      C294.731,248.163,296.359,248.532,297.894,249.257z"/>
			</g>
		</g>
		<g>
			<path style="fill:#A9312F;" d="M242.664,151.578c1.161,1.382,1.918,3.035,2.44,4.736c0.544,1.705,0.776,3.499,0.809,5.294     c-0.004,1.795-0.211,3.603-0.769,5.315c-0.487,1.724-1.351,3.338-2.464,4.729c0.12-1.805,0.394-3.447,0.487-5.111     c0.127-1.649,0.206-3.28,0.166-4.914C243.347,158.346,243.005,155.112,242.664,151.578z"/>
		</g>
		<g>
			<path style="fill:#A9312F;" d="M257.877,151.89c0.209,3.889,0.12,7.547,0.359,11.181c0.105,1.81,0.294,3.599,0.584,5.382     c0.338,1.775,0.792,3.51,1.446,5.372c-1.533-1.23-2.64-2.973-3.382-4.817c-0.738-1.856-1.065-3.826-1.223-5.781     c-0.102-1.961,0.021-3.915,0.381-5.823C256.4,155.501,256.941,153.622,257.877,151.89z"/>
		</g>
		<g>
			<path style="fill:#A9312F;" d="M244.383,158.156c0.536-0.9,1.632-1.72,2.707-2.177c1.108-0.5,2.359-0.706,3.609-0.635     c2.507,0.171,4.893,1.673,5.816,3.918c-2.323-0.698-4.094-1.241-5.998-1.344c-0.942-0.099-1.903-0.046-2.92,0.003     C246.609,157.965,245.458,158.181,244.383,158.156z"/>
		</g>
		<g>
			<path style="fill:#A9312F;" d="M262.449,216.371c-2.09,3.372-3.454,6.765-4.591,10.32c-0.587,1.767-1.027,3.585-1.509,5.422     c-0.462,1.845-0.852,3.721-1.436,5.654c-0.49-1.945-0.66-3.946-0.558-5.941c0.09-1.998,0.452-3.986,1.044-5.916     c0.645-1.91,1.476-3.778,2.65-5.438C259.208,218.825,260.633,217.286,262.449,216.371z"/>
		</g>
		<g>
			<path style="fill:#A9312F;" d="M245.194,216.371c-0.371,1.73-0.437,3.368-0.494,5.01c-0.026,1.638-0.014,3.271,0.098,4.913     c0.035,1.644,0.212,3.291,0.267,4.975c0.113,1.68,0.215,3.377,0.129,5.17c-0.951-1.513-1.616-3.143-2.113-4.825     c-0.473-1.69-0.774-3.431-0.86-5.203c-0.067-1.767,0.036-3.566,0.492-5.31C243.154,219.381,243.862,217.614,245.194,216.371z"/>
		</g>
		<g>
			<path style="fill:#A9312F;" d="M201.84,248.406c-1.179-3.547-2.974-6.418-5.099-9.146c-1.03-1.387-2.241-2.639-3.42-3.964     c-0.608-0.644-1.242-1.276-1.849-1.956c-0.633-0.651-1.284-1.293-1.883-2.048c1.813,0.542,3.505,1.394,5.049,2.479     c1.539,1.093,2.952,2.389,4.136,3.9c1.151,1.529,2.143,3.212,2.716,5.061C202.062,244.556,202.342,246.55,201.84,248.406z"/>
		</g>
		<g>
			<path style="fill:#FFC38E;" d="M270.627,310.547c-3.906,0.152-48.603-3.146-58.573,56.721c0,0-15.652-36.986-33.459-27.295     c-13.013,7.078,6.976,19.304,13.977,47.336c1.978,7.99,3.094,14.205,3.653,18.949c-0.482-1.903-0.659-3.145-0.659-3.145     c-41.552-10.401-75.189-31.38-82.774-83.332c-7.585-51.952,29.426-76.204,29.426-76.204c19.203,0,34.271,2.283,49.593,5.378     c15.297,3.07,27.22-11.517,15.702-24.581c-4.718-5.353-13.876-8.168-23.033-9.614c-0.964-0.99-2.986-0.434-2.986-0.434     s43.833-20.673,56.923,15.196c0,0-14.349,65.05,34.569,74.227C272.986,303.749,274.559,310.395,270.627,310.547z"/>
		</g>
		<g style="opacity:0.48;">
			<g>
				<path style="fill:#A9312F;" d="M290.987,313.506c-8.862-2.44-18.185-3.116-27.215-1.913c-4.531,0.523-8.937,1.762-13.184,3.316      c-7.208,2.639-14.046,7.333-19.388,12.822c-3.305,3.396-6.172,7.212-8.647,11.249c-0.536,0.874-1.063,1.756-1.567,2.65      c-2.217,3.937-3.907,8.158-5.226,12.473c-1.299,4.299-2.208,8.829-2.444,13.202l-0.298,5.519l-2.146-5.089      c-1.928-4.572-4.282-9.09-7.009-13.273c-2.743-4.16-5.908-8.142-9.883-10.971c-3.927-2.861-8.763-4.267-13.463-2.919      c-1.828,0.524-3.682,1.48-4.56,3.257c-2.18,4.414,1.352,10.391,3.651,14.059c2.713,4.329,6.575,7.928,8.509,12.773      c1.066,2.37,1.859,4.823,2.609,7.279c2.787,9.884,4.458,19.991,5.534,30.137c-1.673-10.054-3.626-20.104-6.786-29.745      c-1.629-4.756-3.374-9.641-6.69-13.278c-1.737-1.923-3.315-3.984-4.749-6.153c-1.439-2.163-2.735-4.449-3.661-6.95      c-1.457-3.934-1.833-8.887,1.717-11.795c5.804-4.187,13.819-2.442,19.272,1.391c4.385,3.082,7.703,7.236,10.593,11.53      c2.882,4.337,5.307,8.884,7.273,13.738l-2.443,0.431c0.298-4.816,1.275-9.358,2.659-13.85      c2.298-7.459,5.951-14.54,10.709-20.725c3.792-4.928,8.308-9.32,13.467-12.805c6.775-4.577,14.425-7.839,22.532-9.051      c1.155-0.173,2.316-0.31,3.479-0.414C272.871,309.576,282.268,310.535,290.987,313.506z"/>
			</g>
		</g>
		<g style="opacity:0.48;">
			<g>
				<path style="fill:#A9312F;" d="M157.97,213.339c7.088-0.566,14.226-0.459,21.342,0.09c7.086,0.699,14.247,1.82,20.968,4.711      c6.731,2.655,12.712,9.069,12.998,16.94c0.101,3.889-1.596,7.749-4.339,10.433c-2.735,2.717-6.371,4.393-10.121,4.94      c-1.88,0.257-3.788,0.251-5.652-0.002c-1.911-0.284-3.544-0.689-5.309-1.02c-3.472-0.689-6.95-1.335-10.438-1.902      c-6.977-1.154-14-1.934-21.045-2.528c-3.524-0.276-7.056-0.47-10.594-0.59c-3.471-0.096-7.249,0.038-10.731-1.292      c-3.492-1.213-6.457-3.96-7.783-7.364c-1.38-3.377-1.54-7.096-0.92-10.582c-0.352,3.518,0.067,7.158,1.536,10.308      c1.452,3.175,4.293,5.507,7.571,6.461c1.629,0.507,3.336,0.775,5.059,0.864c1.706,0.043,3.516,0.002,5.292-0.009      c3.563,0.002,7.129,0.077,10.692,0.237c7.132,0.287,14.233,1.128,21.287,2.179c3.527,0.534,7.039,1.145,10.54,1.8      c1.729,0.306,3.555,0.721,5.161,0.937c1.657,0.207,3.333,0.19,4.969-0.051c3.273-0.441,6.415-1.866,8.755-4.139      c2.344-2.254,3.767-5.415,3.723-8.652c-0.015-3.249-1.419-6.423-3.492-9.068c-2.011-2.685-4.882-4.595-7.987-6.099      c-6.27-2.962-13.302-4.318-20.279-5.256C172.17,213.717,165.073,213.356,157.97,213.339z"/>
			</g>
		</g>
		<g style="opacity:0.48;">
			<g>
				<path style="fill:#A9312F;" d="M170.302,259.156c2.038,0.234,3.973,0.917,5.801,1.777c1.843,0.847,3.556,1.952,5.165,3.189      c3.179,2.499,5.906,5.72,7.364,9.531c-1.607-1.279-3.002-2.62-4.497-3.856c-1.469-1.252-2.933-2.484-4.458-3.644      C176.675,263.752,173.548,261.58,170.302,259.156z"/>
			</g>
		</g>
		<g style="opacity:0.48;">
			<g>
				<path style="fill:#A9312F;" d="M172.838,270.806c1.063-1.509,2.378-2.758,3.78-3.886c1.398-1.141,2.929-2.104,4.541-2.939      c1.632-0.79,3.329-1.498,5.156-1.838c1.798-0.359,3.733-0.465,5.495,0.124c-3.49,1.003-6.408,2.46-9.487,4.016      C179.246,267.793,176.244,269.475,172.838,270.806z"/>
			</g>
		</g>
		<g>
			<path style="fill:#A9312F;" d="M388.255,214.049c-8.346,3.247-17.427,4.033-26.382,4.059c-5.403,0.026-10.883-0.228-16.007-1.928     c-1.928-0.659-3.957-1.674-4.693-3.577c-0.71-1.852,0.102-4.033,1.522-5.429c1.395-1.421,3.297-2.207,5.149-2.943     c9.665-3.805,20.066-6.773,29.02-12.252C380.67,198.093,384.653,205.45,388.255,214.049z"/>
		</g>
		<g>
			<path style="fill:#A9312F;" d="M400.051,257.783c-0.964,0.253-1.953,0.457-2.917,0.634c-10.857,1.978-22.298,0.685-32.419-3.704     c-3.019-1.319-6.418-3.78-5.835-7.027c0.355-2.004,2.181-3.399,4.008-4.313c4.617-2.257,9.919-2.537,14.967-3.45     c4.718-0.837,9.31-2.258,13.673-4.236c1.141-0.508,2.359-1.243,3.576-2.03C397.159,241.04,398.884,249.082,400.051,257.783z"/>
		</g>
		<g>
			<path style="fill:#FB5555;" d="M281.967,240.197l-3.316-0.977l-4.368-3.863c-4.312-10.527-10.248-21.461-16.463-21.968     c-10.324-0.837-18.696,6.494-20.446,25.773l-2.806,7.046l0.506,3.774l-9.066-2.025l-1.242-9.936     c4.592-19.812,14.612-56.442,25.799-55.453c9.639,0.863,25.012,32.267,32.597,49.137L281.967,240.197z"/>
		</g>
		<g>
			<path style="fill:#67DCBC;" d="M237.374,239.163c-0.305,3.272-0.406,6.925-0.305,10.933l0.076,2.435     c-8.929-0.736-15.017-2.207-15.017-2.207s0.964-5.023,2.638-12.303C227.024,238.326,231.565,238.884,237.374,239.163z"/>
		</g>
		<g>
			<path style="fill:#67DCBC;" d="M287.703,242.181c-2.867,2.004-5.91,3.653-9.082,4.998c-1.116-3.399-2.587-7.585-4.338-11.821     c3.095-0.989,6.088-2.182,8.879-3.653C285.952,237.945,287.703,242.181,287.703,242.181z"/>
		</g>
		<g style="opacity:0.48;">
			<g>
				<path style="fill:#A9312F;" d="M329.529,289.67c-3.599,3.112-7.632,5.717-11.858,7.929c-4.222,2.228-8.666,4.067-13.268,5.408      c-9.189,2.729-18.996,3.46-28.553,2.222c-4.759-0.726-9.532-1.748-14.01-3.713c-4.457-1.96-8.647-4.642-12.136-8.11      c-7.064-6.997-10.544-16.63-12.311-26.032c-1.517-9.535-2.023-19.128-1.125-28.752c0.492-4.793,1.409-9.619,3.361-14.151      c0.91-2.286,2.273-4.414,3.861-6.346c1.652-1.901,3.757-3.433,6.084-4.43c2.329-1.023,4.902-1.373,7.377-1.228l0.933,0.035      l0.993,0.225c0.687,0.109,1.279,0.39,1.85,0.712c0.609,0.269,1.125,0.641,1.611,1.045c0.511,0.38,1.004,0.773,1.415,1.235      c3.509,3.53,5.741,7.85,7.851,12.13c4.011,8.691,6.95,17.777,9.373,26.968c-2.981-9.018-6.16-18.008-10.508-26.408      c-2.184-4.146-4.527-8.361-7.842-11.51c-1.68-1.564-3.534-2.68-5.738-2.624c-2.259-0.077-4.522,0.297-6.528,1.244      c-4.088,1.809-6.948,5.633-8.683,9.836c-1.781,4.225-2.638,8.858-3.073,13.5c-0.801,9.306-0.213,18.862,1.325,28.065      c1.641,9.135,4.9,18.264,11.439,24.839c3.236,3.267,7.142,5.817,11.357,7.717c4.244,1.874,8.807,2.968,13.409,3.801      C294.668,306.178,314.292,300.995,329.529,289.67z"/>
			</g>
		</g>
		<g>
			<path style="fill:#A9312F;" d="M401.471,294.413c-5.606,0.837-11.567,0.33-17.072-1.066c-4.262-1.065-8.448-2.613-11.974-5.225     c-1.903-1.395-3.729-3.653-2.968-5.86c0.685-2.055,3.12-2.816,5.251-3.196c7.636-1.293,15.423-0.888,23.109-1.953     c1.167-0.152,2.436-0.507,3.78-0.939C401.827,282.009,401.801,288.097,401.471,294.413z"/>
		</g>
		<g>
			<path style="fill:#A9312F;" d="M396.043,333.504c-1.776,7.154-4.185,13.724-7.128,19.736c-3.627-1.37-7.077-3.146-9.97-4.719     c-7.559-4.109-14.307-9.741-19.685-16.489c-3.044-3.831-3.628-9.563,2.232-10.959c2.765-0.659,5.657,0.152,8.321,1.142     C378.767,325.564,386.86,330.714,396.043,333.504z"/>
		</g>
		<g>
			<path style="fill:#A9312F;" d="M163.069,193.35c-0.837,2.258-3.196,3.679-5.581,4.135c-2.359,0.456-4.82,0.126-7.229-0.026     c-4.642-0.279-9.335,0-13.927,0.888c-0.127,0.026-0.279,0.051-0.406,0.076c4.008-6.57,8.701-11.948,13.445-16.362     c1.192,0.229,2.385,0.482,3.577,0.761c2.689,0.609,5.454,1.37,7.61,3.146C162.689,187.744,164.033,190.737,163.069,193.35z"/>
		</g>
		<g>
			<path style="fill:#A9312F;" d="M145.109,223.867c-2.029,2.055-4.87,3.171-7.483,4.287c-3.323,1.446-6.57,3.069-9.792,4.769     c-0.279,0.152-0.583,0.305-0.863,0.482c-1.217-4.631-0.989-7.813,0.178-13.648c4.211-1.852,8.828-2.816,13.42-2.816     c1.953,0.026,5.327-0.127,6.291,1.979C147.646,220.62,146.251,222.725,145.109,223.867z"/>
		</g>
		<g>
			<path style="fill:#A9312F;" d="M375.647,373.28c-5.606,6.469-11.973,12.05-18.848,16.844c-3.07-4.769-5.277-10.122-7.94-15.094     c-2.283-4.261-5.2-10.908-2.486-15.601c2.613-4.566,7.052-4.338,11.516-2.257c5.632,2.613,11.314,8.193,13.571,10.933     C372.553,369.424,374.049,371.2,375.647,373.28z"/>
		</g>
		<g>
			<path style="fill:#A9312F;" d="M338.839,400.55c-6.621,3.197-13.47,5.86-20.345,8.092c-1.395-6.063-1.471-13.064-0.964-19.178     c0.685-8.193,5.201-15.905,12.811-6.443c1.395,1.725,3.374,5.023,5.2,8.954C336.784,394.639,337.952,397.608,338.839,400.55z"/>
		</g>
		<g style="opacity:0.48;">
			<g>
				<path style="fill:#A9312F;" d="M34.933,314.001c0.359-1.624,1.36-3.092,2.71-4.172c1.343-1.112,3.091-1.754,4.857-1.914      c1.777-0.085,3.503,0.299,5.029,1.004c0.759,0.353,1.448,0.835,2.129,1.281c0.622,0.552,1.235,1.093,1.765,1.72      c-0.834-0.141-1.585-0.368-2.327-0.584l-2.208-0.507c-1.452-0.247-2.845-0.439-4.206-0.339      C39.971,310.673,37.436,311.89,34.933,314.001z"/>
			</g>
		</g>
		<g>
			<path style="fill:#A9312F;" d="M248.587,187.859c0,0-3.394,6.103,0,6.67C251.981,195.097,248.587,187.859,248.587,187.859z"/>
		</g>
		<g>
			<path style="fill:#A9312F;" d="M260.94,202.734c0,0-3.394,6.103,0,6.67C264.334,209.971,260.94,202.734,260.94,202.734z"/>
		</g>
		<g>
			<path style="fill:#A9312F;" d="M243.462,204.407c0,0-3.394,6.103,0,6.67C246.856,211.644,243.462,204.407,243.462,204.407z"/>
		</g>
	</g>
	<path style="fill:#A9312F;" d="M141.509,428.659c0,0-2.783-6.404-5.296-4.054C133.699,426.954,141.509,428.659,141.509,428.659z"/>
	<path style="fill:#A9312F;" d="M186.027,461.188c0,0,6.714,1.921,6.496-1.513C192.306,456.241,186.027,461.188,186.027,461.188z"/>
	<path style="fill:#A9312F;" d="M167.384,418.933c0,0-6.441,2.698-4.124,5.242C165.576,426.719,167.384,418.933,167.384,418.933z"/>
	<g>
		<g>
			<polygon style="fill:#FB5555;" points="480.014,304.979 445.052,361.036 409.738,417.656 287.699,446.728 222.116,441.308      186.285,419.603 182.32,419.439 190.59,395.782 232.628,412.235 258.579,382.177 316.889,402.357 352.109,353.246      369.285,362.96 388.244,362.96 419.64,359.323 442.471,320.841 470.394,299.77    "/>
		</g>
		<g style="opacity:0.36;">
			<polygon style="fill:#A9312F;" points="271.462,402.92 232.628,428.66 232.628,412.235 258.579,382.177    "/>
		</g>
		<g style="opacity:0.36;">
			<polygon style="fill:#A9312F;" points="369.285,362.96 324.21,428.66 316.889,402.357 352.109,353.246    "/>
		</g>
		<g style="opacity:0.36;">
			<path style="fill:#A9312F;" d="M480.014,304.979l-34.962,56.057c-5.42,5.092-8.987,8.424-8.987,8.424l-16.425-10.137     l22.831-38.482l27.923-21.071L480.014,304.979z"/>
		</g>
		<g>
			<path style="fill:#67DCBC;" d="M448.379,421.326c-6.393,9.183-14.028,17.96-23.211,25.951     c-4.947,4.313-10.299,8.371-16.159,12.126c-3.754,2.435-7.712,4.744-11.872,6.849c-2.866,1.522-5.809,2.943-8.878,4.287     c-3.551,1.573-7.103,2.993-10.68,4.262c-4.718,1.725-9.437,3.171-14.18,4.414c-5.581,1.471-11.162,2.613-16.742,3.45     c-6.24,0.939-12.506,1.522-18.721,1.725c-4.033,0.178-8.067,0.178-12.1,0c-3.602-0.127-7.179-0.381-10.756-0.736     c-5.124-0.507-10.223-1.268-15.271-2.257c-7.864-1.522-15.626-3.552-23.211-6.114c-32.115-10.756-61.389-30.415-84.27-55.834     c-1.192-1.319,17.858,2.816,36.25,6.976c4.871,1.116,9.663,1.407,14.051,2.421l6.04-4.73l28.766-26.306     c0,0,0.837,0.38,2.283,1.04c6.469,2.917,25.24,11.314,38.051,16.032c5.429,2.004,11.197,3.138,13.1,3.138     c3.425,0,10.063-13.857,20.29-23.644c6.666-6.38,12.376-13.898,17.373-19.656c4.668-5.428,8.543-8.957,10.474-9.278     c5.53-0.921,15.525,9.639,23.921,7.483c0.609-0.152,1.294-0.33,2.029-0.507c3.323-0.863,7.686-2.004,12.227-2.968     c7.915-1.674,16.337-2.841,20.598-1.065c3.298,1.37,6.644-3.758,10.652-9.466c4.262-6.063,9.236-12.857,13.498-16.003     c0.507-0.38,1.053-0.584,1.497-0.939c9.805-7.838,26.585-36.986,26.585-36.986S484.604,369.297,448.379,421.326z"/>
		</g>
		<g>
			<path style="fill:#97ECE2;" d="M448.379,421.326c-6.393,9.183-14.028,17.96-23.211,25.951     c15.88-36.25,15.244-69.84,13.265-88.358c4.262-6.063,9.236-12.857,13.498-16.003     C459.617,372.062,454.391,401.336,448.379,421.326z"/>
		</g>
		<g>
			<path style="fill:#97ECE2;" d="M409.009,459.402c-3.754,2.435-7.712,4.744-11.872,6.849c2.765-36.529-0.178-74.453-2.182-93.834     c3.323-0.863,7.686-2.004,12.227-2.968C410.506,401.666,409.745,439.945,409.009,459.402z"/>
		</g>
		<g>
			<path style="fill:#97ECE2;" d="M377.579,474.8c-4.718,1.725-9.437,3.171-14.18,4.414c-8.118-22.196-16.513-57.315-22.043-84.154     c5.86-7.128,12.379-13.916,17.376-19.675L377.579,474.8z"/>
		</g>
		<g>
			<path style="fill:#97ECE2;" d="M346.656,482.664c-6.24,0.939-12.506,1.522-18.721,1.725     c-16.311-16.616-41.932-46.701-58.218-85.539c6.469,2.917,25.24,11.314,38.051,16.032     C318.397,436.521,332.45,462.573,346.656,482.664z"/>
		</g>
		<g>
			<path style="fill:#97ECE2;" d="M305.079,483.653c-5.124-0.507-10.223-1.268-15.271-2.257c-7.864-1.522-15.626-3.552-23.211-6.114     c-17.58-15.449-36.275-34.55-48.02-48.857c4.871,1.116,9.663,1.571,14.051,2.585l6.04-4.894L305.079,483.653z"/>
		</g>
		<g>
			<path style="fill:#FFFFFF;" d="M182.324,419.436l50.426,8.567l-0.562,0.157l34.555-31.114l0.465-0.419l0.594,0.231l53.857,20.945     l-1.4,0.383c7.41-9.471,14.899-18.863,22.65-28.062c3.884-4.591,7.816-9.145,11.883-13.596c2.037-2.223,4.104-4.422,6.271-6.551     c1.087-1.063,2.191-2.111,3.375-3.112c0.591-0.501,1.206-0.988,1.872-1.452c0.707-0.441,1.3-0.95,2.591-1.166l0.13-0.022     l0.18,0.036c6.443,1.31,11.339,5.455,16.753,7.377c1.334,0.461,2.696,0.718,3.899,0.504l4.427-0.89l8.91-1.846     c5.975-1.156,11.886-2.398,18.095-2.88c0.792-0.027,1.578-0.085,2.515,0.115c0.811,0.171,1.638,0.461,2.396,0.898     c0.735,0.413,1.472,1.102,1.622,1.068c0.141,0.089,0.882-0.258,1.435-0.629c1.106-0.658,2.038-1.879,3.006-3.005     c0.952-1.154,1.88-2.346,2.802-3.542c3.695-4.791,7.269-9.706,11.273-14.325c1.008-1.15,2.043-2.282,3.179-3.344     c0.564-0.533,1.166-1.041,1.823-1.508c0.348-0.22,0.68-0.45,1.093-0.619c0.354-0.198,0.995-0.281,1.109-0.347     c1.113-0.512,2.226-1.702,3.216-2.764c1.006-1.105,1.963-2.27,2.897-3.453c7.376-9.573,13.868-19.853,20.354-30.086     c-6.108,10.475-12.378,20.866-19.556,30.699c-0.914,1.219-1.853,2.422-2.859,3.584c-1.054,1.139-1.969,2.336-3.598,3.165     c-0.588,0.215-0.734,0.176-1.047,0.352c-0.289,0.123-0.58,0.333-0.867,0.524c-0.571,0.422-1.125,0.899-1.654,1.415     c-1.064,1.025-2.061,2.147-3.033,3.291c-3.873,4.605-7.365,9.56-10.999,14.424c-0.91,1.218-1.826,2.433-2.785,3.632     c-0.986,1.163-1.882,2.459-3.367,3.422c-0.711,0.378-1.318,1.039-2.73,0.931c-1.355-0.382-1.624-1.004-2.247-1.256     c-0.561-0.309-1.182-0.524-1.856-0.656c-0.55-0.122-1.299-0.086-2.015-0.043c-5.882,0.531-11.852,1.902-17.763,3.086     l-8.889,1.888l-4.483,0.924c-1.805,0.32-3.516-0.057-5.035-0.564c-5.991-2.168-10.824-6.148-16.444-7.203l0.309,0.015     c-0.204,0.023-0.908,0.373-1.433,0.763c-0.563,0.397-1.125,0.844-1.676,1.317c-1.104,0.943-2.174,1.967-3.227,3.008     c-2.105,2.089-4.141,4.275-6.148,6.488c-4.009,4.433-7.903,8.987-11.75,13.581c-7.69,9.191-15.277,18.492-22.692,27.909     l-0.563,0.715l-0.838-0.332l-53.723-21.287l1.059-0.188l-35.036,30.57l-0.25,0.218l-0.312-0.061L182.324,419.436z"/>
		</g>
	</g>
</g>















</svg>
